<svg width="4096" height="4096" viewBox="0 0 4096 4096" fill="none" xmlns="http://www.w3.org/2000/svg">
<path fill-rule="evenodd" clip-rule="evenodd" d="M1192.04 178.664C1156.68 195.312 1140.98 203.803 1097.54 229.773C1022.65 274.547 958.693 323.3 893.733 385.137C866.433 411.125 814.211 466.439 798.461 486.049C793.603 492.099 781.633 506.869 771.862 518.874C707.733 597.665 637.641 713.633 588.283 822.612C577.394 846.655 550.414 916.533 543.996 937.315C542.525 942.079 541.063 946.812 540.75 947.833C540.21 949.58 554.668 962.977 587.793 991.429C595.719 998.236 617.007 1016.66 635.1 1032.38C695.619 1084.94 731.29 1115.89 759.735 1140.49C808.905 1183.02 812.737 1186.53 811.406 1187.74C810.689 1188.4 786.714 1194.01 758.128 1200.22C683.106 1216.51 628.57 1228.62 566.766 1242.69L512.428 1255.06L512.37 1269.04C512.016 1353.94 524.097 1463.98 544.083 1557.87C551.926 1594.72 571.881 1672.01 580.385 1698.46C593.177 1738.27 625.576 1823.18 639.99 1854.67C643.142 1861.55 656.21 1888.14 669.029 1913.75C713.897 2003.37 770.471 2091.81 833.848 2171.4C921.341 2281.27 1007.03 2365.86 1119.02 2452.9C1149.79 2476.81 1222.89 2527.14 1241.25 2537.05L1250.3 2541.93L1253.53 2534.64C1255.3 2530.63 1261.04 2516 1266.29 2502.12C1271.53 2488.23 1286.96 2448.88 1300.59 2414.67C1314.21 2380.45 1338.69 2318.79 1355 2277.64C1371.3 2236.49 1395.28 2176.25 1408.29 2143.77C1421.3 2111.28 1435.38 2075.55 1439.59 2064.36C1453.45 2027.48 1477.47 1968.19 1479.28 1966.38C1481.18 1964.47 1579.94 1925.04 1614.52 1912.38C1626.01 1908.17 1653.57 1897.52 1675.78 1888.7L1716.15 1872.67L1716.93 1831.42C1717.76 1787.3 1718.88 1779.6 1726.87 1763.1C1732.07 1752.36 1745.53 1740.15 1756.8 1735.93C1767.11 1732.07 1785.93 1729.11 1791.42 1730.49L1795.27 1731.46V1826.46V1921.47L1813.77 1932.42C1823.95 1938.44 1850.35 1953.45 1872.44 1965.77C1894.53 1978.09 1914.55 1989.31 1916.93 1990.71L1921.27 1993.24V2420.31V2847.36L1907.48 2855.74C1852.99 2888.86 1836.78 2898.88 1835.21 2900.39C1834.22 2901.35 1832.93 2908.59 1832.35 2916.5L1831.29 2930.87L1851 2947.21C1861.85 2956.2 1878.89 2970.64 1888.88 2979.3L1907.05 2995.05L1907.07 3302.8L1907.09 3610.54L1899.61 3619.2C1895.5 3623.96 1887.52 3633.31 1881.89 3639.99C1872.71 3650.87 1848.77 3678.38 1806.85 3726.22L1792.44 3742.66L1797.95 3752.37C1800.98 3757.71 1805.87 3766.86 1808.83 3772.71L1814.21 3783.34L1857.1 3783.35L1900 3783.36L1974.03 3857.3L2048.05 3931.24L2122.12 3857.29L2196.18 3783.34H2239.56H2282.93L2293.58 3762.86L2304.22 3742.37L2298.99 3736.34C2296.11 3733.02 2282.3 3717.26 2268.3 3701.31C2254.3 3685.35 2230.74 3658.48 2215.96 3641.59L2189.08 3610.88L2189.08 3302.97L2189.09 2995.05L2221.67 2967.49C2239.58 2952.33 2256.64 2937.79 2259.56 2935.17L2264.88 2930.41L2263.56 2915.52L2262.25 2900.63L2236.8 2884.84C2222.8 2876.16 2203.67 2864.35 2194.28 2858.6L2177.2 2848.14L2176.81 2420.44L2176.41 1992.73L2198.07 1980.66C2209.98 1974.03 2227.17 1964.35 2236.27 1959.16C2245.36 1953.97 2263.6 1943.59 2276.8 1936.1L2300.8 1922.48L2300.82 1826.99L2300.84 1731.51L2305.66 1730.54C2314.67 1728.74 2332.45 1732.35 2344.57 1738.43C2357.26 1744.79 2364.86 1752.22 2370.89 1764.12C2378.36 1778.85 2380.02 1790.21 2381.02 1833.28L2381.95 1873.23L2425.27 1890.37C2449.09 1899.8 2478.15 1911.03 2489.84 1915.32C2501.53 1919.62 2535.2 1932.68 2564.65 1944.35L2618.2 1965.57L2620.87 1972.37C2622.33 1976.12 2637.32 2013.91 2654.17 2056.35C2671.02 2098.8 2697.68 2166.13 2713.41 2205.98C2729.15 2245.83 2750.96 2300.75 2761.88 2328.04C2772.8 2355.33 2788.61 2395.37 2797.03 2417.03C2812.72 2457.42 2845.71 2539.4 2846.71 2540.48C2848.25 2542.16 2861.16 2534.45 2897.77 2510C2955.68 2471.31 3007.5 2431.92 3048.97 2395.07C3059.79 2385.45 3071.49 2375.19 3074.95 2372.27C3090.12 2359.49 3148.35 2302.1 3175.98 2272.71C3247.49 2196.64 3315.74 2107.29 3370.73 2017.77C3393.64 1980.46 3431.26 1909.69 3449.01 1870.5C3485.05 1790.93 3505.83 1734.98 3528.57 1656.3C3560.88 1544.51 3582.23 1401.45 3583.34 1289.31L3583.68 1254.84L3526.19 1241.79C3494.57 1234.61 3450.98 1224.86 3429.33 1220.12C3407.67 1215.37 3366.39 1206.33 3337.59 1200.01C3305.52 1192.98 3285.22 1187.82 3285.22 1186.7C3285.22 1185.7 3291.06 1180.06 3298.21 1174.19C3305.35 1168.31 3320.42 1155.26 3331.68 1145.18C3342.94 1135.11 3356.81 1123.02 3362.51 1118.32C3368.2 1113.62 3384.58 1099.5 3398.91 1086.94C3431.61 1058.27 3457.22 1036.05 3511.14 989.57C3534.58 969.366 3554.4 951.92 3555.19 950.8C3559.08 945.263 3524.92 857.02 3489.6 781.39C3481.61 764.263 3445.58 697.668 3430.38 671.928C3400.19 620.773 3344.77 541.85 3308.17 497.89C3248.68 426.445 3174.13 354.047 3108.55 304.034C3057.28 264.935 3002.66 229.641 2947.38 199.872C2922.68 186.572 2876.05 164.702 2874.89 165.867C2873.99 166.762 2863.41 217.39 2852.07 275.028C2847.63 297.55 2834.89 359.92 2823.74 413.628C2812.6 467.335 2800.94 524.389 2797.83 540.415C2790.01 580.767 2770.36 675.901 2768.97 680.14C2768.23 682.404 2758.72 689.336 2741.84 699.911C2699.22 726.618 2624.97 773.392 2593.44 793.395C2577.22 803.684 2550 820.962 2532.95 831.79C2515.9 842.618 2492.67 857.165 2481.33 864.114C2469.98 871.064 2453.62 881.406 2444.95 887.096C2436.29 892.785 2418.75 903.985 2405.97 911.984L2382.74 926.529L2382.69 966.966C2382.64 1011.5 2380.88 1040.97 2377.25 1057.76C2370.29 1090 2350.08 1111.37 2315.2 1123.37C2299.17 1128.89 2300.84 1140.87 2300.84 1020.22V914.126L2217.93 841.065C2172.33 800.881 2122.54 757.085 2107.28 743.741C2092.03 730.396 2074.59 714.799 2068.53 709.08C2062.46 703.361 2055.36 697.161 2052.75 695.3L2047.99 691.917L2028.33 709.28C1991.01 742.246 1934.76 791.683 1915.05 808.831C1904.18 818.294 1887.84 832.866 1878.74 841.212C1869.64 849.559 1857.24 860.513 1851.18 865.555C1845.11 870.595 1830.05 883.919 1817.71 895.165L1795.27 915.608V1020.96C1795.27 1111.87 1794.95 1126.32 1792.98 1126.32C1787.95 1126.32 1763.27 1116.23 1754.74 1110.68C1722.65 1089.84 1714.99 1062.6 1714.96 969.25L1714.94 926.37L1710.13 923.884C1707.49 922.516 1693.23 913.581 1678.46 904.029C1663.69 894.477 1635.74 876.815 1616.37 864.782C1596.99 852.749 1574.21 838.352 1565.75 832.789C1557.28 827.226 1539.01 815.623 1525.15 807.004C1496.87 789.419 1409.17 734.132 1375.53 712.681C1363.4 704.949 1347.84 695.091 1340.96 690.776L1328.43 682.929L1318.76 635.69C1313.44 609.71 1300.86 548.763 1290.81 500.253C1280.76 451.743 1271.38 405.674 1269.98 397.878C1267.2 382.483 1223.9 172.834 1222.57 168.321C1222.12 166.806 1221.27 165.592 1220.68 165.626C1220.09 165.66 1207.2 171.526 1192.04 178.664ZM1524.41 1192.64C1541.28 1202.26 1569.96 1218.3 1588.15 1228.27C1606.34 1238.25 1632.57 1252.96 1646.43 1260.95C1660.29 1268.95 1678.72 1279.25 1687.38 1283.86C1696.04 1288.46 1705.08 1293.57 1707.46 1295.22L1711.79 1298.2V1440.44C1711.79 1552.33 1711.37 1583.02 1709.82 1584.28C1707.67 1586.03 1688.85 1593.91 1639.34 1613.78C1621.58 1620.9 1587.21 1635.06 1562.95 1645.23C1518.96 1663.68 1496.57 1672.54 1490.39 1673.94C1488.06 1674.46 1485.66 1673.01 1482.05 1668.89L1476.97 1663.11L1480.41 1657.35C1482.3 1654.17 1490.6 1639.53 1498.86 1624.8C1507.12 1610.08 1521.43 1585.27 1530.66 1569.68C1539.89 1554.09 1550.18 1536.37 1553.52 1530.3C1561.78 1515.3 1593.22 1460.87 1597.97 1453.34L1601.8 1447.26L1591.97 1427.36C1579.83 1402.79 1566.63 1375.16 1552.73 1345.24C1543.36 1325.09 1520.68 1277.69 1488.81 1211.65C1483.25 1200.11 1478.69 1188.6 1478.69 1186.06C1478.69 1180.23 1483.67 1175.14 1489.37 1175.14C1492.06 1175.14 1505.6 1181.9 1524.41 1192.64ZM2615.73 1179.29C2617.52 1181.57 2618.99 1184.69 2618.99 1186.22C2618.99 1187.75 2611.48 1204.48 2602.3 1223.41C2579.26 1270.94 2573.37 1283.29 2563.37 1305.08C2558.6 1315.47 2546.44 1340.99 2536.35 1361.78C2526.26 1382.57 2513.04 1410.3 2506.98 1423.4L2495.96 1447.22L2510.4 1473.01C2518.33 1487.19 2530.33 1508.02 2537.06 1519.28C2543.79 1530.54 2559.59 1557.83 2572.17 1579.92C2584.75 1602 2600.43 1629.25 2607.02 1640.46C2613.6 1651.67 2618.97 1661.6 2618.94 1662.51C2618.87 1665.1 2609.84 1674.42 2607.41 1674.42C2604.79 1674.42 2561.25 1656.89 2509.53 1635.02C2488.74 1626.23 2462.87 1615.6 2452.04 1611.41C2441.21 1607.22 2422.08 1599.53 2409.52 1594.32L2386.68 1584.85L2386.28 1440.72L2385.87 1296.59L2399.66 1289.13C2407.25 1285.02 2429.75 1272.46 2449.68 1261.21C2469.6 1249.96 2496.53 1234.91 2509.53 1227.77C2522.52 1220.64 2548.75 1205.94 2567.8 1195.11C2605.62 1173.63 2610.11 1172.15 2615.73 1179.29ZM823.884 2556.13C820.202 2558.43 817.181 2561.03 817.169 2561.91C817.156 2562.79 824.552 2582.99 833.604 2606.82C842.655 2630.64 856.04 2666.07 863.348 2685.57C870.654 2705.06 884.569 2741.91 894.27 2767.47C903.97 2793.02 917.134 2827.75 923.524 2844.64C929.913 2861.53 940.812 2890.02 947.742 2907.94C954.672 2925.87 963.3 2948.9 966.915 2959.13C970.529 2969.36 981.455 2998.28 991.192 3023.4C1000.93 3048.52 1012.99 3080.06 1017.98 3093.49C1022.98 3106.92 1030.88 3128.12 1035.54 3140.6C1040.2 3153.08 1043.68 3163.63 1043.27 3164.04C1042.24 3165.07 990.193 3152.24 894.366 3127.34C785.705 3099.11 724.028 3083.75 723.087 3084.69C722.661 3085.12 729.307 3093.93 737.858 3104.27C746.407 3114.61 784.943 3161.12 823.491 3207.62C862.039 3254.12 900.601 3300.8 909.185 3311.35C917.767 3321.9 931.022 3337.76 938.639 3346.61C946.257 3355.45 959.249 3371.05 967.512 3381.26C975.774 3391.47 994.413 3414.05 1008.93 3431.44C1023.45 3448.82 1059.31 3492.06 1088.62 3527.51C1117.92 3562.97 1151.7 3603.67 1163.67 3617.97C1175.65 3632.26 1186.9 3645.72 1188.69 3647.89L1191.94 3651.83L1192.02 3634.5C1192.07 3624.97 1193.14 3571.82 1194.41 3516.38C1195.67 3460.94 1196.72 3407.6 1196.74 3397.86C1196.76 3382.52 1197.11 3380.14 1199.34 3380.14C1200.76 3380.14 1220.43 3384 1243.05 3388.72C1265.67 3393.44 1293.75 3399.16 1305.44 3401.43C1325.97 3405.43 1488.06 3439.48 1492.87 3440.8C1494.47 3441.25 1497.88 3436.96 1503.5 3427.45C1508.05 3419.75 1511.77 3412.64 1511.77 3411.66C1511.77 3409.73 1501.23 3395.82 1471.67 3358.68C1461.24 3345.58 1437.82 3315.88 1419.63 3292.67C1401.44 3269.46 1376.31 3237.65 1363.79 3221.99C1351.27 3206.32 1334.97 3185.65 1327.56 3176.04C1320.16 3166.44 1304.89 3147.01 1293.63 3132.87C1263.18 3094.62 1193.73 3006.82 1153.45 2955.67C1143.06 2942.46 1129.17 2925.02 1122.58 2916.89C1116 2908.77 1105.37 2895.34 1098.96 2887.04C1092.55 2878.74 1079.1 2861.73 1069.08 2849.24C1051.76 2827.65 959.616 2711.94 924.291 2667.41C891.305 2625.83 831.122 2551.48 830.723 2551.81C830.644 2551.88 827.567 2553.82 823.884 2556.13ZM3223 2604.75C3150.04 2695.46 3142.96 2704.29 3113.4 2741.48C3097.56 2761.4 3073.88 2791.17 3060.77 2807.63C3047.66 2824.09 3017.91 2861.65 2994.65 2891.1C2971.4 2920.56 2942.25 2957.41 2929.87 2973C2865.11 3054.63 2778.19 3164.6 2705.91 3256.37C2682.67 3285.87 2655.17 3320.7 2606.67 3382.05C2595.23 3396.53 2585.48 3409.36 2585.02 3410.57C2584.56 3411.77 2588.14 3419.06 2592.98 3426.77C2600.27 3438.37 2602.38 3440.68 2605.27 3440.24C2607.18 3439.95 2646.67 3431.67 2693.02 3421.85C2739.36 3412.03 2790.74 3401.4 2807.2 3398.23C2823.66 3395.07 2850.15 3389.7 2866.06 3386.31C2881.96 3382.92 2896.18 3380.14 2897.65 3380.14C2900.1 3380.14 2900.46 3388.17 2902.23 3482.12C2904.23 3587.93 2905.76 3648.33 2906.46 3649.16C2906.85 3649.63 2957.95 3588.49 2984.15 3556.2C2991.37 3547.29 3004.84 3531.17 3014.07 3520.38C3023.3 3509.59 3037.23 3492.85 3045.03 3483.18C3052.82 3473.52 3067.75 3455.41 3078.2 3442.95C3088.65 3430.5 3112.71 3401.52 3131.67 3378.57C3180.68 3319.24 3215.36 3277.45 3238.02 3250.41C3248.82 3237.53 3264.31 3218.75 3272.45 3208.67C3280.58 3198.6 3294.79 3181.49 3304.02 3170.67C3313.25 3159.84 3325.37 3145.31 3330.94 3138.38C3336.52 3131.45 3348.19 3117.27 3356.87 3106.88C3365.56 3096.48 3373.54 3086.85 3374.6 3085.48C3376.55 3082.95 3308.47 3099.45 3211.98 3124.91C3141.4 3143.52 3053.96 3165.16 3053.03 3164.23C3052.55 3163.75 3056.11 3153.13 3060.93 3140.63C3086.06 3075.55 3093.81 3055.15 3098.61 3041.52C3101.51 3033.29 3111.4 3007.06 3120.61 2983.24C3138.63 2936.59 3146.98 2914.54 3163.01 2871.28C3168.65 2856.05 3180.83 2824.16 3190.06 2800.41C3199.3 2776.66 3209.88 2748.72 3213.57 2738.33C3217.25 2727.93 3229.28 2696.04 3240.3 2667.45C3261.18 2613.29 3280.68 2560.73 3280.06 2560.28C3279.86 2560.14 3276.51 2558.19 3272.62 2555.95L3265.53 2551.88L3223 2604.75Z" fill="#808080"/>
</svg>
