<svg width="4096" height="4096" viewBox="0 0 4096 4096" fill="none" xmlns="http://www.w3.org/2000/svg">
<path fill-rule="evenodd" clip-rule="evenodd" d="M635.553 469.572L632.009 470.253V562.997V655.741L637.915 656.633C676.329 662.432 711.337 678.179 743.046 703.925C776.348 730.963 798.474 758.811 815.621 795.272C828.545 822.751 834.696 846.543 836.181 874.809C837.798 905.598 834.363 919.32 805.498 997.368C798.671 1015.83 792.456 1031.54 791.69 1032.27C790.923 1033.01 781.791 1036.26 771.396 1039.5C749.069 1046.46 692.516 1067.04 654.846 1081.91C640.12 1087.72 624.528 1093.73 620.196 1095.25C615.865 1096.78 603.339 1101.72 592.361 1106.24L572.401 1114.45L565.744 1131.26C562.082 1140.51 551.989 1164.73 543.316 1185.08C525.709 1226.41 499.876 1289.63 500.37 1290.18C500.846 1290.72 522.505 1281.99 566.646 1263.48C588.303 1254.39 618.424 1242.36 633.584 1236.74C685.652 1217.43 725.003 1203.53 725.684 1204.21C726.058 1204.58 718.87 1224 709.71 1247.36C700.548 1270.71 687.539 1305.06 680.798 1323.68C674.058 1342.31 661.124 1377.75 652.057 1402.43C635.66 1447.08 599.337 1556.35 582.42 1611.93C570.567 1650.86 544.184 1755.53 535.381 1798.55C514.467 1900.74 509.047 1962.56 512.175 2063.25C514.371 2133.92 518.066 2180.23 526.621 2244.27C541.363 2354.63 570.817 2480.48 604.216 2575.81C631.119 2652.6 640.235 2675.29 670.763 2741.48C714.677 2836.69 772.734 2934.97 832.384 3015.09C843.728 3030.33 854.83 3045.28 857.056 3048.31C864.776 3058.83 915.021 3118.5 931.988 3137.3C957.771 3165.87 1021.7 3229.01 1050.96 3254.81C1080.87 3281.19 1141.58 3330.09 1161.21 3343.62C1168.57 3348.7 1182.75 3358.66 1192.71 3365.76C1251.42 3407.6 1358.38 3467.52 1433.68 3500.76C1491.15 3526.13 1584.06 3559.07 1636.86 3572.79C1752.77 3602.93 1830.59 3616.28 1940.83 3624.98C1968.56 3627.16 2096.93 3627.77 2134.83 3625.9C2230.21 3621.19 2326.41 3606.08 2433.02 3579.06C2502.14 3561.54 2539.48 3549.37 2614.04 3520.08C2772.16 3457.97 2927.23 3361 3057.51 3242.78C3087.44 3215.62 3135.16 3168.15 3156.41 3144.4C3162.22 3137.91 3173.38 3125.51 3181.21 3116.84C3194.58 3102.03 3226.57 3062.73 3249.81 3032.56C3277.34 2996.83 3315.38 2940.39 3343.75 2893.17C3409.82 2783.22 3467.54 2654.94 3502.2 2540.99C3528.54 2454.41 3543.65 2394.19 3553.53 2336.41C3567.7 2253.49 3575.41 2190.2 3580.5 2115.12C3582.8 2081.18 3583.71 1977.76 3581.92 1955.26C3574.82 1866.38 3555.02 1762.33 3525.38 1658.08C3504.82 1585.75 3485.07 1522.83 3464.63 1464.52C3452.81 1430.81 3441.03 1396.97 3438.45 1389.34C3435.87 1381.7 3426.3 1355.83 3417.18 1331.85C3408.07 1307.87 3396.02 1275.84 3390.4 1260.68C3384.79 1245.53 3377.76 1226.8 3374.79 1219.07C3371.81 1211.34 3369.63 1204.77 3369.93 1204.47C3370.23 1204.16 3392.02 1211.64 3418.35 1221.07C3464.25 1237.53 3508.2 1254.83 3568.08 1280.05C3592.1 1290.16 3595.75 1291.31 3594.65 1288.43C3593.96 1286.6 3587.21 1270.57 3579.65 1252.81C3572.1 1235.05 3561.68 1209.89 3556.5 1196.9C3551.31 1183.9 3541.41 1160.04 3534.48 1143.88L3521.89 1114.48L3508.77 1108.84C3501.54 1105.74 3486.54 1099.73 3475.42 1095.49C3464.29 1091.24 3441.02 1082.31 3423.7 1075.64C3385.25 1060.82 3337.47 1043.76 3317.57 1037.73C3303.71 1033.54 3302.64 1032.91 3300.43 1027.66C3292.72 1009.38 3269.56 943.42 3265.26 927.499C3260.57 910.146 3260.16 906.698 3260.03 883.472C3259.84 848.543 3265.86 821.849 3280.63 792.122C3314.52 723.918 3380.28 670.679 3444.96 659.08C3450.59 658.071 3456.79 656.925 3458.74 656.535L3462.28 655.825V562.959V470.094L3458.09 469.042C3450.92 467.242 3355.65 469.762 3333.13 472.348C3229.85 484.206 3135.2 517.303 3072.99 563.311C3040.4 587.418 3020.83 606.757 2997.63 637.772C2977.65 664.497 2963.11 692.788 2950.68 729.122C2933.54 779.226 2926.15 840.319 2929.87 901.085C2930.91 917.974 2931.46 932.078 2931.11 932.429C2930.76 932.779 2923.09 931.645 2914.06 929.909C2905.03 928.172 2876.38 922.888 2850.4 918.164C2648.78 881.532 2508.17 865.703 2281.82 854.16C2234.05 851.723 1927.95 850.709 1861.3 852.766C1783.75 855.16 1718.06 858.904 1640.01 865.377C1619.65 867.065 1593.43 869.187 1581.73 870.091C1493.26 876.926 1330.05 901.342 1181.14 930.016C1171.74 931.826 1163.75 932.999 1163.37 932.623C1162.99 932.247 1163.51 920.324 1164.51 906.13C1170.01 828.008 1157.3 749.632 1129.93 692.897C1100.71 632.34 1063.17 589.998 1004.83 551.785C982.566 537.2 968.701 529.878 941.496 518.337C876.932 490.946 805.777 474.564 732.021 470.107C706.067 468.54 642.738 468.187 635.553 469.572ZM2000.23 1246.12C1999.8 1423.79 1999.11 1498.39 1997.8 1507.96C1994.57 1531.47 1988.03 1560.09 1980.98 1581.5C1960.09 1644.98 1909.38 1723.07 1844.65 1791.45C1821.96 1815.42 1784.87 1849.55 1781.37 1849.69C1779.5 1849.76 1779.89 1005.9 1781.76 1004.75C1785.42 1002.48 1894.88 998.36 1963.34 997.907L2000.81 997.659L2000.23 1246.12ZM2255.83 1000.95C2279.66 1001.89 2302.69 1003.13 2307.02 1003.72L2314.9 1004.79L2315.29 1427.26C2315.59 1743.55 2315.24 1849.73 2313.89 1849.73C2309.79 1849.73 2270.55 1813.58 2245.86 1787.06C2204.99 1743.17 2162.57 1684.77 2137.68 1638.14C2124.71 1613.84 2110.82 1574.34 2103.21 1540.13C2094.29 1500.07 2094.61 1510.54 2094.03 1243.5L2093.5 997.152L2153.01 998.2C2185.74 998.778 2232.01 1000.02 2255.83 1000.95ZM1687.26 1463.77V1917.28L1671.9 1925.82C1636.85 1945.3 1637.95 1944.76 1594.5 1963.16C1557.33 1978.9 1482.53 2002.51 1469.84 2002.51C1466.79 2002.51 1466.76 1997.91 1466.76 1518.27V1034.03L1471.88 1033.16C1498.13 1028.72 1658.8 1011.37 1682.14 1010.46L1687.26 1010.26V1463.77ZM2454.35 1014.23C2512.44 1019.56 2610.04 1030.56 2623.2 1033.25L2627.53 1034.13V1518.97V2003.81L2604.3 1997.83C2561.44 1986.82 2534.82 1977.68 2487.36 1957.72C2465.4 1948.48 2426.59 1928.94 2415.13 1921.36L2408.61 1917.04V1463.65C2408.61 1214.28 2409.17 1010.26 2409.86 1010.26C2410.55 1010.26 2430.57 1012.05 2454.35 1014.23ZM1373.83 1967.86C1373.83 2473.75 1373.35 2887.66 1372.75 2887.66C1370.47 2887.66 1323.16 2850.79 1299.81 2830.81C1269.03 2804.48 1209.03 2744.53 1182.54 2713.62C1141.07 2665.24 1093.46 2597.58 1062.29 2542.73C1047.51 2516.73 1016.62 2453.25 1004.41 2423.82C984.839 2376.61 962.6 2306.3 950.255 2252.59C932.993 2177.5 925.576 2115.09 923.905 2030.86C921.199 1894.61 938.013 1770.28 988.761 1551.27C992.678 1534.37 1010.57 1467.82 1019.25 1437.87C1053 1321.4 1066.32 1280.23 1110.74 1155.16C1115.82 1140.87 1122.53 1120.71 1125.65 1110.38C1128.78 1100.04 1131.53 1091.38 1131.77 1091.15C1133.05 1089.87 1263.68 1064.55 1296.66 1059.19C1358.01 1049.2 1363.3 1048.4 1368.72 1048.22L1373.83 1048.06V1967.86ZM2768.35 1054.34C2790.55 1057.79 2818.8 1062.42 2831.13 1064.64C2856.09 1069.12 2951.7 1088.3 2959.04 1090.3C2963.56 1091.53 2964.05 1092.61 2971.79 1118.25C2976.22 1132.92 2983.57 1154.84 2988.13 1166.97C3017.16 1244.19 3062.62 1386.45 3083.53 1465.54C3120.37 1604.87 3130.66 1651.06 3148.06 1755.23C3182.72 1962.68 3179.85 2109.85 3137.83 2280.66C3116.37 2367.86 3079.53 2459.3 3031.91 2543.52C2986.28 2624.23 2935.73 2691.41 2866.63 2763.23C2848.71 2781.86 2833.03 2797.81 2831.78 2798.67C2830.54 2799.54 2817.2 2811.11 2802.16 2824.4C2776.99 2846.61 2728.57 2884.88 2722.87 2887.07C2720.71 2887.9 2720.46 2793.57 2720.46 1968.03V1048.06H2724.22C2726.28 1048.06 2746.14 1050.88 2768.35 1054.34ZM374.019 2035.19C358.608 2097.66 343.365 2172.64 339.199 2206.47C338.345 2213.4 335.868 2232.18 333.691 2248.21C322.717 2329.05 318.54 2385.88 317.478 2468.84C316.117 2575.21 320.816 2641.23 336.775 2740.01C348.323 2811.48 362.196 2864.06 391.311 2946.72C421.825 3033.36 472.09 3126.61 529.692 3203.45C643.199 3354.86 798.94 3470.05 1004.5 3554.61C1050.6 3573.58 1150.22 3606.71 1198.56 3619.15C1203.95 3620.54 1209.44 3622.08 1210.76 3622.59C1212.49 3623.25 1214.04 3621.45 1216.32 3616.13C1218.06 3612.07 1219.48 3608.18 1219.48 3607.49C1219.48 3606.8 1208.68 3600.4 1195.47 3593.26C1071.2 3526.17 951.4 3441.21 853.296 3350.62C753.96 3258.89 674.389 3162.91 606.165 3052.54C592.388 3030.25 556.888 2964.7 544.162 2938.06C528.612 2905.5 501.495 2841.64 488.126 2806.1C457.899 2725.75 427.788 2614.85 413.835 2532.5C394.882 2420.63 387.668 2338.11 387.331 2229.31C387.096 2153.99 389.664 2099.89 396.623 2033.45C399.739 2003.7 400.224 2006.2 390.957 2004.22C386.583 2003.28 382.797 2002.51 382.543 2002.51C382.289 2002.51 378.454 2017.22 374.019 2035.19ZM3702.38 2004.42L3695.99 2005.98L3697.16 2015.71C3699.91 2038.6 3704.84 2103.89 3706.55 2140.32C3708.91 2190.45 3707.58 2306.34 3704.14 2350.58C3695.74 2458.51 3682.87 2539.47 3658.37 2638.61C3641.34 2707.53 3626.14 2755.59 3599.35 2825.2C3553.97 2943.15 3499.53 3044.38 3429.39 3141.23C3329.84 3278.71 3195.87 3405 3038.61 3509.66C2989.97 3542.03 2925.38 3580.3 2879.12 3604.17C2874.49 3606.56 2874.48 3607.23 2878.99 3618.02C2880.6 3621.87 2881.98 3623.13 2883.92 3622.55C2885.41 3622.1 2894.77 3619.54 2904.73 3616.86C2944.92 3606.05 3018.55 3582.1 3065.38 3564.61C3107.88 3548.74 3179.9 3515.86 3220.36 3493.85C3271.57 3466 3303.9 3445.94 3346.52 3415.56C3395.68 3380.53 3434.89 3347.12 3478.82 3302.84C3567.42 3213.52 3633.87 3114.3 3684.09 2996.33C3708 2940.17 3720.41 2903.36 3736.26 2841.56C3757.04 2760.57 3769.31 2684.73 3776.05 2595.5C3779.17 2554.16 3778.65 2420.53 3775.2 2375C3767.65 2275.59 3755.15 2191.54 3731.54 2081.26C3717.83 2017.2 3714.23 2003.41 3711.13 2003.1C3709.83 2002.96 3705.89 2003.56 3702.38 2004.42ZM1492.43 2047.5C1550.93 2062.19 1616.92 2088.36 1669.54 2117.73L1687.26 2127.61V2587.17C1687.26 2839.93 1687.06 3046.73 1686.81 3046.73C1686.57 3046.73 1675.05 3042.92 1661.22 3038.27C1608.61 3020.56 1548.49 2994.1 1494.72 2965L1466.77 2949.87L1466.76 2495.88C1466.76 2179.61 1467.26 2041.88 1468.41 2041.88C1469.32 2041.88 1480.13 2044.41 1492.43 2047.5ZM2627.53 2496.01V2950.13L2607.45 2961.34C2554.36 2990.98 2464.76 3029.9 2416.88 3044.11L2408.61 3046.56V2587.04V2127.51L2418.45 2121.65C2466.79 2092.85 2540.02 2063.54 2606.27 2046.49C2615.8 2044.03 2624.48 2042 2625.56 2041.96C2627.14 2041.9 2627.53 2133.72 2627.53 2496.01ZM1794.36 2205.03C1806.15 2214.6 1858 2266.49 1869.75 2280.5C1886.77 2300.79 1910.33 2331.73 1921.91 2349.01C1966.91 2416.13 1987.65 2466.71 1997.78 2534.07C1999.18 2543.41 1999.82 2618.69 2000.24 2825.12L2000.8 3103.56L1993.26 3102.76C1989.12 3102.31 1977.92 3101.55 1968.4 3101.07C1917.44 3098.47 1844.79 3088.21 1793.97 3076.44L1780.18 3073.25V2633.86C1780.18 2282.8 1780.58 2194.7 1782.15 2195.6C1783.24 2196.22 1788.73 2200.47 1794.36 2205.03ZM2315.68 2633.2C2315.68 2949.97 2315.2 3072.04 2313.95 3072.82C2308.56 3076.15 2239.49 3089.2 2202.28 3093.92C2175.09 3097.36 2128.27 3101.45 2107.78 3102.18L2094.4 3102.65L2093.94 2841.2C2093.47 2571.12 2093.75 2555.73 2099.9 2520.13C2106.59 2481.37 2123.27 2432.64 2140.35 2401.91C2153.86 2377.63 2189.07 2325.42 2207.36 2302.55C2226.84 2278.19 2251.12 2251.49 2272.54 2230.83C2290.16 2213.86 2312.34 2194.66 2314.35 2194.66C2315.08 2194.66 2315.68 2392 2315.68 2633.2Z" fill="#808080"/>
</svg>
