<svg width="4096" height="4096" viewBox="0 0 4096 4096" fill="none" xmlns="http://www.w3.org/2000/svg">
<path fill-rule="evenodd" clip-rule="evenodd" d="M2035.39 120.881C2035.36 176.535 2028.04 247.681 2014.82 321.031C1996.55 422.372 1959.07 525.392 1905.56 621.337C1853.04 715.515 1770.29 815.313 1699.02 870.441L1684.41 881.745L1690.69 894.238C1695.48 903.765 1697.6 906.548 1699.63 905.964C1701.09 905.543 1714.76 901.566 1730.01 897.128C1803.24 875.804 1894.82 860.44 1985 854.346C2025.25 851.626 2095.88 851.94 2130.69 854.993C2213.92 862.294 2302.48 878.245 2369.26 897.967C2382.71 901.941 2394.88 905.529 2396.3 905.942C2398.23 906.499 2400.54 903.544 2405.33 894.398C2408.87 887.637 2411.25 881.638 2410.62 881.066C2409.98 880.494 2400.25 872.696 2388.99 863.738C2362.5 842.666 2312.58 792.753 2285.96 760.725C2265.37 735.955 2237.74 698.881 2219.04 670.95C2206.14 651.674 2178.24 602.521 2162.28 570.937C2139.52 525.911 2110.05 447.988 2095.25 393.75C2074.56 317.866 2059.03 204.947 2059.03 130.358V107.887H2047.21H2035.4L2035.39 120.881ZM526.618 634.826C527.955 636.503 535.433 645.317 543.237 654.412C551.041 663.508 566.264 681.581 577.067 694.575C587.869 707.569 613.381 738.045 633.76 762.3C698.705 839.601 734.905 882.803 747.05 897.503C753.547 905.367 767.382 921.751 777.796 933.912C788.208 946.074 801.287 961.695 806.859 968.625C812.431 975.555 823.442 988.667 831.33 997.762C839.216 1006.86 854.519 1024.93 865.332 1037.92C876.148 1050.92 914.702 1096.99 951.008 1140.3C987.315 1183.61 1025.88 1229.68 1036.7 1242.67C1047.52 1255.67 1062.51 1273.39 1070.02 1282.05C1077.52 1290.71 1088.54 1303.9 1094.51 1311.35C1100.48 1318.81 1113.87 1334.79 1124.26 1346.86C1134.66 1358.94 1148.48 1375.25 1154.98 1383.11C1161.47 1390.97 1199.39 1436.27 1239.24 1483.77C1279.09 1531.28 1322.69 1583.29 1336.14 1599.35L1360.6 1628.55L1490.89 1628.95L1621.18 1629.36V1490.02V1350.69L1597.41 1335.27C1584.34 1326.79 1552.14 1305.67 1525.86 1288.35C1499.57 1271.02 1462.24 1246.49 1442.91 1233.83C1423.58 1221.16 1381.54 1193.61 1349.49 1172.6C1317.44 1151.58 1273.19 1122.61 1251.16 1108.21C1229.13 1093.81 1193.92 1070.68 1172.91 1056.82C1151.91 1042.96 1111.86 1016.74 1083.92 998.55C1055.97 980.359 1015.95 954.135 994.964 940.275C973.982 926.415 938.855 903.31 916.901 888.93C894.949 874.55 855.371 848.616 828.95 831.298C802.529 813.979 760.004 786.136 734.45 769.427C687.427 738.678 646.132 711.56 574.588 664.445C552.931 650.184 532.732 636.999 529.7 635.145C524.635 632.051 524.384 632.024 526.618 634.826ZM3536.33 654.17C3518.55 665.997 3480.27 691.208 3451.28 710.193C3422.29 729.178 3379.43 757.24 3356.04 772.553C3332.65 787.867 3292.59 814.151 3267.02 830.961C3241.45 847.77 3201.5 873.928 3178.25 889.087C3155 904.247 3118.83 927.99 3097.88 941.85C3076.92 955.71 3036.92 981.934 3008.98 1000.12C2981.04 1018.32 2939.91 1045.25 2917.58 1059.97C2895.25 1074.7 2857.9 1099.23 2834.58 1114.49C2811.27 1129.74 2768.09 1158.01 2738.64 1177.3C2709.19 1196.6 2669.26 1222.74 2649.91 1235.4C2630.57 1248.06 2598.67 1269.06 2579.03 1282.05C2559.39 1295.04 2527.56 1315.9 2508.29 1328.41L2473.25 1351.14V1490.24V1629.34H2603.78C2730.01 1629.34 2734.39 1629.24 2736.48 1626.36C2737.67 1624.72 2754.97 1603.99 2774.94 1580.29C2794.9 1556.59 2831.68 1512.75 2856.66 1482.86C2881.64 1452.98 2910.79 1418.25 2921.44 1405.69C2945.55 1377.24 2977.77 1338.9 2991.94 1321.8C2997.85 1314.66 3013.17 1296.42 3025.97 1281.26C3038.78 1266.1 3057.26 1244.13 3067.04 1232.44C3076.82 1220.74 3113.6 1176.88 3148.77 1134.97C3183.94 1093.06 3218.03 1052.34 3224.53 1044.49C3231.02 1036.64 3244.84 1020.31 3255.24 1008.2C3265.63 996.098 3279.02 980.113 3284.99 972.684C3290.96 965.255 3301.98 952.087 3309.48 943.425C3316.99 934.762 3331.98 917.044 3342.8 904.05C3353.62 891.056 3392.18 844.987 3428.49 801.675C3464.79 758.362 3505.45 709.813 3518.82 693.787C3539.66 668.817 3552.41 653.879 3566.87 637.488C3568.58 635.542 3569.69 633.66 3569.33 633.306C3568.96 632.953 3554.11 642.342 3536.33 654.17ZM1991.3 1074.3C1895.61 1079.56 1812.53 1088.81 1764.12 1099.59L1753.5 1101.96L1759.82 1113.25C1763.3 1119.47 1771.9 1135.89 1778.94 1149.75C1785.99 1163.61 1797.31 1185.43 1804.11 1198.23L1816.48 1221.51V1519.14V1816.76L1518.41 1816.74L1220.34 1816.72L1191.2 1800.97C1144.98 1775.99 1102.67 1755.03 1101.29 1756.42C1099.41 1758.31 1090.76 1802.68 1086.46 1832.51C1078.21 1889.65 1074.77 1939.66 1073.59 2019.15C1072.35 2102.79 1075.52 2164.1 1084.95 2238.86C1088.61 2267.88 1098.98 2334 1100.83 2340.13C1101.59 2342.64 1103.22 2342.13 1115.34 2335.56C1122.84 2331.5 1150.04 2317.29 1175.78 2303.99L1222.56 2279.81H1519.52H1816.48V2577.75V2875.68L1800.14 2906.53C1778.96 2946.54 1755.05 2992.89 1755.05 2993.95C1755.05 2996.35 1796.91 3005.24 1833.01 3010.49C1929.47 3024.53 2073.37 3027.46 2184.24 3017.64C2232.08 3013.4 2299.92 3003.79 2334.32 2996.37L2342.66 2994.57L2337.83 2986.02C2335.18 2981.31 2326.92 2965.61 2319.47 2951.12C2312.03 2936.63 2299.99 2913.7 2292.73 2900.16L2279.53 2875.55V2577.68V2279.81L2576.81 2279.82L2874.09 2279.83L2904.8 2295.76C2921.69 2304.52 2948.62 2318.64 2964.65 2327.13C2980.68 2335.62 2994.34 2342.04 2995 2341.4C2997.02 2339.45 3006.79 2287.27 3010.95 2256.19C3019.28 2193.92 3022.91 2132.63 3022.92 2053.8C3022.93 1956.47 3016.6 1880.4 3000.66 1786.05C2998.02 1770.46 2995.32 1757.12 2994.64 1756.41C2993.44 1755.15 2959.15 1772.29 2903.23 1802.08L2875.66 1816.76L2577.59 1816.76L2279.53 1816.76L2279.53 1519.48L2279.54 1222.2L2295.49 1191.49C2304.26 1174.6 2318.37 1147.66 2326.85 1131.64C2338.45 1109.69 2341.74 1102.21 2340.17 1101.32C2327.65 1094.23 2234.52 1081.4 2159.83 1076.47C2134.25 1074.79 2011.3 1073.2 1991.3 1074.3ZM874.343 1698.3C851.736 1728.02 805.09 1775.7 767.525 1807.48C735.797 1834.33 677.019 1877.09 655.7 1888.83C650.936 1891.45 641.368 1897.11 634.438 1901.41C595.622 1925.47 529.675 1956.35 472.387 1977.3C398.23 2004.41 305.341 2024.72 216.275 2033.29C194.045 2035.43 133.803 2038.81 117.444 2038.83L110.75 2038.84V2049.71V2060.59L126.894 2061.48C135.774 2061.97 154.023 2062.78 167.45 2063.27C194.576 2064.27 242.062 2068.79 274.55 2073.46C286.244 2075.14 299.356 2076.96 303.688 2077.51C329.722 2080.77 395.593 2096.72 433.625 2108.98C510.272 2133.67 569.111 2159.45 636.013 2197.65C689.734 2228.32 757.486 2278.75 802.166 2321.33C824.515 2342.63 856.539 2376.71 868.968 2392.43C875.817 2401.09 882.308 2409.15 883.39 2410.33C885.036 2412.14 887.313 2411.41 897.316 2405.89C903.893 2402.26 909.275 2398.91 909.275 2398.44C909.275 2397.97 906.839 2389.7 903.859 2380.05C892.016 2341.68 885.924 2315.59 875.487 2258.55C855.038 2146.8 849.943 2045.12 859.782 1945.13C867.037 1871.4 883.93 1783.43 903.139 1719.33C906.609 1707.75 909.231 1698.1 908.966 1697.88C908.703 1697.66 903.154 1694.57 896.637 1691.02L884.787 1684.57L874.343 1698.3ZM3200.11 1690.74C3194.05 1694.18 3188.57 1697.19 3187.94 1697.42C3187.32 1697.66 3188.22 1702.4 3189.95 1707.96C3210.39 1773.54 3227.6 1861.55 3235.41 1940.4C3247.45 2061.92 3241.76 2159.26 3214.98 2290.2C3208.23 2323.2 3193.56 2380.38 3188.43 2393.71C3187.49 2396.15 3186.73 2398.39 3186.73 2398.69C3186.73 2399.2 3210.09 2412.11 3211.02 2412.11C3211.26 2412.11 3219.26 2402.37 3228.81 2390.46C3278.03 2329.06 3361.84 2256.69 3439.51 2208.51C3466.59 2191.71 3525.4 2160.39 3552.39 2148.39C3593.93 2129.93 3652.99 2108.81 3699.95 2095.61C3772.42 2075.26 3888.93 2059.31 3965.14 2059.31H3985.25V2047.75V2036.19L3951.78 2035.14C3870.15 2032.58 3800.21 2022.93 3709.63 2001.71C3654.64 1988.84 3565.84 1955.11 3507.47 1924.93C3425.52 1882.56 3359.57 1836.34 3292.53 1774.27C3265.39 1749.15 3239.83 1721.18 3215.08 1689.51L3211.14 1684.48L3200.11 1690.74ZM1330.01 2486.03C1304.87 2524.93 1260.33 2592.99 1239.23 2624.74C1226.85 2643.36 1199.18 2685.53 1177.72 2718.45C1156.27 2751.37 1128.68 2793.54 1116.41 2812.16C1104.14 2830.79 1082.03 2864.45 1067.28 2886.98C1052.52 2909.5 1025.58 2950.61 1007.41 2978.33C989.239 3006.05 961.393 3048.57 945.53 3072.83C929.667 3097.08 905.629 3133.73 892.112 3154.26C865.786 3194.26 833.609 3243.3 784.855 3317.74C734.261 3394.98 697.233 3451.47 664.051 3502.01C625.046 3561.43 623.414 3564.04 626.32 3562.39C627.604 3561.67 639.877 3551.47 653.596 3539.74C667.314 3528 684.562 3513.48 691.925 3507.46C699.288 3501.44 715.263 3488.01 727.426 3477.61C739.586 3467.21 755.969 3453.38 763.83 3446.89C771.693 3440.39 814.879 3404.24 859.801 3366.56C904.725 3328.88 954.964 3286.77 971.447 3272.99C987.927 3259.21 1006.02 3243.89 1011.65 3238.94C1017.28 3233.99 1027.97 3225.07 1035.4 3219.11C1042.83 3213.15 1058.81 3199.77 1070.92 3189.38C1083.02 3178.98 1099.35 3165.16 1107.2 3158.66C1115.05 3152.17 1136.28 3134.41 1154.37 3119.21C1301.28 2995.76 1354.83 2950.88 1372.05 2936.78C1383.03 2927.79 1397.33 2915.73 1403.83 2909.97C1417.15 2898.17 1428.95 2888.23 1443.85 2876.26C1449.45 2871.76 1466.3 2857.67 1481.3 2844.96C1518.28 2813.6 1576.7 2764.57 1601.08 2744.44L1621.11 2727.9L1621.14 2598.36L1621.18 2468.81H1481.16H1341.14L1330.01 2486.03ZM2473.25 2597.78V2726.74L2554.49 2795.05C2599.18 2832.61 2645 2870.98 2656.32 2880.3C2667.63 2889.62 2684.06 2903.47 2692.8 2911.08C2701.55 2918.68 2714.38 2929.44 2721.31 2934.98C2728.24 2940.52 2738.87 2949.41 2744.94 2954.73C2751 2960.05 2773.68 2979.19 2795.34 2997.27C2816.99 3015.35 2847.47 3040.84 2863.06 3053.91C2878.66 3066.98 2907.01 3090.72 2926.06 3106.67C2945.12 3122.63 2967.85 3141.74 2976.57 3149.14C2985.29 3156.54 3000.16 3168.98 3009.62 3176.78C3019.09 3184.57 3031.09 3194.77 3036.29 3199.43C3041.5 3204.09 3052.14 3213 3059.94 3219.23C3067.73 3225.46 3082.66 3237.94 3093.1 3246.97C3103.55 3256.01 3119.49 3269.5 3128.54 3276.95C3143.57 3289.33 3230.67 3362.31 3308.79 3427.97C3357.4 3468.84 3375.12 3483.7 3392.94 3498.56C3401.98 3506.09 3419.37 3520.76 3431.58 3531.15C3463.67 3558.46 3470.23 3563.84 3470.23 3562.85C3470.23 3561.39 3445.2 3522.91 3367.98 3405.6C3352.75 3382.46 3327.53 3344 3311.94 3320.13C3296.35 3296.27 3273.67 3261.66 3261.54 3243.24C3249.41 3224.81 3224.67 3187.08 3206.55 3159.39C3155.96 3082.07 3116.4 3021.74 3086.78 2976.75C3071.96 2954.23 3046.75 2915.75 3030.75 2891.24C3014.75 2866.73 2988.2 2826.21 2971.74 2801.19C2955.28 2776.17 2932.16 2740.94 2920.37 2722.9C2908.57 2704.86 2882.41 2664.94 2862.23 2634.19C2799.83 2539.1 2767.03 2488.91 2760.58 2478.67L2754.39 2468.84L2613.82 2468.83L2473.25 2468.81V2597.78ZM1690.92 3200.01C1687.68 3206.29 1685.02 3211.92 1685 3212.52C1684.98 3213.12 1690.26 3217.58 1696.74 3222.42C1724.17 3242.94 1772.32 3289.9 1806.61 3329.56C1852.88 3383.07 1902.21 3458.79 1936.92 3529.58C1958.7 3574.01 1986.53 3648.29 2000.75 3699.99C2019.92 3769.68 2036.91 3886.94 2036.98 3950.1C2036.99 3958.76 2037.45 3970.63 2038 3976.48L2039.01 3987.11H2049.8H2060.6L2060.61 3979.63C2060.65 3944.14 2066.12 3871.67 2071.76 3831.98C2085.54 3734.91 2101.26 3676.24 2140.11 3576.83C2163.15 3517.88 2209.19 3436.92 2256.1 3372.86C2293.17 3322.23 2360.29 3251.64 2397.81 3223.82C2404.22 3219.06 2410.08 3214.56 2410.83 3213.82C2412.19 3212.47 2399.97 3188.57 2397.93 3188.61C2397.34 3188.62 2391.19 3190.44 2384.26 3192.66C2357.85 3201.11 2294.2 3216.04 2250.73 3223.98C2172.68 3238.23 2064.55 3246.07 1999.18 3242.22C1903.24 3236.57 1803.06 3219.48 1716.89 3194.04C1706.73 3191.04 1698.06 3188.59 1697.62 3188.59C1697.18 3188.59 1694.16 3193.73 1690.92 3200.01Z" fill="#808080"/>
</svg>
