<svg width="4096" height="4096" viewBox="0 0 4096 4096" fill="none" xmlns="http://www.w3.org/2000/svg">
<path fill-rule="evenodd" clip-rule="evenodd" d="M427.455 386.512C412.575 389.472 401.105 393.683 384.598 402.253C365.819 412.002 353.369 421.714 333.472 442.132C309.114 467.126 294.136 491.516 286.126 519.228C283.206 529.33 282.582 535.299 282.62 552.779C282.673 577.16 285.556 590.054 295.869 612.062C303.933 629.272 321.347 655.154 324.863 655.154C325.258 655.154 328.596 649.662 332.276 642.948C346.53 616.955 372.595 579.938 395.215 553.566C432.887 509.646 492.117 461.104 539.658 435.191L552.872 427.987L549.226 424.098C538.768 412.942 503.347 394.241 482.58 388.913C466.224 384.715 441.833 383.654 427.455 386.512ZM3622.08 386.613C3596.85 391.404 3567.43 405.724 3546.87 423.218L3541.48 427.804L3555.47 435.433C3575.62 446.414 3607.36 468.112 3631.01 487.06C3682.28 528.152 3731.6 586.92 3763.46 644.886L3769.4 655.688L3776.24 648.135C3792.78 629.864 3806.24 601.744 3810.72 576.101C3817.09 539.645 3808 501.527 3785.47 470.265C3775.57 456.523 3755.04 433.972 3743.37 424.018C3725.02 408.37 3697.86 394.101 3675.11 388.164C3661.4 384.588 3636.57 383.86 3622.08 386.613ZM573.143 494.965C510.11 535.614 475.28 565.155 438.13 609.479C420.985 629.936 388.753 676.755 379.577 694.529L374.293 704.766L598.565 929.204C721.916 1052.64 823.798 1154.88 824.971 1156.4C826.874 1158.86 824.749 1162.06 805.253 1186.11C773.692 1225.06 747.979 1259.83 723.272 1296.97C702.62 1328 666.833 1389.31 658.92 1407.2C655.236 1415.53 654.844 1415.88 649.157 1415.82C645.897 1415.78 585.467 1410.58 514.868 1404.25C444.268 1397.93 386.406 1392.82 386.285 1392.9C386.163 1392.97 386.439 1404.51 386.899 1418.53L387.734 1444.02L483.194 1538.15C571.24 1624.96 617.232 1670.38 777.105 1828.42C894.545 1944.52 899.034 1948.84 899.75 1946.54C900.136 1945.3 902.363 1933.31 904.701 1919.88C916.867 1849.96 950.969 1741.06 983.12 1669.45C999.382 1633.23 1019.58 1592.05 1030.06 1573.72C1045.97 1545.92 1072.58 1502.5 1073.72 1502.5C1074.3 1502.5 1205.72 1633.44 1365.76 1793.48L1656.74 2084.46L1729.19 2012.02L1801.65 1939.57L1505.17 1643.09L1208.68 1346.6L1225.98 1329.25L1243.28 1311.9L1539.78 1608.41L1836.29 1904.91L1909.08 1832.13L1981.86 1759.34L1690.94 1468.64C1530.93 1308.76 1400.02 1177.37 1400.02 1176.68C1400.02 1175.36 1426.98 1158.73 1463.02 1137.82C1489.6 1122.4 1554.1 1090.73 1591.03 1074.98C1667.1 1042.53 1773.41 1011.4 1837.5 1002.82L1852.07 1000.86L1596.46 745.321L1340.85 489.779H1315.21H1289.57L1290.48 496.473C1290.97 500.155 1293.85 531.162 1296.86 565.379C1299.87 599.596 1304.82 655.834 1307.86 690.353C1310.91 724.871 1313.39 754.102 1313.39 755.308C1313.39 756.522 1305.77 761.326 1296.33 766.061C1235.44 796.595 1160.38 846.289 1091.17 901.885C1072.47 916.911 1056.52 929.204 1055.73 929.204C1054.94 929.204 952.598 827.498 828.293 703.191C703.987 578.884 601.929 477.182 601.494 477.185C601.061 477.188 588.302 485.189 573.143 494.965ZM3266.39 703.191C3142.09 827.498 3039.82 929.204 3039.13 929.204C3038.45 929.204 3026.75 920.206 3013.14 909.207C2941.41 851.227 2864.29 799.572 2802.95 768.42C2786.82 760.228 2781.29 756.672 2781.29 754.489C2781.29 751.059 2790.05 649.227 2797.87 561.619C2800.88 527.933 2803.34 497.989 2803.34 495.076V489.779H2779.13H2754.93L2499.33 745.312L2243.73 1000.84L2257.75 1002.83C2336.08 1013.91 2451.27 1049.77 2537.17 1089.82C2591.94 1115.35 2650.38 1147.09 2692.84 1174.37C2696.47 1176.7 2683.53 1189.72 1754.15 2119.17C1235.85 2637.52 811.261 3062.89 810.62 3064.44C809.267 3067.73 768.578 3212.75 759.894 3245.24C756.652 3257.37 745.254 3298.12 734.563 3335.8C723.873 3373.49 712.548 3414.24 709.394 3426.37C706.243 3438.49 699.811 3462.07 695.103 3478.77C690.395 3495.46 686.543 3509.76 686.543 3510.55C686.543 3512.22 691.424 3510.92 803.093 3479.52C849.437 3466.49 904.365 3451.15 925.155 3445.43C945.945 3439.72 991.66 3427 1026.74 3417.16C1061.83 3407.33 1100.45 3396.67 1112.58 3393.49L1134.63 3387.69L2077.27 2445.09C2595.72 1926.67 3020.37 1502.5 3020.93 1502.5C3024.15 1502.5 3068.15 1578.57 3088.81 1619.84C3108.59 1659.36 3137.16 1728.86 3152.21 1774.07C3167.37 1819.61 3185.43 1890.88 3191.87 1930.58C3193.44 1940.29 3195.22 1948.05 3195.81 1947.83C3196.4 1947.62 3242.12 1902.81 3297.4 1848.25C3352.68 1793.7 3450.34 1697.31 3514.44 1634.05C3578.53 1570.8 3648.16 1502.08 3669.18 1481.35L3707.39 1443.66V1418.3V1392.94L3676.29 1395.71C3659.18 1397.23 3604.78 1402.06 3555.41 1406.46C3506.03 1410.85 3459.89 1414.86 3452.88 1415.37L3440.14 1416.31L3426.74 1390.5C3405.96 1350.49 3398.3 1337.62 3371.1 1296.97C3344.1 1256.6 3318.63 1222.01 3287.23 1183.02L3267.77 1158.86L3283.42 1142.86C3292.02 1134.06 3393.77 1032.13 3509.53 916.352C3625.28 800.569 3719.99 705.195 3719.99 704.41C3719.99 702.209 3695.3 660.351 3687.22 648.854C3674.18 630.31 3648.63 599.528 3631.81 582.094C3608.1 557.529 3579.58 533.921 3546.44 511.421C3522.09 494.886 3494.36 477.179 3492.82 477.179C3492.59 477.179 3390.7 578.884 3266.39 703.191ZM1981.98 592.311C1908.13 595.398 1828 604.998 1752.28 619.831C1725.35 625.104 1632.98 646.266 1626.63 648.614C1624.27 649.49 1655.94 681.912 1794.19 820.115L1964.66 990.537L1987.49 989.019C2013.5 987.29 2084.08 987.357 2108.77 989.136L2125.31 990.328L2295.76 820.025C2426.53 689.372 2465.66 649.414 2463.85 648.397C2459.85 646.159 2377.82 627.183 2340.29 619.814C2220.65 596.318 2102.69 587.265 1981.98 592.311ZM2859.13 1318.5C2860.79 1320.52 2867.44 1327.63 2873.9 1334.3L2885.64 1346.43L2540.81 1691.06L2195.98 2035.69L2173.24 2042.13C2160.74 2045.67 2150.31 2048.07 2150.07 2047.48C2149.82 2046.88 2152.16 2036.53 2155.26 2024.48L2160.88 2002.57L2506.03 1657.35C2776.2 1387.12 2851.71 1312.42 2853.64 1313.49C2855 1314.23 2857.47 1316.49 2859.13 1318.5ZM2001.67 1500.29C1998.64 1500.62 1988.36 1501.68 1978.83 1502.64C1954.62 1505.08 1921.53 1511.02 1894.12 1517.85L1870.84 1523.65L1957.12 1609.94L2043.39 1696.23L2129.63 1610C2177.06 1562.58 2215.87 1523.39 2215.87 1522.91C2215.87 1521.92 2187.65 1514.98 2164.95 1510.38C2127.16 1502.73 2103.66 1500.55 2054.43 1500.11C2028.44 1499.87 2004.7 1499.95 2001.67 1500.29ZM3377.86 1900.58L3208.19 2070.29L3209.51 2093.13C3214.56 2180.49 3207.46 2280.83 3189.85 2371.12C3183.83 2401.99 3167.64 2467.06 3158.5 2497.12C3140.66 2555.78 3101.42 2649.13 3073.69 2698.89L3066.57 2711.66L3209.59 2854.62C3288.26 2933.25 3353.21 2997.67 3353.93 2997.77C3356.06 2998.09 3395.46 2934.04 3412.5 2902.56C3463.46 2808.42 3500.25 2723.96 3528.38 2636.48C3562.21 2531.33 3578.58 2459.69 3592.27 2356.94C3608.92 2231.92 3610.5 2108.84 3597.02 1986.03C3591.61 1936.75 3581.23 1869.11 3573.34 1831.68C3566.95 1801.35 3549.1 1730.88 3547.81 1730.88C3547.65 1730.88 3471.18 1807.25 3377.86 1900.58ZM541.895 1739.19C528.428 1792.67 513.749 1861.66 506.298 1906.49C476.368 2086.57 480.729 2283.45 518.635 2463.34C538.2 2556.2 555.18 2614.59 588.913 2705.02C607.766 2755.55 646.635 2841.33 669.129 2882.04C697.689 2933.73 737.533 3000.33 739.899 3000.33C740.442 3000.33 805.304 2935.91 884.035 2857.17L1027.18 2714.02L1009.81 2679.59C979.941 2620.42 965.886 2587.57 947.054 2532.92C915.458 2441.22 899.174 2368.97 889.809 2278.95C884.128 2224.34 883.134 2201.19 883.678 2135.99L884.205 2072.54L714.121 1902.5C620.574 1808.97 543.936 1732.45 543.813 1732.45C543.692 1732.45 542.829 1735.49 541.895 1739.19ZM2586.34 2065.22L2499.37 2152.2L2586.6 2239.42L2673.83 2326.64L2679.62 2302.55C2685.94 2276.21 2691.74 2243.77 2694.96 2216.77C2697.71 2193.67 2697.73 2107.49 2694.99 2085.25C2690.81 2051.31 2678.29 1987.56 2674.35 1980.16C2673.7 1978.95 2640.93 2010.63 2586.34 2065.22ZM1412.15 2003.78C1399.56 2056.05 1395.18 2094.4 1395.22 2152.19C1395.25 2208.72 1399.58 2245.25 1412.9 2301.63L1417.7 2321.92L1503.27 2236.37L1588.83 2150.82L1584.56 2145.99C1579.88 2140.7 1463.27 2024.13 1435.36 1996.83L1417.94 1979.8L1412.15 2003.78ZM2273.35 2376.63L2111.13 2538.86L2535.45 2963.17L2959.76 3387.48L2987.47 3394.81C3002.71 3398.85 3053.81 3413.05 3101.02 3426.39C3148.23 3439.72 3192.88 3452.14 3200.24 3454C3207.61 3455.85 3247.65 3466.97 3289.23 3478.71C3412.54 3513.51 3407.29 3512.16 3407.81 3509.24C3408.05 3507.84 3398.01 3470.54 3385.48 3426.37C3372.96 3382.19 3359.78 3335.06 3356.19 3321.63C3352.61 3308.2 3338.41 3257.17 3324.63 3208.23C3310.86 3159.29 3297.1 3109.67 3294.06 3097.98C3291.02 3086.28 3287.56 3073.49 3286.37 3069.55C3284.41 3063.04 3245.69 3023.84 2860.37 2638.39C2627.25 2405.2 2436.31 2214.4 2436.05 2214.4C2435.79 2214.4 2362.58 2287.4 2273.35 2376.63ZM1959.29 2692.27C1912.23 2739.34 1874.34 2778.22 1875.09 2778.68C1877.47 2780.14 1915.14 2788.98 1933.16 2792.3C2020.36 2808.36 2109.3 2805.67 2196.97 2784.31C2207.8 2781.67 2216.86 2779.32 2217.11 2779.08C2217.58 2778.65 2095.79 2656.43 2062.93 2624.36L2044.84 2606.7L1959.29 2692.27ZM2596.18 3177.03C2563.7 3195.16 2509.94 3219.78 2460.15 3239.31C2403.11 3261.69 2324.97 3283.62 2256.78 3296.39C2187.48 3309.36 2122.36 3315.27 2048.13 3315.3C1933.8 3315.35 1836.97 3301.7 1723.29 3269.51C1649.37 3248.58 1560.3 3212.12 1495.18 3176.14L1482.45 3169.1L1338.72 3312.84L1194.98 3456.58L1212.06 3467.61C1271.82 3506.22 1345.58 3545.91 1412.59 3575.51C1469.79 3600.79 1514.68 3618.09 1562.42 3633.28C1656.39 3663.17 1703.79 3674.99 1780.78 3687.7C1921.79 3710.98 2042.4 3716.26 2177.28 3705.07C2232.68 3700.48 2324.97 3687.12 2372.97 3676.74C2444.01 3661.38 2548.8 3629.82 2609.63 3605.46C2680 3577.27 2721.57 3558 2784.02 3524.59C2826.15 3502.05 2827.1 3501.5 2868.37 3475.62C2900.53 3455.45 2901.06 3455.03 2898.29 3451.95C2894.79 3448.05 2665.7 3218.95 2635.55 3189.2L2613.45 3167.39L2596.18 3177.03Z" fill="#808080"/>
</svg>
