<svg width="4096" height="4096" viewBox="0 0 4096 4096" fill="none" xmlns="http://www.w3.org/2000/svg">
<path fill-rule="evenodd" clip-rule="evenodd" d="M4012.23 253.952C4000.91 273.38 3942.6 370.957 3924.24 401.214C3917.66 412.043 3905.75 432.026 3897.75 445.623C3889.76 459.22 3874.08 485.444 3862.91 503.898C3851.75 522.352 3826.77 564.03 3807.41 596.514C3788.06 628.999 3763.24 670.461 3752.25 688.652C3741.27 706.843 3702.65 771.339 3666.42 831.977C3630.2 892.614 3593.46 953.921 3584.79 968.214C3576.11 982.508 3564.45 1002 3558.88 1011.53C3547.39 1031.15 3501.28 1108.23 3467.95 1163.51C3455.68 1183.87 3418.1 1246.6 3384.44 1302.9C3350.78 1359.21 3285.04 1469.06 3238.36 1547.03C3191.67 1624.99 3139.26 1712.52 3121.89 1741.54C3091.49 1792.3 3084.45 1803.14 3086.58 1795.88C3091.36 1779.61 3105.17 1727.88 3112.02 1700.59C3116.69 1681.97 3126.89 1643.08 3134.68 1614.18L3148.85 1561.63L3142.52 1549.04C3093.15 1450.85 3003.77 1321.98 2898.65 1197.41C2882.58 1178.37 2865.09 1158.17 2859.79 1152.52C2854.48 1146.87 2843.5 1134.71 2835.37 1125.48C2792.95 1077.31 2673.88 957.21 2634 922.388C2626.66 915.975 2613.9 904.31 2605.65 896.468C2597.41 888.628 2583.22 875.889 2574.12 868.163C2565.02 860.436 2551.2 848.401 2543.41 841.419C2531.41 830.673 2514.84 816.777 2455.71 767.878C2448.09 761.574 2439.7 759.245 2413.92 756.284C2408.91 755.708 2392.58 753.312 2377.64 750.959L2350.47 746.68V1191.51C2350.47 1583.88 2350.19 1636.25 2348.14 1635.46C2346.85 1634.96 2325.26 1616.64 2300.15 1594.73L2254.5 1554.9L2254.45 1123.98L2254.39 693.051L2290.81 677.614C2332.73 659.847 2330.94 663.309 2305.96 648.181C2298.38 643.586 2280.3 632.435 2265.8 623.403C2251.3 614.37 2221.36 595.872 2199.27 582.295C2177.18 568.719 2149.54 551.564 2137.84 544.172C2104.71 523.233 2049.4 489.414 2048.29 489.418C2047.05 489.422 1980.72 530.002 1952.78 547.85C1941.52 555.043 1919.9 568.473 1904.74 577.696C1889.59 586.92 1861.94 603.98 1843.32 615.607C1824.7 627.235 1802.02 641.196 1792.92 646.631C1764.87 663.395 1763.36 659.666 1805.4 677.473L1841.74 692.87V1123.93V1554.99L1795.31 1595.5C1769.76 1617.78 1748.15 1636.01 1747.27 1636.01C1746.19 1636.01 1745.67 1491.05 1745.67 1191.35V746.694L1716.14 751.151C1699.9 753.602 1677.98 756.957 1667.44 758.607L1648.27 761.608L1607.66 795.218C1585.32 813.702 1560.28 834.864 1552.02 842.244C1543.75 849.623 1529.54 862.019 1520.44 869.791C1511.35 877.562 1497.88 889.641 1490.52 896.629C1483.16 903.619 1470.04 915.62 1461.38 923.302C1430.38 950.787 1341.68 1038.71 1297.57 1085.7C1190.68 1199.51 1098.41 1315.23 1026.42 1425.75C995.373 1473.42 970.28 1516.06 952.234 1551.82L947.431 1561.33L959.173 1604.58C965.631 1628.36 976.152 1668.38 982.554 1693.5C988.955 1718.62 997.77 1752.24 1002.14 1768.21C1006.51 1784.18 1009.81 1797.53 1009.46 1797.88C1008.67 1798.67 1010.42 1801.51 972.675 1738.39C955.322 1709.37 903.772 1623.26 858.123 1547.03C812.471 1470.8 759.46 1382.2 740.319 1350.15C721.18 1318.1 696.918 1277.7 686.407 1260.38C675.895 1243.05 662.859 1221.17 657.438 1211.76C652.016 1202.34 640.138 1182.53 631.042 1167.73C621.947 1152.93 609.355 1131.93 603.061 1121.06C596.766 1110.19 584.9 1090.32 576.689 1076.89C568.479 1063.46 553.614 1038.66 543.655 1021.76C533.698 1004.87 518.461 979.358 509.797 965.064C487.747 928.688 444.625 856.734 430.545 832.82C416.96 809.747 376.179 741.63 347.062 693.377C336.084 675.186 310.202 631.952 289.544 597.302C268.887 562.652 246.199 524.734 239.127 513.039C232.055 501.345 219.509 480.437 211.243 466.577C202.979 452.717 171.824 400.624 142.011 350.814C112.198 301.005 85.0606 255.503 81.7074 249.701C78.3527 243.899 75.1255 239.449 74.5333 239.815C73.9411 240.182 72.9913 254.143 72.4228 270.841C71.8558 287.54 71.0399 309.353 70.6131 319.314C68.3593 371.828 66.5543 484.653 66.5024 576.395C66.4504 667.181 67.8569 775.456 69.1767 782.364C69.4256 783.664 69.6823 794.763 69.7484 807.031L69.8697 829.334L98.2323 867.668C163.949 956.489 187.031 987.647 211.62 1020.74C225.913 1039.97 251.718 1074.82 268.964 1098.19C286.21 1121.56 311.911 1156.27 326.077 1175.33C368.213 1232.02 407.406 1284.99 439.207 1328.23C455.666 1350.62 482.083 1386.32 497.912 1407.58C513.741 1428.83 531.282 1452.41 536.893 1459.97C542.504 1467.54 547.095 1474.68 547.095 1475.85C547.095 1477.03 544.187 1480.32 540.634 1483.18L534.173 1488.37L529.833 1483.84C527.445 1481.34 490.17 1439.97 446.997 1391.89C403.825 1343.81 359.251 1294.28 347.942 1281.83C336.634 1269.37 319.94 1250.81 310.845 1240.59C301.749 1230.36 280.132 1206.27 262.807 1187.05C245.482 1167.83 223.954 1143.87 214.963 1133.79C205.975 1123.72 189.263 1105.2 177.827 1092.64C166.389 1080.08 151.085 1063.07 143.816 1054.84C136.549 1046.61 126.951 1035.98 122.489 1031.21C118.025 1026.45 108.791 1016.21 101.965 1008.45C95.1406 1000.69 86.9238 991.479 83.7045 987.974L77.8534 981.602L78.6487 991.839C83.4367 1053.5 91.6866 1131.48 99.1474 1185.56C108.245 1251.54 128.101 1362.45 139.149 1409.01C145.1 1434.08 145.619 1435.44 151.354 1440.71C154.647 1443.75 173.954 1461.47 194.257 1480.09C214.559 1498.71 249.661 1530.96 272.262 1551.75C294.863 1572.54 339.17 1613.3 370.723 1642.31C402.275 1671.33 437.158 1703.58 448.241 1713.98C459.325 1724.37 473.52 1737.4 479.787 1742.92C486.054 1748.44 501.861 1762.97 514.911 1775.21C527.963 1787.44 547.254 1805.17 557.781 1814.61L576.922 1831.77L572 1837.99C569.293 1841.41 566.154 1844.56 565.026 1844.99C563.111 1845.72 543.812 1833.03 491.644 1796.73C471.107 1782.44 453.919 1770.57 347.857 1697.44C322.736 1680.12 289.21 1656.91 273.358 1645.86C228.458 1614.58 183.27 1583.98 183.27 1584.87C183.27 1591.1 210.783 1665.4 232.833 1718.7C258.652 1781.11 296.194 1858.94 331.23 1922.66C340.516 1939.56 351.807 1960.11 356.323 1968.34C360.838 1976.57 370.35 1991.45 377.458 2001.4L390.382 2019.5L411.645 2031.86C423.339 2038.66 446.019 2052.23 462.045 2062.02C478.07 2071.8 497.207 2083.23 504.57 2087.41C511.933 2091.59 534.258 2104.87 554.182 2116.93C574.106 2128.99 594.305 2141 599.07 2143.63C603.834 2146.26 617.655 2154.42 629.782 2161.75C654.349 2176.62 682.323 2193.24 713.651 2211.58C725.128 2218.3 734.52 2224.11 734.52 2224.48C734.52 2226.35 726.432 2240.81 725.388 2240.81C723.755 2240.81 676.357 2224.75 636.87 2210.82C619.112 2204.55 584.028 2192.51 558.907 2184.06C533.786 2175.62 499.914 2164.04 483.635 2158.34C467.356 2152.64 454.541 2148.84 455.157 2149.9C466.305 2169.07 521.701 2242.63 560.378 2289.64C636.851 2382.58 721.783 2471.7 816.436 2558.32C856.776 2595.24 910.298 2641.63 939.72 2665.19L955.133 2677.53L954.613 2855.68L954.094 3033.83L949.874 3052.73C943.355 3081.92 929.776 3119.86 918.872 3139.35C916.448 3143.68 904.221 3165.3 891.7 3187.39C850.652 3259.81 848.847 3263.35 851.846 3265.54C853.291 3266.59 861.87 3271.94 870.912 3277.43C879.954 3282.91 897.085 3293.37 908.979 3300.66C920.875 3307.96 952.933 3327.52 980.22 3344.13C1007.51 3360.74 1039.05 3380.01 1050.31 3386.94C1061.57 3393.86 1092.4 3412.71 1118.82 3428.82C1145.24 3444.93 1186.7 3470.26 1210.96 3485.13C1235.21 3499.99 1269.59 3521.05 1287.34 3531.93C1305.1 3542.81 1333.81 3560.31 1351.13 3570.81C1382.13 3589.61 1425.15 3615.92 1473.19 3645.46C1486.62 3653.71 1518.16 3672.97 1543.28 3688.26C1568.4 3703.54 1597.82 3721.54 1608.64 3728.26C1633.34 3743.57 1690.61 3778.55 1733.86 3804.75C1752.05 3815.77 1774.73 3829.72 1784.26 3835.75C1806.28 3849.7 1824.51 3860.35 1825.19 3859.66C1825.48 3859.37 1830.05 3716.67 1835.36 3542.55C1840.66 3368.44 1847.11 3157.58 1849.68 3073.99C1852.25 2990.4 1855.06 2889.75 1855.92 2850.34C1856.79 2810.92 1858.92 2731.19 1860.66 2673.15C1862.4 2615.11 1865.56 2508.45 1867.68 2436.11C1869.81 2363.78 1871.99 2295.21 1872.52 2283.73L1873.5 2262.86H1655.35H1437.19L1421.73 2251.34C1373.19 2215.2 1326.46 2166.78 1293.78 2118.75C1271.45 2085.95 1248.07 2042.15 1234.88 2008.42C1224.45 1981.72 1208.59 1922.03 1208.59 1909.42V1905.34H1512.7C1679.96 1905.34 1816.54 1904.81 1816.21 1904.16C1815.89 1903.51 1814.01 1899.44 1812.04 1895.12C1797.42 1863.04 1803.33 1822.55 1826.3 1797.42C1833.34 1789.72 1856.09 1769.89 1857.89 1769.89C1858.47 1769.89 1873.01 1793.67 1902.68 1843.13C1908.4 1852.66 1929.35 1887.38 1949.25 1920.3C1969.14 1953.22 1999.33 2003.36 2016.35 2031.72C2033.36 2060.08 2047.71 2083.3 2048.24 2083.3C2048.77 2083.31 2062.69 2060.81 2079.18 2033.31C2147.95 1918.58 2170.29 1881.47 2181.82 1862.81C2188.52 1851.99 2203.33 1827.53 2214.73 1808.48C2226.14 1789.42 2236.12 1772.83 2236.91 1771.62C2238.89 1768.56 2262.76 1787.57 2272.51 1799.98C2293.9 1827.2 2298.41 1864.01 2284.23 1895.5L2279.79 1905.34H2583.41C2750.39 1905.34 2887.38 1905.7 2887.83 1906.15C2890.29 1908.61 2878.63 1958.42 2868.42 1989.06C2851.55 2039.7 2818.93 2099.74 2783.99 2144.47C2751.49 2186.09 2715.71 2221.08 2674.04 2251.99L2659.38 2262.86H2441.22H2223.07L2223.83 2279.01C2224.25 2287.89 2226.33 2354.69 2228.44 2427.45C2230.55 2500.22 2232.67 2572.15 2233.14 2587.31C2236.2 2686.2 2237.33 2725.13 2239.39 2801.51C2240.65 2848.72 2242.08 2905.07 2242.56 2926.73C2243.03 2948.38 2243.76 2974.61 2244.17 2985C2244.58 2995.4 2250.7 3196.33 2257.76 3431.51C2264.82 3666.7 2270.85 3859.42 2271.16 3859.79C2271.47 3860.15 2282.18 3854.04 2294.95 3846.22C2307.73 3838.4 2332.36 3823.32 2349.68 3812.71C2367.01 3802.1 2400.56 3781.63 2424.23 3767.21C2447.91 3752.8 2478.95 3733.75 2493.2 3724.89C2507.45 3716.03 2532.38 3700.84 2548.59 3691.14C2564.8 3681.44 2587.48 3667.58 2598.99 3660.35C2610.5 3653.11 2638.14 3636.11 2660.42 3622.58C2744.8 3571.3 2772.74 3554.27 2804.07 3535.05C2821.83 3524.15 2856.2 3503.09 2880.46 3488.25C2904.71 3473.42 2936.25 3454.09 2950.54 3445.31C2964.84 3436.54 2994.66 3418.32 3016.82 3404.84C3056.56 3380.66 3094.98 3357.16 3154.19 3320.81C3170.82 3310.59 3196.84 3294.8 3211.99 3285.71C3227.15 3276.62 3241.26 3267.89 3243.33 3266.3L3247.11 3263.41L3236.38 3243.91C3230.47 3233.18 3216.79 3208.81 3205.96 3189.75C3169.32 3125.23 3159.3 3103.25 3150.37 3067.92C3141.21 3031.67 3141.12 3029.6 3141.12 2845.79V2677.6L3154.89 2666.71C3176.18 2649.87 3241.25 2593.8 3271.81 2565.94C3357.33 2487.98 3439.16 2404.03 3505.82 2325.86C3525.82 2302.42 3567.5 2251.22 3575.72 2240.03C3579.53 2234.83 3589.52 2221.72 3597.92 2210.89C3611.39 2193.52 3641.97 2150.29 3641.97 2148.62C3641.97 2148.27 3631.87 2151.58 3619.53 2155.96C3607.18 2160.34 3572.28 2172.3 3541.96 2182.54C3511.64 2192.78 3474.43 2205.55 3459.27 2210.9C3418.02 2225.48 3372.81 2240.81 3371.08 2240.81C3370.24 2240.81 3367.7 2237.17 3365.45 2232.72C3362.16 2226.23 3361.76 2224.36 3363.45 2223.26C3364.61 2222.51 3374.77 2216.48 3386.03 2209.87C3405.16 2198.64 3434 2181.45 3535.66 2120.68C3558.18 2107.22 3586.88 2090.19 3599.44 2082.83C3612.01 2075.48 3637.17 2060.49 3655.36 2049.52C3673.55 2038.56 3692.38 2027.41 3697.2 2024.74C3704.81 2020.55 3707.81 2017.28 3719.78 2000.18C3743.17 1966.76 3810.03 1840.33 3842.72 1767.69C3869.87 1707.35 3915.66 1587.55 3912.59 1584.87C3912.06 1584.42 3871.47 1612.15 3833.33 1639.02C3821.2 1647.57 3803.49 1659.82 3793.96 1666.26C3771.22 1681.61 3713.09 1721.68 3668.74 1752.58C3649.25 1766.15 3627.28 1781.3 3619.92 1786.23C3612.56 1791.17 3590.28 1806.52 3570.43 1820.35C3550.57 1834.18 3533.44 1845.49 3532.36 1845.49C3530.31 1845.49 3520.66 1834.2 3520.74 1831.88C3520.76 1831.13 3528.32 1823.79 3537.55 1815.56C3546.77 1807.34 3562.2 1793.16 3571.84 1784.06C3581.48 1774.97 3595.71 1761.87 3603.46 1754.96C3611.21 1748.06 3623.94 1736.35 3631.73 1728.96C3639.53 1721.57 3654.08 1708.09 3664.07 1699C3674.05 1689.91 3703.82 1662.58 3730.22 1638.26C3792.09 1581.26 3853.93 1524.38 3899.45 1482.6C3919.36 1464.33 3939.03 1446.27 3943.16 1442.47C3948.21 1437.82 3951.22 1433.5 3952.36 1429.25C3966.01 1378.56 3989.68 1246.05 4001.09 1156.44C4008.49 1098.32 4019.53 984.579 4017.94 982.979C4017.61 982.649 4011.02 989.627 4003.3 998.484C3995.57 1007.34 3981.46 1023.13 3971.93 1033.57C3962.4 1044.01 3949.3 1058.55 3942.82 1065.9C3936.33 1073.24 3923.22 1087.79 3913.68 1098.23C3904.14 1108.67 3888.18 1126.3 3878.22 1137.41C3792.88 1232.57 3775.91 1251.46 3750.72 1279.28C3739.74 1291.4 3693.02 1343.32 3646.88 1394.64C3576.69 1472.73 3562.57 1487.7 3560.35 1486.41C3553.61 1482.46 3548.64 1477.12 3549.53 1474.78C3550.55 1472.13 3559.53 1459.82 3597.93 1408.43C3611.52 1390.24 3639.83 1351.96 3660.85 1323.38C3696.89 1274.37 3711.73 1254.33 3769.92 1176.08C3783.14 1158.31 3807.74 1124.99 3824.59 1102.06C3841.44 1079.12 3868.41 1042.63 3884.53 1020.98C3900.64 999.321 3926.95 963.883 3943 942.227C3959.04 920.571 3984.29 886.496 3999.11 866.506L4026.06 830.159L4027.47 783.818C4032.11 632.113 4030.23 390.358 4023.38 257.102L4022.33 236.627L4012.23 253.952Z" fill="#808080"/>
</svg>
