<svg width="4096" height="4096" viewBox="0 0 4096 4096" fill="none" xmlns="http://www.w3.org/2000/svg">
<path fill-rule="evenodd" clip-rule="evenodd" d="M2025.49 208.147C1914.59 266.512 1826.53 347.497 1769.23 443.836C1744.38 485.602 1732.06 512.591 1723.16 544.758C1722.4 547.5 1733.06 558.369 1786.45 609.333C1821.76 643.034 1859.87 679.51 1871.14 690.388C1882.4 701.267 1900.12 718.234 1910.52 728.096C1920.91 737.957 1952.45 768.066 1980.61 795.006C2008.76 821.945 2035.5 847.403 2040.02 851.58L2048.25 859.173L2053.41 854.841C2058.17 850.846 2170.11 744.075 2217.64 698.191C2228.91 687.32 2268.77 649.144 2306.24 613.354C2343.7 577.563 2374.36 547.673 2374.36 546.93C2374.36 541.907 2361.5 508.077 2352.56 489.6C2295.42 371.394 2198.13 274.322 2069.59 207.262C2059.2 201.839 2049.63 197.395 2048.33 197.387C2047.03 197.379 2036.76 202.22 2025.49 208.147ZM1863.36 819.776C1862.53 827.248 1860.18 858.036 1846.01 1047.82C1843.84 1076.84 1841.67 1108.03 1841.19 1117.12C1838.3 1171.36 1826.48 1323.88 1825.06 1325.13C1824.42 1325.7 1815.39 1327.01 1804.99 1328.04C1727.91 1335.7 1644.11 1351.98 1564.02 1374.86C1517.65 1388.1 1509.24 1390.91 1474.89 1404.61C1337.69 1459.36 1239.86 1533.36 1174.84 1631.59C1142.74 1680.08 1115.58 1746.33 1103.37 1805.93C1095.34 1845.15 1093.21 1871.88 1093.21 1933.76C1093.21 2010.32 1097.14 2048.84 1111.97 2117.8C1115.01 2131.97 1117.51 2144.32 1117.51 2145.25C1117.51 2146.68 1081.1 2174.02 1070.88 2180.27C1067.84 2182.13 1064.99 2180.39 1037.01 2159.73C1020.21 2147.31 996.192 2129.73 983.631 2120.66C882.223 2047.39 821.476 1989.37 759.947 1906.98C730.664 1867.78 704.321 1830.46 704.359 1828.24C704.392 1826.45 723.251 1762.56 733.682 1728.9L740.549 1706.75L730.971 1699.64C700.963 1677.38 667.798 1664.79 627.681 1660.44C592.655 1656.65 546.085 1665.6 516.581 1681.81C492.2 1695.2 473.719 1707.97 455.335 1724.14C421.163 1754.2 398.27 1793.56 388.844 1838.47C385.375 1854.99 384.978 1893.63 388.099 1910.92C390.461 1924.01 397.317 1948.92 399.01 1950.56C399.606 1951.14 428.373 1952.51 462.936 1953.6L525.779 1955.59L543.37 1979.32C592.373 2045.45 622.211 2092.99 647.638 2145.46C671.482 2194.67 687.742 2235.25 699.136 2273.99C702.188 2284.37 712.234 2316.25 721.457 2344.83C730.682 2373.42 739.451 2400.72 740.949 2405.49L743.669 2414.18L710.482 2438.12C692.228 2451.29 669.143 2467.89 659.181 2475.01C649.219 2482.13 628.666 2496.88 613.506 2507.77C553.713 2550.75 505.047 2574.5 455.219 2585.03C434.634 2589.37 394.786 2590.97 375.908 2588.21C349.936 2584.42 325.521 2574.73 304.82 2560C294.476 2552.65 274.28 2533.6 266.362 2523.73L262.047 2518.35L252.456 2527.94L242.866 2537.53L248.873 2554.58C274.543 2627.47 314.185 2693.62 359.111 2738.55C381.983 2761.42 401.195 2775.39 428.444 2788.95C463.713 2806.51 483.868 2811.66 522.178 2812.92C559.896 2814.17 588.032 2809.22 629.256 2794.1C669.507 2779.34 705.1 2759.41 758.71 2721.61C800.119 2692.41 880.748 2634.78 894.644 2624.45C902.44 2618.65 916.969 2608.22 926.931 2601.27C936.893 2594.32 970.204 2570.61 1000.96 2548.57C1031.71 2526.53 1063.83 2503.57 1072.35 2497.54C1080.86 2491.52 1096.1 2480.59 1106.21 2473.27C1133.27 2453.68 1226.82 2386.81 1251.38 2369.51C1263.08 2361.28 1280.44 2348.73 1289.97 2341.64C1299.5 2334.54 1314.03 2324.14 1322.26 2318.52C1330.49 2312.9 1346.43 2301.61 1357.69 2293.42C1390.61 2269.48 1414.14 2256.18 1451.41 2240.45C1532.93 2206.04 1604.91 2209.31 1659.67 2249.91C1671.63 2258.78 1690.55 2276.81 1694.82 2283.41C1696.56 2286.09 1723.23 2403.52 1726.3 2422.01C1726.88 2425.47 1734.42 2460.2 1743.06 2499.18C1773.21 2635.22 1780.34 2667.78 1782.21 2677.95C1783.25 2683.58 1795.68 2740.28 1809.84 2803.95C1824 2867.62 1837.71 2930.39 1840.3 2943.45C1842.89 2956.51 1855.96 3016.4 1869.33 3076.54C1882.7 3136.68 1894.84 3191.91 1896.3 3199.27C1899.21 3213.91 1942.33 3410.98 1978.32 3574.1L2001.08 3677.23L1985.78 3692.59C1977.36 3701.04 1969.98 3707.43 1969.36 3706.79C1967.75 3705.11 1924.11 3601.96 1915.24 3578.85C1912.42 3571.48 1900.03 3541.72 1887.71 3512.7C1875.4 3483.68 1860.49 3447.89 1854.59 3433.16C1848.69 3418.43 1837.35 3391.15 1829.4 3372.52C1821.44 3353.9 1809.96 3326.26 1803.89 3311.1C1797.81 3295.94 1781.97 3257.89 1768.7 3226.55C1755.42 3195.2 1743.5 3166.5 1742.21 3162.76C1740.14 3156.78 1731.06 3135.07 1705.45 3074.85C1701.58 3065.75 1693.46 3045.95 1687.41 3030.84C1681.36 3015.74 1668.24 2984.2 1658.26 2960.76C1648.28 2937.31 1635.28 2906.09 1629.37 2891.36C1623.46 2876.63 1610.35 2845.09 1600.23 2821.27C1590.11 2797.45 1577.01 2765.91 1571.11 2751.18C1565.22 2736.46 1553.87 2709.17 1545.89 2690.55C1537.92 2671.92 1525.54 2642.16 1518.37 2624.4C1511.21 2606.64 1495.64 2569.13 1483.78 2541.05C1471.91 2512.97 1458.81 2481.43 1454.66 2470.96C1448.63 2455.77 1424.31 2397.8 1409.12 2362.4L1406.52 2356.34L1372.41 2380.51C1353.65 2393.81 1316.79 2419.62 1290.51 2437.87C1240.81 2472.38 1228.25 2481.16 1189.74 2508.3L1166.68 2524.55L1178.53 2544.16C1185.05 2554.94 1198.9 2578.64 1209.32 2596.83C1219.74 2615.03 1235.83 2642.67 1245.09 2658.26C1254.34 2673.85 1264.95 2692.28 1268.66 2699.21C1272.37 2706.14 1275.95 2712.52 1276.62 2713.38C1278.61 2715.95 1313.9 2776.36 1325.76 2797.51C1331.79 2808.26 1340.47 2823.14 1345.06 2830.58C1349.64 2838.02 1364.56 2863.6 1378.22 2887.42C1391.87 2911.24 1407.12 2937.47 1412.1 2945.7C1417.08 2953.93 1430.29 2976.61 1441.47 2996.1C1462.93 3033.52 1484.22 3070.15 1514.97 3122.56C1525.24 3140.06 1542.37 3169.62 1553.03 3188.25C1563.7 3206.87 1577.07 3229.86 1582.75 3239.34C1597.31 3263.64 1594.55 3263.67 1574.49 3239.43C1568.76 3232.5 1555.55 3217.27 1545.14 3205.57C1534.73 3193.88 1522.69 3180.06 1518.37 3174.86C1514.06 3169.66 1502.68 3156.55 1493.09 3145.72C1483.51 3134.89 1467.2 3116.22 1456.84 3104.22C1432.88 3076.44 1401.73 3040.52 1356.83 2988.9C1337.3 2966.44 1307.17 2931.76 1289.89 2911.83C1272.6 2891.91 1251.62 2867.81 1243.28 2858.28C1226.83 2839.52 1210.32 2820.48 1183.97 2789.92C1174.7 2779.17 1157.99 2760.04 1146.83 2747.4C1135.67 2734.75 1123.29 2720.51 1119.32 2715.75C1115.35 2710.98 1106.72 2701.06 1100.14 2693.7C1093.57 2686.33 1077.52 2667.91 1064.48 2652.75C1051.44 2637.59 1039.34 2623.91 1037.59 2622.35C1034.48 2619.59 1033.87 2619.91 1010.2 2636.94C996.887 2646.52 965.013 2669.77 939.371 2688.6C913.728 2707.43 881.125 2731.3 866.921 2741.64C852.716 2751.98 831.65 2767.47 820.109 2776.06L799.125 2791.68L810.937 2802.56C817.434 2808.55 828.648 2818.5 835.859 2824.68C843.069 2830.86 858.537 2844.56 870.231 2855.12C881.926 2865.67 894.329 2876.76 897.794 2879.76C901.259 2882.76 919.686 2899.04 938.744 2915.94C957.801 2932.83 1013.76 2982.41 1063.1 3026.11C1112.44 3069.81 1164.38 3115.84 1178.51 3128.4C1192.65 3140.96 1214.95 3160.64 1228.08 3172.13C1241.21 3183.61 1258.73 3199.28 1267.02 3206.95C1275.31 3214.61 1288.88 3226.58 1297.18 3233.55C1305.48 3240.51 1318.24 3251.82 1325.53 3258.68C1332.83 3265.54 1344.51 3276.06 1351.51 3282.07C1358.5 3288.07 1376.57 3304.01 1391.67 3317.49C1406.77 3330.97 1459.12 3377.39 1508.01 3420.65C1556.89 3463.91 1610.4 3511.27 1626.92 3525.89C1643.43 3540.51 1670.89 3564.77 1687.94 3579.8C1704.99 3594.84 1719.38 3607.86 1719.92 3608.74C1720.47 3609.62 1729.2 3617.31 1739.33 3625.84C1749.46 3634.37 1764.48 3647.58 1772.71 3655.2C1780.94 3662.81 1794.76 3675.12 1803.42 3682.55C1812.08 3689.98 1826.61 3702.85 1835.71 3711.14C1844.8 3719.43 1861.1 3733.98 1871.93 3743.48C1882.76 3752.98 1901.19 3769.26 1912.9 3779.66C1924.6 3790.05 1948.7 3811.41 1966.45 3827.12C1984.2 3842.82 2009.61 3865.33 2022.93 3877.12C2036.24 3888.92 2047.78 3898.57 2048.57 3898.57C2049.36 3898.57 2059.02 3890.54 2070.04 3880.73C2094.66 3858.8 2149.72 3810.03 2201.93 3763.91C2223.51 3744.85 2248.18 3722.88 2256.75 3715.08C2265.33 3707.29 2278.46 3695.7 2285.94 3689.33C2293.42 3682.96 2309.47 3668.69 2321.59 3657.63C2333.72 3646.56 2350.16 3631.93 2358.13 3625.11C2366.1 3618.29 2382.4 3603.92 2394.36 3593.18C2418.95 3571.08 2447.51 3545.71 2509.02 3491.34C2532.41 3470.66 2567.14 3439.92 2586.19 3423.02C2605.25 3406.13 2633.28 3381.3 2648.48 3367.85C2663.67 3354.39 2688.09 3332.75 2702.73 3319.76C2717.38 3306.77 2737.9 3288.64 2748.34 3279.48C2758.78 3270.32 2773.34 3257.27 2780.71 3250.49C2788.07 3243.71 2799.76 3233.4 2806.69 3227.58C2813.62 3221.77 2826.03 3210.78 2834.26 3203.17C2842.49 3195.55 2858.43 3181.3 2869.69 3171.5C2880.96 3161.69 2895.87 3148.52 2902.84 3142.22C2916.13 3130.2 2932.27 3115.89 3093.34 2973.36C3147.92 2925.07 3204.26 2875.11 3218.56 2862.33C3232.85 2849.56 3252.34 2832.32 3261.87 2824.02C3271.4 2815.72 3283.38 2805.13 3288.49 2800.48L3297.8 2792.02L3287.71 2784.18C3282.16 2779.86 3271.24 2771.68 3263.44 2766C3255.65 2760.31 3226.59 2739.14 3198.87 2718.95C3171.15 2698.76 3137.84 2674.29 3124.84 2664.58C3098.39 2644.81 3063.22 2619.67 3062.01 2619.67C3061.57 2619.67 3049.69 2632.96 3035.6 2649.2C3021.51 2665.45 3003.47 2686.18 2995.5 2695.27C2958.63 2737.39 2934.58 2765.01 2920.09 2781.92C2904.25 2800.41 2879.04 2829.39 2848.43 2864.31C2839.34 2874.69 2824.45 2891.81 2815.36 2902.37C2781.79 2941.32 2648.93 3094.11 2611.39 3136.93C2600.13 3149.77 2586.08 3166.04 2580.17 3173.08C2574.26 3180.12 2562.13 3194.04 2553.23 3204C2544.33 3213.96 2530.19 3230.26 2521.82 3240.22C2513.44 3250.18 2506.07 3257.98 2505.44 3257.55C2503.81 3256.43 2503.96 3256.11 2516.72 3234.95C2523.06 3224.42 2534.39 3204.98 2541.9 3191.75C2549.4 3178.51 2563.81 3153.71 2573.91 3136.62C2584.02 3119.54 2596.28 3098.47 2601.15 3089.81C2610.31 3073.56 2642.59 3018.01 2675.76 2961.45C2686.17 2943.69 2704.69 2911.8 2716.91 2890.57C2729.12 2869.35 2746.42 2839.58 2755.33 2824.42C2781.47 2779.98 2816.96 2719.03 2823.9 2706.67C2827.43 2700.39 2838.75 2680.9 2849.05 2663.36C2859.35 2645.83 2876.29 2616.6 2886.69 2598.41C2897.09 2580.22 2910.75 2556.83 2917.04 2546.43C2923.34 2536.04 2928.73 2526.72 2929.02 2525.72C2929.31 2524.73 2919.57 2516.93 2907.38 2508.4C2895.18 2499.87 2877.63 2487.57 2868.37 2481.07C2825.96 2451.31 2793.27 2428.52 2764.96 2408.95C2748.06 2397.27 2724.43 2380.62 2712.43 2371.95C2695.38 2359.63 2690.31 2356.66 2689.22 2358.38C2688.46 2359.59 2687.82 2361.05 2687.8 2361.61C2687.79 2362.18 2678.5 2384.5 2667.17 2411.22C2655.83 2437.95 2643.5 2467.61 2639.77 2477.13C2636.04 2486.66 2623.98 2515.72 2612.98 2541.71C2601.98 2567.7 2587.1 2603.49 2579.92 2621.25C2572.74 2639.01 2559.63 2670.54 2550.79 2691.33C2541.94 2712.12 2529.86 2741.18 2523.94 2755.91C2518.01 2770.64 2504.91 2802.18 2494.81 2826C2484.72 2849.82 2472.93 2878.13 2468.61 2888.92C2464.28 2899.71 2452.19 2928.77 2441.73 2953.5C2431.28 2978.23 2418.23 3009.64 2412.75 3023.31C2407.26 3036.98 2393.1 3071 2381.28 3098.91C2369.46 3126.82 2357.46 3155.68 2354.63 3163.05C2351.79 3170.41 2340.46 3197.7 2329.45 3223.68C2318.43 3249.67 2303.55 3285.46 2296.38 3303.22C2289.22 3320.98 2276.12 3352.52 2267.28 3373.31C2258.44 3394.1 2246.36 3423.16 2240.44 3437.88C2234.51 3452.61 2221.39 3484.15 2211.28 3507.97C2201.17 3531.79 2187.04 3565.81 2179.86 3583.57C2172.69 3601.33 2158.69 3635 2148.74 3658.38C2138.79 3681.77 2130.16 3702.5 2129.55 3704.45C2128.94 3706.4 2127.95 3708 2127.34 3708C2126.73 3708 2119.38 3701.09 2111.01 3692.64L2095.79 3677.28L2116.95 3582.78C2128.59 3530.81 2139.22 3482.26 2140.58 3474.9C2141.94 3467.53 2155.09 3407.29 2169.81 3341.02C2184.52 3274.75 2197.99 3213.09 2199.74 3204C2201.48 3194.9 2214.82 3133.59 2229.37 3067.76C2243.92 3001.92 2258.81 2933.88 2262.46 2916.56C2266.11 2899.23 2278.85 2841.12 2290.77 2787.41C2302.69 2733.7 2313.29 2685.15 2314.33 2679.52C2315.37 2673.89 2328.17 2615.07 2342.76 2548.8C2357.36 2482.53 2376.29 2396.06 2384.83 2356.65L2400.34 2284.98L2414.25 2270.53C2454.04 2229.16 2506.23 2211 2564.97 2218.08C2582.6 2220.21 2613.81 2227.99 2631.03 2234.57C2671.97 2250.19 2705.85 2268.7 2741.95 2295.16C2753.64 2303.73 2767.68 2313.75 2773.14 2317.44C2778.6 2321.12 2793.35 2331.68 2805.91 2340.9C2818.47 2350.13 2835.83 2362.63 2844.49 2368.69C2867.63 2384.87 2935.22 2433.19 2964.06 2454.18C2977.84 2464.2 2998.21 2478.79 3009.31 2486.58C3020.41 2494.38 3057.64 2520.96 3092.04 2545.65C3126.43 2570.34 3163.16 2596.56 3173.65 2603.92C3184.14 2611.29 3203.68 2625.28 3217.06 2635.02C3281.98 2682.28 3370.5 2744.59 3388.75 2755.88C3426.82 2779.43 3476.92 2800.01 3517.87 2808.91C3532.04 2811.99 3538.98 2812.49 3567.42 2812.52C3598.09 2812.55 3601.7 2812.25 3617.1 2808.36C3647.33 2800.72 3670.87 2790 3699.87 2770.65C3731.75 2749.38 3771.01 2705.88 3796.25 2663.87C3816.83 2629.62 3838.72 2582.71 3850.2 2548.3L3853.77 2537.57L3844.55 2528.25L3835.32 2518.93L3822.14 2533.05C3785.05 2572.8 3746.12 2589.76 3692.03 2589.74C3625.07 2589.71 3562.27 2564.95 3482.37 2507.06C3459.67 2490.63 3452.66 2485.58 3391.22 2441.54C3371.4 2427.33 3354.89 2414.93 3354.52 2413.98C3354.15 2413.02 3363.04 2383.61 3374.27 2348.61C3385.5 2313.62 3396.89 2277.54 3399.58 2268.45C3410.51 2231.49 3429.73 2184.76 3453.97 2136.17C3478.8 2086.39 3508.71 2039.67 3559.91 1970.66L3571.1 1955.58L3633.83 1953.58C3668.34 1952.48 3696.99 1951.31 3697.51 1950.99C3699.02 1950.05 3705.08 1929.81 3707.66 1917.08C3711.47 1898.23 3712.25 1865.56 3709.35 1846.61C3706.58 1828.6 3698.61 1803.1 3690.97 1787.8C3669.17 1744.21 3625.44 1703.53 3573.36 1678.43C3544.29 1664.42 3501.58 1657 3469.72 1660.43C3444.06 1663.19 3418.98 1670.11 3398.89 1679.97C3381.6 1688.46 3359.23 1703.05 3357.8 1706.77C3357.39 1707.84 3360.21 1718.96 3364.08 1731.47C3367.96 1743.98 3376.12 1771 3382.24 1791.52L3393.35 1828.83L3378.14 1850.59C3291.78 1974.1 3230.8 2036.13 3110.84 2122.47C3101 2129.56 3078.66 2145.88 3061.21 2158.74C3043.75 2171.6 3028.6 2181.79 3027.54 2181.38C3025.76 2180.68 2983.09 2149.88 2980.24 2147.22C2979.54 2146.57 2981.54 2134.06 2984.69 2119.43C2991.07 2089.78 2997.33 2052.89 2998.82 2036.13C2999.36 2030.07 3000.49 2018.81 3001.33 2011.12C3007.98 1950.32 3004.85 1862.75 2994.09 1808.72C2979.84 1737.13 2945.88 1660.98 2903.21 1604.92C2877.31 1570.89 2839.7 1532.84 2806.69 1507.26C2777.89 1484.94 2731.51 1455.52 2701.32 1440.42C2660.79 1420.14 2600.82 1394.87 2573.59 1386.59C2473.89 1356.27 2390.11 1338.72 2296.39 1328.5L2271.19 1325.76L2270.05 1314.76C2268.58 1300.64 2258.31 1159.3 2256.21 1124.21C2253.93 1086.19 2234.3 822.87 2233.28 816.589L2232.43 811.367L2169.91 872.666C2135.53 906.379 2094.1 946.907 2077.85 962.728L2048.31 991.491L1988.07 932.491C1954.95 900.043 1913.55 859.531 1896.07 842.469L1864.3 811.443L1863.36 819.776ZM2205.83 1630.45C2335.77 1639.17 2416.04 1652.3 2527.92 1683.17C2582.3 1698.17 2656.5 1730.53 2703.41 1759.7C2725.24 1773.27 2757.57 1797.39 2776.77 1814.42C2809.85 1843.77 2844.39 1888.18 2864.06 1926.67C2881.69 1961.16 2896.21 2005.05 2902.62 2043.22C2906.05 2063.62 2908.03 2093.63 2905.95 2093.61C2905.07 2093.6 2897.97 2088.88 2890.18 2083.1C2860.62 2061.21 2812.36 2033.07 2779.92 2018.82C2766.61 2012.98 2727.73 2001.63 2709.04 1998.13C2687.05 1994.02 2640.61 1993.98 2621.67 1998.06C2568.98 2009.41 2532.39 2030.34 2488.52 2074.22C2476.25 2086.48 2447.88 2123.08 2438.56 2138.66C2433.66 2146.86 2431.06 2149.18 2431.06 2145.35C2431.06 2144.35 2443.03 2089.6 2457.67 2023.68C2472.31 1957.77 2484.76 1901 2485.33 1897.53C2486.44 1890.91 2511 1778.19 2512.34 1773.58C2512.98 1771.38 2509.98 1769.93 2495.32 1765.39C2417.79 1741.34 2335.24 1727.63 2256.48 1725.71C2214.32 1724.68 2152.94 1726.94 2150.26 1729.61C2148.76 1731.11 2136.6 1857.53 2127.06 1970.77C2123.59 2011.92 2119.7 2056.57 2118.41 2070C2117.12 2083.42 2111.09 2147.92 2105 2213.32C2098.92 2278.72 2089.36 2381.14 2083.76 2440.91C2078.17 2500.68 2072.15 2567.66 2070.38 2589.75C2065.31 2653.09 2050.14 2815.27 2049.19 2816.21C2048.72 2816.69 2048.01 2816.75 2047.62 2816.36C2046.98 2815.72 2034.02 2674.54 2024.08 2559.82C2021.87 2534.27 2012.94 2437.52 2004.24 2344.83C1984.37 2133.09 1971.69 1994.83 1970.39 1975.5C1969.44 1961.52 1954.6 1798.74 1950.03 1752.14C1948.89 1740.61 1947.31 1730.52 1946.52 1729.73C1943.77 1726.98 1883.19 1724.66 1841.22 1725.69C1772.76 1727.37 1713.62 1735.82 1642.77 1754.03C1598.65 1765.36 1583.41 1770.47 1584.38 1773.59C1586.01 1778.87 1608.74 1882.23 1611.3 1896.02C1612.74 1903.78 1625.55 1962.37 1639.76 2026.21C1653.98 2090.05 1665.61 2143.9 1665.61 2145.89C1665.61 2148.44 1662.53 2144.87 1655.17 2133.78C1632.45 2099.57 1614.8 2078.72 1590.5 2057.38C1558.9 2029.65 1538.64 2017.56 1504.93 2006.36C1451.79 1988.7 1402.64 1990.26 1336.43 2011.72C1304.99 2021.91 1241.28 2057.01 1205.86 2083.66C1198.58 2089.14 1192.03 2093.62 1191.29 2093.62C1188.14 2093.62 1191.2 2060.86 1197.17 2030.62C1216.78 1931.26 1270.86 1848.88 1359.8 1782.88C1382.76 1765.84 1408.57 1750.45 1443.44 1732.99C1493.16 1708.11 1528.72 1694.42 1580.95 1680.06C1696.54 1648.28 1793.47 1634.34 1940.44 1628.38C1969.67 1627.2 2181.99 1628.85 2205.83 1630.45Z" fill="#808080"/>
</svg>
