<svg width="4096" height="4096" viewBox="0 0 4096 4096" fill="none" xmlns="http://www.w3.org/2000/svg">
<path fill-rule="evenodd" clip-rule="evenodd" d="M1311.57 25.0361C1343.85 73.8596 1367.92 126.452 1389.98 196.317C1406.72 249.34 1420.64 317.64 1425.11 368.78C1425.98 378.742 1427.59 396.106 1428.68 407.367C1429.96 420.541 1430.67 454.243 1430.67 501.867C1430.67 565.578 1430.17 581.928 1427.04 619.205C1420.9 692.475 1419.13 704.164 1390.49 859.392C1379.31 920.03 1368.34 980.982 1366.12 994.842C1362.41 1017.97 1350.04 1085.98 1323.45 1229.52C1317.83 1259.84 1312.17 1291.73 1310.87 1300.39C1306.52 1329.39 1256.35 1601.79 1251.99 1620.12C1247.09 1640.66 1239.89 1659.53 1226.73 1686.27C1184.95 1771.16 1123.25 1831.52 1038.54 1870.4C985.986 1894.52 938.142 1907.29 873.131 1914.58C861.004 1915.93 829.11 1919.5 802.256 1922.51C575.292 1947.89 404.318 1961.5 228.169 1968.21C214.742 1968.72 197.732 1970.23 190.369 1971.57C160.025 1977.09 124.863 2001 109.977 2026.23C108.201 2029.24 107.311 2032.02 108.001 2032.42C108.691 2032.81 120.95 2036.13 135.244 2039.8C193.852 2054.83 236.815 2066.18 294.319 2081.84C327.669 2090.93 363.461 2100.38 373.856 2102.86C384.251 2105.34 418.98 2114.45 451.031 2123.1C533.641 2145.42 588.929 2160.13 605.381 2164.16C613.177 2166.07 659.955 2178.53 709.331 2191.83C758.707 2205.14 805.485 2217.52 813.281 2219.35C821.077 2221.18 851.199 2229.02 880.219 2236.77C909.238 2244.52 941.059 2253.01 950.931 2255.64C973.003 2261.51 1018.11 2278.28 1041.53 2289.34C1082.39 2308.62 1143.82 2347.05 1184.98 2379.08C1280.29 2453.26 1360.55 2543.82 1435.88 2662.15C1462.88 2704.55 1472.11 2720.59 1498.97 2771.7C1535.3 2840.82 1571.51 2924.65 1593.44 2990.43C1598.63 3005.99 1610.79 3041.04 1620.46 3068.33C1650.05 3151.75 1753.7 3462.16 1766.19 3504.72C1769.13 3514.74 1778.93 3545.92 1787.98 3574.02C1797.02 3602.11 1809.03 3640.33 1814.67 3658.95C1835.28 3727 1866.27 3832.14 1873.87 3859.77C1892.95 3929.15 1909.73 3992.54 1920.87 4037.3L1932.91 4085.68L1943.63 4079.89C1975.81 4062.51 1995.33 4038.91 2003.09 4008C2004.64 4001.84 2007.14 3984.03 2008.65 3968.44C2012.41 3929.57 2025 3813.62 2036.31 3713.65C2041.49 3667.94 2045.72 3629.7 2045.72 3628.68C2045.72 3627.53 2046.25 3627.39 2047.11 3628.32C2048.27 3629.57 2052.29 3663.76 2056.17 3705.42C2056.66 3710.61 2064.43 3780.14 2073.44 3859.91C2090.74 4013.05 2091.04 4014.94 2101.37 4034.59C2108.89 4048.88 2128.35 4067.5 2146.33 4077.6C2154.46 4082.16 2161.26 4085.69 2161.44 4085.44C2161.62 4085.2 2166.89 4063.73 2173.15 4037.74C2190.29 3966.53 2196.76 3941.98 2219.21 3862.92C2249.74 3755.39 2256.75 3731.53 2276.34 3668.4C2286.15 3636.79 2297.14 3600.99 2300.77 3588.87C2318.7 3528.84 2414.52 3237.65 2446.13 3147.08C2456.56 3117.19 2467.17 3086.14 2469.7 3078.07C2482.28 3037.92 2526.55 2917.66 2541.13 2884.05C2553.27 2856.04 2587.98 2783.13 2598.86 2762.78C2638.62 2688.37 2688.8 2610.97 2733.46 2555.14C2793.08 2480.62 2847.77 2426.21 2915.12 2374.42C2946.68 2350.14 2957.22 2342.96 2990.72 2322.89C3040.69 2292.95 3100.03 2266.76 3144.28 2255.11C3152.94 2252.83 3182.71 2244.95 3210.43 2237.6C3238.15 2230.26 3276.07 2220.39 3294.69 2215.68C3313.32 2210.97 3357.61 2199.19 3393.13 2189.52C3428.65 2179.84 3476.84 2167.07 3500.23 2161.15C3523.62 2155.22 3553.03 2147.52 3565.59 2144.02C3612.24 2131.05 3688.56 2110.65 3716.79 2103.6C3732.82 2099.6 3774.28 2088.64 3808.93 2079.25C3866.92 2063.53 3899.67 2054.9 3956.19 2040.42C3967.89 2037.43 3979.75 2034.25 3982.55 2033.36L3987.65 2031.75L3983.88 2026.2C3970.86 2007.05 3950.62 1989.47 3931.09 1980.37C3912.9 1971.89 3896.87 1969.44 3846.73 1967.48C3683.33 1961.07 3431.78 1940.33 3272.64 1920.15C3266.15 1919.32 3255.87 1918.26 3249.81 1917.78C3174.54 1911.88 3112.94 1896.94 3055.12 1870.55C3023.49 1856.12 3003.03 1843.68 2977.33 1823.27C2947.12 1799.28 2929.88 1781.61 2905.88 1750.05C2883.2 1720.23 2869.22 1695.21 2854.72 1658.47C2840.46 1622.34 2841.23 1626.02 2802.51 1409.07C2797.87 1383.08 2785.53 1315.39 2775.09 1258.65C2764.64 1201.92 2754.74 1146.63 2753.08 1135.8C2751.41 1124.98 2741.86 1071.82 2731.84 1017.68C2709.81 898.572 2698.6 836.588 2696.24 820.805C2695.27 814.308 2690.97 789.653 2686.69 766.014C2668.54 665.858 2661.54 592.006 2661.57 501.08C2661.61 396.601 2671.08 320.684 2696.45 221.519C2714.25 151.943 2752.14 65.8207 2785.1 20.0418C2788.17 15.7798 2790.42 12.0361 2790.11 11.7211C2789.27 10.8816 2762.59 20.6482 2742.53 29.139C2687.84 52.2867 2633.7 94.1314 2585.33 150.642C2571.37 166.952 2541.22 212.4 2525.76 240.443C2502.36 282.892 2470.8 363 2457.53 413.667C2424.65 539.206 2409.65 667.208 2411.54 806.03C2412.26 858.915 2413.34 877.094 2423.5 1009.02C2445.67 1296.69 2455.69 1435.11 2454.44 1436.35C2452.97 1437.83 2392.23 1375.48 2374.93 1354.73C2331.55 1302.72 2290.52 1240.86 2257.92 1178.33C2236.53 1137.29 2206.83 1067.39 2191.35 1021.62C2184.1 1000.2 2166.28 936.497 2161.26 914.056L2158.33 900.993L2150.62 901.456L2142.9 901.917L2129.74 958.617C2122.51 989.802 2114.05 1027.37 2110.95 1042.09C2107.84 1056.82 2097.17 1103.95 2087.23 1146.83C2063.99 1247.13 2054.47 1289.17 2051.13 1306.3C2049.65 1313.88 2047.83 1320.08 2047.08 1320.08C2046.33 1320.08 2045.72 1319.78 2045.72 1319.41C2045.72 1319.04 2039.03 1289.8 2030.86 1254.44C2022.69 1219.08 2013.88 1179.87 2011.28 1167.3C2008.68 1154.74 1995.23 1095.56 1981.4 1035.79C1967.56 976.021 1955.43 922.865 1954.45 917.667C1951.07 899.722 1951.99 901.13 1943.64 901.13H1936.12L1927.98 933.811C1919.06 969.657 1905.5 1012.96 1891.38 1050.75C1886.37 1064.18 1880.8 1079.18 1879.01 1084.09C1868.66 1112.5 1827.63 1195.85 1807.41 1229.52C1773.76 1285.56 1745.33 1324.34 1698.89 1377.57C1686.35 1391.94 1641.34 1435.48 1639.73 1434.8C1639.05 1434.51 1643.23 1371.9 1649.02 1295.67C1661.83 1127.16 1667.34 1052.14 1668.53 1030.28C1669.03 1021.18 1672.05 980.077 1675.25 938.93C1680.9 866.168 1681.06 861.938 1681.01 784.58C1680.96 698.164 1679.72 675.113 1670.8 595.137C1660.88 506.208 1645.05 435.476 1615.9 349.773C1601.74 308.139 1588.98 279.819 1562.75 231.755C1532.99 177.238 1486.77 120.588 1444.07 86.2973C1429.15 74.3226 1392.09 49.3778 1376.34 40.7247C1362.77 33.2624 1308.22 11.2549 1303.31 11.2549C1302.84 11.2549 1306.56 17.4572 1311.57 25.0361ZM2032.06 234.486C2013.07 271.259 2001.16 299.617 1988.53 338.067C1971.91 388.7 1965.54 417.811 1962.2 458.328C1958.74 500.387 1964.9 544.728 1990.55 662.517C2000.26 707.082 2015.58 768.175 2032.42 829.467C2047.79 885.426 2046.71 881.946 2047.83 879.08C2050.85 871.354 2063.58 823.737 2078.57 764.105C2108.53 644.929 2119.62 593.603 2127.05 539.667C2138.39 457.393 2128.04 389.13 2090.29 297.117C2079.96 271.916 2052.76 214.532 2048.67 209.286C2046.73 206.786 2045.03 209.355 2032.06 234.486ZM1057.09 699.761C979.886 751.058 910.889 805.926 849.153 865.119C756.335 954.113 671.903 1060.53 611.269 1164.94C595.018 1192.93 568.369 1240.78 568.369 1241.97C568.369 1242.26 561.021 1258.01 552.041 1276.96C522.678 1338.92 516.176 1354.94 491.699 1425.6C469.452 1489.83 459.798 1524.13 446.254 1587.04C430.18 1661.71 418.918 1736.87 413.255 1807.27C411.943 1823.58 410.869 1841.16 410.869 1846.33V1855.72L415.987 1854.83C424.467 1853.36 637.376 1826.2 675.469 1821.73C773.134 1810.27 873.178 1796.93 874.265 1795.22C874.914 1794.2 875.456 1791.64 875.47 1789.54C875.514 1782.55 883.493 1733.9 889.051 1706.74C892.066 1692.02 897.005 1665.44 900.031 1647.68C906.036 1612.42 915.924 1566.25 926.678 1523.25C942.604 1459.59 974.739 1369.39 1005.79 1301.18C1058.87 1184.61 1128.67 1070.47 1202.44 979.607C1208.86 971.699 1214.12 964.563 1214.12 963.749C1214.12 961.536 1205.67 950.027 1204.02 949.988C1203.23 949.971 1192.31 955.683 1179.74 962.684C1106.62 1003.41 1055.82 1041.24 983.381 1108.89C963.426 1127.53 919.337 1173.94 898.719 1198.02C888.333 1210.14 876.201 1224.23 871.758 1229.33C863.856 1238.39 844.583 1263.35 817.502 1299.6C803.941 1317.76 749.076 1399.94 744.225 1409.36C740.308 1416.97 738.259 1417.38 739.217 1410.37C745.03 1367.77 747.467 1352.53 752.661 1326.27C759.528 1291.54 769.208 1255.06 780.902 1219.86C790.494 1190.98 813.814 1130.7 824.993 1105.88C835.267 1083.07 871.238 1012.78 883.835 990.905C907.162 950.39 950.404 883.45 973.799 851.643C978.31 845.51 987.216 833.405 993.592 824.742C1019.1 790.089 1060.54 739.73 1102.48 692.425C1105.19 689.36 1105.12 689.047 1100.25 682.641C1097.47 679.001 1094.71 675.996 1094.1 675.963C1093.49 675.932 1076.84 686.64 1057.09 699.761ZM2994 682.038C2988.41 689.091 2988.15 690.458 2991.79 693.432C2995.85 696.742 3048.69 758.622 3065.26 779.471C3142.68 876.845 3208.74 980.595 3255.04 1077.53C3289.19 1149.02 3309.37 1202.78 3329.28 1275.31C3340.76 1317.14 3355.57 1397.99 3354.26 1411.67C3353.79 1416.55 3352.35 1414.65 3335 1386.48C3299.23 1328.38 3234.98 1242.63 3184.35 1185.42C3157.41 1154.97 3099.78 1097.62 3072.59 1074.19C3042.54 1048.29 3007.75 1021.47 2982.06 1004.4C2955.47 986.733 2917.08 963.563 2901.07 955.516L2889.38 949.643L2886.43 953.343C2877.78 964.169 2877.79 963.205 2886.37 973.169C2912.68 1003.72 2966.49 1080.29 3001.21 1136.59C3017.52 1163.04 3045.03 1212.88 3062.07 1246.84C3124.53 1371.33 3172.19 1515.04 3192.39 1639.8C3195.12 1656.7 3200.44 1686.11 3204.21 1705.17C3207.98 1724.22 3212.94 1752.57 3215.24 1768.17C3217.53 1783.76 3219.52 1796.63 3219.65 1796.76C3219.99 1797.13 3376.2 1816.77 3430.93 1823.33C3456.92 1826.45 3524.24 1834.93 3580.52 1842.19C3636.81 1849.44 3682.93 1855.25 3683.01 1855.09C3683.43 1854.26 3680.33 1810.54 3678.2 1787.07C3674.88 1750.55 3667.11 1688.13 3662.31 1659.49C3647.97 1573.96 3618.15 1463.92 3588.04 1385.44C3547.13 1278.81 3505.7 1197.93 3442.02 1100.37C3428.53 1079.71 3415.01 1060.91 3381.96 1016.89C3377.41 1010.83 3362.59 992.755 3349.02 976.73C3259.7 871.184 3157.83 780.532 3041.71 703.28C3019.08 688.223 3000.18 675.905 2999.71 675.905C2999.24 675.905 2996.67 678.664 2994 682.038ZM1646.19 1707.75C1652.4 1710.47 1678.74 1722.79 1704.73 1735.13C1730.72 1747.47 1756.45 1759.45 1761.91 1761.74C1767.37 1764.04 1787.92 1773.59 1807.58 1782.96C1842.54 1799.64 1858.56 1807.1 1896.88 1824.55C1907.28 1829.28 1935.98 1842.67 1960.67 1854.31C1985.36 1865.94 2007.94 1876.42 2010.84 1877.59C2016.06 1879.7 2016.12 1879.82 2015.11 1887.4C2013.6 1898.81 2006.25 1918.26 1998.58 1931.18C1984.24 1955.31 1962.81 1970.27 1933.02 1976.95L1917.19 1980.5L1927.92 2016.08C1933.82 2035.65 1939.65 2055.21 1940.88 2059.54C1942.1 2063.87 1948.05 2083.36 1954.09 2102.85C1984.7 2201.53 1991.11 2222.47 1998.94 2249.33C2015.07 2304.68 2046.44 2403.59 2047.51 2402.45C2048.85 2401.04 2061.02 2362.2 2068.36 2335.95C2071.39 2325.13 2085.19 2279.77 2099.03 2235.15C2112.86 2190.54 2125.62 2148.73 2127.37 2142.23C2129.12 2135.73 2140.62 2098.17 2152.92 2058.75C2165.22 2019.34 2175.62 1985.54 2176.03 1983.65C2176.67 1980.7 2175.91 1980.06 2170.7 1979.18C2144.01 1974.65 2126.86 1966.4 2110.22 1950.08C2093.91 1934.08 2079.73 1906.03 2078.46 1887.23L2078.01 1880.48L2107.93 1866.32C2165.7 1839 2185.34 1829.83 2211.88 1817.75C2226.61 1811.05 2259.1 1795.89 2284.09 1784.06C2309.08 1772.23 2333.53 1760.88 2338.43 1758.83C2343.33 1756.77 2365.4 1746.46 2387.49 1735.91C2432.19 1714.56 2457.79 1702.8 2459.56 1702.81C2463.07 1702.83 2504.9 1781.49 2523.58 1823.2C2568.06 1922.48 2588.21 2009.97 2585.44 2091.83C2583.54 2147.84 2571.02 2199.43 2548.65 2243.37C2538.59 2263.12 2519.8 2291.84 2504.57 2310.72C2467.98 2356.1 2408.06 2402.55 2345.34 2434.15C2280.46 2466.84 2238.78 2481.29 2172.32 2494.12C2130.54 2502.18 2106.23 2504.69 2061.21 2505.62C2017.56 2506.52 1988.1 2504.87 1952.79 2499.55C1877.48 2488.19 1827.4 2472.74 1760.29 2440.16C1703.35 2412.51 1655.33 2379.19 1617.91 2341.35C1585.3 2308.39 1569.97 2288.76 1553.49 2258.89C1510.29 2180.61 1497.71 2097.57 1514.19 1999.54C1525.33 1933.22 1554.4 1849.86 1590.46 1780.77C1616.96 1729.99 1632.19 1702.8 1634.12 1702.8C1634.55 1702.8 1639.98 1705.03 1646.19 1707.75ZM1704.81 1873.36C1664.71 1930.69 1645.74 1984.68 1641.62 2053.24C1639.86 2082.42 1645.45 2127.02 1655.31 2162.47C1664.83 2196.73 1690.28 2246.59 1717.93 2285.16L1724.99 2295H1734.32C1742.61 2295 1743.53 2294.69 1742.49 2292.25C1739.67 2285.58 1729.36 2250.4 1727.11 2239.76C1724.08 2225.4 1718.92 2196.41 1716.21 2178.45C1713 2157.28 1713.56 2090.05 1717.09 2071.35C1721.01 2050.64 1726.72 2029.15 1731.66 2016.59C1744.46 1984.05 1770.85 1950.15 1799.71 1929.17L1812.8 1919.66L1775.3 1900.55C1754.68 1890.04 1731.71 1878.11 1724.26 1874.02C1716.81 1869.94 1710.43 1866.63 1710.08 1866.66C1709.74 1866.7 1707.37 1869.71 1704.81 1873.36ZM2338.97 1890.13C2314.5 1902.94 2291.67 1914.68 2288.22 1916.24C2284.78 1917.79 2281.97 1919.55 2281.97 1920.16C2281.97 1920.77 2286.94 1924.58 2293.02 1928.62C2316.83 1944.45 2340.25 1972.22 2355.62 2002.84C2389.48 2070.32 2389.66 2171.38 2356.1 2276.16L2350.02 2295.15L2359.54 2294.68L2369.06 2294.22L2379.8 2279.25C2415.8 2229.11 2441.05 2168.53 2449.75 2111.46C2452.93 2090.55 2453.35 2049.87 2450.6 2028.83C2445.62 1990.67 2433.31 1951.72 2414.26 1913.85C2408.53 1902.45 2387.23 1869.18 2384.64 1867.57C2383.99 1867.17 2363.43 1877.32 2338.97 1890.13ZM436.069 2249.75C436.069 2255.69 454.161 2342.45 461.27 2370.6C474.615 2423.46 507.922 2526.1 527.554 2574.88C541.452 2609.41 573.176 2681.13 584.69 2704.04C669.992 2873.83 781.153 3027.58 909.578 3153.41C972.607 3215.16 1035.26 3267.56 1109.48 3320.6C1261.61 3429.32 1423.34 3506.7 1610.55 3560.33C1626.83 3564.99 1640.27 3568.72 1640.4 3568.6C1640.54 3568.49 1623.31 3516.65 1602.13 3453.42C1580.95 3390.18 1559.1 3324.62 1553.58 3307.73C1548.06 3290.84 1519.85 3205.43 1490.89 3117.94L1438.24 2958.87L1428.41 2952.57C1342.2 2897.33 1277.37 2845.5 1212.78 2780.19C1170.47 2737.41 1139.41 2701.73 1107.82 2659.62C1045.33 2576.32 1000.05 2498.12 959.723 2403.82C955.126 2393.07 950.292 2383.67 948.983 2382.94C947.674 2382.2 937.514 2379.44 926.405 2376.8C915.295 2374.15 870.414 2362.37 826.669 2350.61C782.923 2338.86 726.932 2324.09 702.244 2317.79C677.555 2311.5 625.462 2297.72 586.481 2287.17C547.5 2276.62 498.998 2263.8 478.698 2258.67C458.397 2253.55 440.501 2248.95 438.929 2248.45C437.094 2247.87 436.069 2248.33 436.069 2249.75ZM3614.42 2258.77C3591.46 2264.65 3539.72 2278.36 3499.44 2289.23C3459.16 2300.1 3413.45 2312.17 3397.86 2316.05C3382.26 2319.93 3337.61 2331.73 3298.63 2342.27C3259.65 2352.81 3209.68 2365.99 3187.59 2371.56C3165.5 2377.13 3146.33 2382.03 3144.99 2382.45C3143.64 2382.87 3139.47 2390.83 3135.71 2400.14C3124.55 2427.8 3106.62 2465.2 3086.54 2502.72C3005.33 2654.43 2887.92 2791.21 2751.32 2893.21C2717.04 2918.81 2695.35 2933.85 2671.36 2948.64L2655.2 2958.62L2640.08 3005.2C2607.93 3104.29 2502.28 3422.32 2472.71 3508.99C2463.3 3536.58 2455.12 3561.34 2454.53 3564.01L2453.46 3568.86L2472.85 3563.43C2520.89 3549.98 2590.27 3527.3 2625.32 3513.6C2786.49 3450.57 2927.76 3369.46 3057.59 3265.36C3107.35 3225.47 3143.43 3193.09 3189.25 3147.21C3231.24 3105.15 3258.67 3075.96 3278.13 3052.58C3284.99 3044.35 3296.36 3030.88 3303.42 3022.65C3338.09 2982.21 3416.22 2871.42 3442.24 2825.78C3447.43 2816.68 3458.56 2797.29 3466.98 2782.68C3498.11 2728.67 3538.26 2644.76 3562.64 2582.8C3597.67 2493.76 3613.66 2443.55 3637.27 2348.35C3645.15 2316.58 3658.52 2254.51 3658.52 2249.67C3658.52 2247.25 3662.88 2246.35 3614.42 2258.77Z" fill="#808080"/>
</svg>
