<svg width="4096" height="4096" viewBox="0 0 4096 4096" fill="none" xmlns="http://www.w3.org/2000/svg">
<path fill-rule="evenodd" clip-rule="evenodd" d="M1456.82 86.7106C1434.9 124.118 1417.28 177.728 1410.88 226.5C1407.68 250.909 1408.53 305.757 1412.47 328.875C1420.65 376.878 1440.82 430.346 1464.45 466.687C1475.9 484.3 1496.75 509.838 1512.64 525.707C1527.94 540.986 1562.1 567.427 1564.58 565.9C1565.48 565.342 1582.32 551.693 1602.01 535.57C1621.69 519.445 1649.13 497.071 1662.99 485.849C1676.85 474.627 1692.45 461.772 1697.64 457.281C1702.84 452.792 1715.6 442.328 1725.99 434.03C1754.45 411.31 1756.3 409.6 1753.56 408.601C1752.26 408.129 1744.11 405.158 1735.44 402C1715.28 394.653 1674.21 374.599 1652.08 361.302C1603.04 331.822 1555.06 285.565 1524.18 237.972C1506.02 209.994 1488.52 174.326 1478.07 144.012C1471.76 125.709 1463.76 93.1902 1463.76 85.8349C1463.76 79.1805 1461.03 79.5238 1456.82 86.7106ZM1913.7 419.043C1908.06 423.592 1876.27 449.602 1843.07 476.846C1809.86 504.089 1768.82 537.754 1751.87 551.658C1734.91 565.561 1710.25 585.797 1697.07 596.625C1683.88 607.453 1660.07 626.943 1644.15 639.937C1628.24 652.931 1605.06 671.929 1592.64 682.153C1542.79 723.209 1398.39 841.414 1361.38 871.462C1348.58 881.857 1330.41 896.847 1321 904.772C1311.59 912.697 1298.13 923.683 1291.09 929.185C1284.05 934.686 1270.23 945.968 1260.38 954.255C1250.53 962.541 1225.33 983.311 1204.39 1000.41L1166.31 1031.49L1165.31 1042.04C1163.66 1059.31 1154.19 1136.31 1141.56 1235.29L1129.69 1328.21L1134.83 1332.15C1164.27 1354.73 1271.06 1437.97 1277.12 1443.07C1281.45 1446.72 1290.66 1453.84 1297.59 1458.9C1304.52 1463.97 1318.7 1474.94 1329.09 1483.3C1339.49 1491.65 1357.21 1505.58 1368.47 1514.24C1401.31 1539.52 1479.8 1600.6 1539.36 1647.22C1549.32 1655.02 1565.87 1667.94 1576.14 1675.93C1586.4 1683.92 1605.18 1698.64 1617.87 1708.63C1630.56 1718.63 1655.12 1737.73 1672.44 1751.09C1689.77 1764.44 1711.39 1781.27 1720.48 1788.49C1729.58 1795.71 1739.63 1803.43 1742.83 1805.65L1748.65 1809.68L1760.94 1804.91C1773.38 1800.09 1801.58 1788.15 1818.92 1780.36C1825.71 1777.31 1829.68 1774.26 1833.02 1769.51C1835.58 1765.88 1866.11 1720.39 1900.86 1668.41C1935.6 1616.44 1967.61 1568.6 1971.98 1562.1C1982.42 1546.58 2021.86 1487.44 2046.01 1451.06L2065.21 1422.16L2047.59 1402.62C2037.9 1391.88 2013.31 1364.82 1992.96 1342.5C1972.6 1320.17 1953.58 1299.14 1950.69 1295.76C1947.81 1292.39 1944.73 1289.62 1943.86 1289.62C1942.36 1289.62 1911.05 1310.71 1865 1342.73C1853.51 1350.72 1831.72 1365.68 1816.56 1375.99C1801.4 1386.29 1780.21 1400.84 1769.48 1408.32C1758.74 1415.8 1749.46 1421.92 1748.84 1421.92C1748.23 1421.92 1733.62 1406.55 1716.38 1387.76C1681.55 1349.78 1670.12 1337.39 1652.76 1318.76C1625.51 1289.53 1610.08 1271.97 1610.53 1270.73C1611.04 1269.36 1616.19 1264.52 1683.47 1202.21C1705.92 1181.42 1734.95 1154.44 1747.98 1142.25C1783.37 1109.14 1805.13 1088.95 1833.09 1063.25C1846.95 1050.51 1865.77 1032.98 1874.9 1024.29C1909.56 991.315 1923.61 979.137 1925.61 980.34C1926.7 980.996 1941.7 993.975 1958.94 1009.18C1976.18 1024.39 2003.15 1048.18 2018.88 1062.04C2090.24 1124.93 2144.33 1172.8 2173.03 1198.48C2185.01 1209.19 2200.95 1223.18 2208.46 1229.56C2215.97 1235.94 2232.04 1250.21 2244.17 1261.26C2256.3 1272.31 2272.35 1286.58 2279.85 1292.97C2287.34 1299.36 2302.99 1313.09 2314.62 1323.49C2326.25 1333.88 2346.4 1351.76 2359.39 1363.22C2372.38 1374.69 2384.22 1385.4 2385.69 1387.03C2388.27 1389.87 2385.81 1393.19 2325.82 1467.78C2291.41 1510.56 2250.46 1561.39 2234.81 1580.74C2219.17 1600.08 2198.93 1625.32 2189.83 1636.81C2180.74 1648.3 2168.27 1663.66 2162.13 1670.94C2156 1678.21 2142.52 1694.79 2132.18 1707.79C2121.84 1720.78 2095.7 1753.38 2074.1 1780.24C2052.49 1807.09 2023.36 1843.32 2009.37 1860.75C1995.37 1878.18 1979.59 1897.67 1974.3 1904.06C1969.01 1910.46 1958.11 1923.93 1950.07 1934C1934.18 1953.92 1871.99 2031.04 1796.16 2124.84C1769.7 2157.58 1740.96 2193.44 1732.29 2204.52C1723.63 2215.61 1711.23 2230.93 1704.73 2238.55C1698.23 2246.18 1685.48 2261.84 1676.38 2273.36C1667.29 2284.89 1644.53 2313.31 1625.82 2336.53C1607.1 2359.74 1576.96 2397.16 1558.83 2419.69C1540.69 2442.21 1521.5 2465.95 1516.17 2472.45C1510.84 2478.95 1499.41 2493.12 1490.76 2503.95C1482.12 2514.78 1468.44 2531.79 1460.38 2541.75C1404.65 2610.59 1393.33 2624.67 1392.26 2626.47C1391 2628.56 1398.21 2637.69 1420.49 2662.24C1426.78 2669.17 1438.91 2683.08 1447.45 2693.15C1455.98 2703.22 1470.18 2719.53 1478.99 2729.38C1487.8 2739.23 1499.85 2753.04 1505.76 2760.08C1511.68 2767.11 1526.13 2783.77 1537.87 2797.09C1549.61 2810.41 1587.85 2854.27 1622.83 2894.55C1657.82 2934.83 1693.96 2976.35 1703.14 2986.81L1719.83 3005.84L1727.35 3067.93C1731.49 3102.07 1736.22 3141.35 1737.86 3155.21C1739.5 3169.07 1750.74 3257.67 1762.84 3352.09C1774.94 3446.51 1786.75 3540.06 1789.08 3559.99C1791.41 3579.91 1802.83 3670.99 1814.45 3762.37C1845.4 4005.63 1846.39 4013.24 1847.2 4014.05C1847.61 4014.46 1864.09 4008.21 1883.83 4000.17C1903.57 3992.14 1931.41 3981.11 1945.71 3975.68L1971.69 3965.8L1972.76 3957.41C1973.72 3949.92 1975.74 3929.24 1980.39 3879.71C1981.2 3871.05 1985.44 3830.3 1989.82 3789.15C1997.21 3719.62 2002.1 3674.22 2025.24 3459.97C2030.06 3415.36 2034.71 3370 2035.59 3359.17C2037.17 3339.51 2045.79 3256.6 2057.51 3148.12C2060.93 3116.51 2066.97 3060.68 2070.93 3024.06L2078.12 2957.49L2053.26 2924.96C2039.58 2907.07 2023.1 2885.64 2016.62 2877.35C2010.15 2869.05 1996.29 2850.92 1985.83 2837.06C1975.37 2823.2 1959.37 2802.29 1950.27 2790.6C1929.65 2764.08 1888.32 2710.05 1861.85 2675.02L1841.75 2648.42L1852.34 2636.43C1869.16 2617.39 1874.67 2611.19 1914.79 2566.16C1935.64 2542.77 1978.54 2494.58 2010.13 2459.06C2041.73 2423.55 2073.65 2387.75 2081.08 2379.52C2088.51 2371.3 2099.54 2358.9 2105.59 2351.99C2111.64 2345.07 2124.39 2330.84 2133.92 2320.36C2143.45 2309.89 2155.41 2296.41 2160.49 2290.41C2165.58 2284.42 2176.98 2271.72 2185.83 2262.19C2194.68 2252.66 2206.08 2239.9 2211.16 2233.84C2216.24 2227.77 2228.22 2214.3 2237.79 2203.91C2247.36 2193.51 2259.78 2179.69 2265.38 2173.19C2270.98 2166.7 2282.04 2154.3 2289.95 2145.64C2297.86 2136.97 2310.29 2123.1 2317.56 2114.81C2324.84 2106.52 2356.64 2070.73 2388.23 2035.27C2482.32 1929.69 2533.91 1871.74 2561.31 1840.87C2575.53 1824.85 2591.55 1807.13 2596.89 1801.5C2602.24 1795.87 2609.13 1788.07 2612.21 1784.17C2615.29 1780.28 2626.59 1767.57 2637.32 1755.94C2648.04 1744.31 2661.3 1729.43 2666.78 1722.87C2672.25 1716.31 2683.98 1703.14 2692.84 1693.61C2701.69 1684.08 2715.64 1668.52 2723.83 1659.02C2732.02 1649.52 2743.68 1636.4 2749.74 1629.86C2755.81 1623.32 2765.6 1612.53 2771.5 1605.88L2782.24 1593.8L2791.8 1548.42C2798.85 1514.93 2801.3 1500.15 2801.12 1492.01C2801 1485.95 2798.42 1434.56 2795.4 1377.82C2787.88 1236.54 2778.89 1062.07 2778.83 1056.01C2778.78 1051.51 2777.25 1049.92 2763.47 1040.08C2755.05 1034.06 2738.25 1021.48 2726.12 1012.11C2713.99 1002.74 2670.75 970.098 2630.02 939.568C2589.3 909.04 2552.45 881.367 2548.12 878.074C2543.8 874.781 2529.28 863.828 2515.86 853.736C2502.43 843.641 2451.81 805.583 2403.36 769.161C2354.92 732.738 2309.56 698.781 2302.56 693.701C2295.57 688.62 2282.4 678.656 2273.31 671.557C2256.65 658.559 2109.79 548.176 2074.08 521.812C2063.52 514.016 2046.44 501.092 2036.12 493.091C2001.88 466.531 1926.9 410.775 1925.42 410.775C1924.61 410.775 1919.34 414.495 1913.7 419.043ZM2956.86 1245.8C3026.59 1310.95 3066.34 1351.21 3114.45 1405.38C3228.05 1533.29 3325.71 1676.6 3392.45 1813.31C3422.42 1874.72 3435.82 1906.19 3456.49 1963.72C3481.66 2033.81 3496.74 2085.17 3511.28 2150.36C3540.06 2279.34 3551.3 2380 3551.3 2508.67C3551.3 2637.4 3539.91 2742.2 3511.98 2870.45C3472.93 3049.77 3402.59 3222.81 3317.46 3348.94C3311.62 3357.6 3303.77 3368.94 3300.02 3374.14L3293.2 3383.59L3304.18 3374.97C3310.23 3370.23 3321.9 3361.07 3330.13 3354.62C3364.32 3327.79 3413.61 3282.01 3449.32 3243.91C3477.05 3214.33 3516.91 3168.98 3523.81 3159.15C3525.94 3156.12 3535.94 3143.01 3546.03 3130.01C3575.45 3092.12 3614.76 3031.73 3640.87 2984.32C3694.5 2886.93 3733.54 2785.5 3755.17 2687.44C3768.29 2627.92 3774.45 2588.72 3780.03 2529.15C3783.91 2487.81 3783.91 2389.17 3780.03 2346.45C3770.99 2246.72 3751.83 2148.48 3724.55 2061.84C3712.48 2023.51 3690.97 1962.8 3681.41 1940.07C3631.94 1822.48 3559.11 1713.05 3457.17 1603.18C3337.73 1474.45 3162.67 1345.39 2987.44 1256.88C2971.78 1248.97 2956.9 1241.75 2954.37 1240.84C2950.16 1239.31 2950.37 1239.74 2956.86 1245.8ZM930.431 1400.93C861.421 1449 814.623 1488.49 753.187 1550.51C718.934 1585.09 702.434 1603.06 672.542 1638.34C645.683 1670.05 604.941 1722.91 586.218 1750.34C579.721 1759.85 567.628 1777.57 559.342 1789.7C510.785 1860.82 443.913 1985.3 411.273 2065.31C381.567 2138.13 373.158 2161.83 357.351 2217.3C325.206 2330.1 313.56 2405.79 313.733 2500.8C313.929 2607.82 327.327 2703.73 357.518 2814.22C372.95 2870.7 384.117 2902.79 409.586 2963.85C450.566 3062.09 505.606 3156.67 574.572 3247.35C727.388 3448.29 935.433 3609.05 1181.83 3716.59C1189.19 3719.81 1202.24 3727.3 1210.83 3733.25C1223.68 3742.16 1225.91 3744.27 1223.43 3745.22C1221.77 3745.86 1195.61 3749.62 1165.29 3753.59C1134.97 3757.56 1083.59 3764.32 1051.11 3768.62C1018.62 3772.92 971.844 3778.97 947.156 3782.06C897.313 3788.32 619.567 3825.22 617.385 3825.88C616.625 3826.11 635.052 3828.56 658.335 3831.33C681.619 3834.09 736.106 3840.58 779.418 3845.74C822.731 3850.9 875.293 3856.93 896.225 3859.15C930.735 3862.81 998.425 3870.77 1257.43 3901.66C1304.64 3907.29 1351.06 3912.62 1360.59 3913.52C1377.34 3915.09 1579.74 3938.84 1681.11 3951.13C1708.39 3954.44 1730.83 3957.09 1730.98 3957.02C1731.12 3956.95 1726.73 3921.8 1721.22 3878.92C1702.36 3732.02 1693.83 3663.93 1692.92 3652.91C1692.42 3646.85 1683.55 3575.97 1673.21 3495.41C1650.14 3315.72 1637.48 3215.19 1636.22 3201.67C1635.14 3190.16 1621.75 3082.33 1620.44 3074.66C1619.72 3070.41 1618.77 3069.56 1613.74 3068.64C1591.02 3064.51 1518.53 3040.83 1485.39 3026.71C1461.27 3016.45 1408.83 2989.98 1385.79 2976.44C1369.45 2966.85 1334.29 2943.16 1312.56 2927.12C1287.59 2908.69 1262.74 2887.22 1234.75 2859.9C1157.1 2784.12 1099.7 2701.11 1060.12 2607.34C1016.98 2505.15 998.999 2416.68 999.079 2307.05C999.158 2198.01 1015.77 2112.74 1055.9 2015.43C1069.54 1982.35 1077.97 1964.29 1089.59 1943.25C1105.49 1914.47 1131.33 1873.92 1148.05 1851.51C1156.94 1839.6 1163.73 1829.85 1163.14 1829.85C1161.24 1829.85 1128.52 1848.47 1118.4 1855.31C1061.25 1893.94 1004.34 1943.53 956.8 1996.12C898.373 2060.75 852.079 2128.91 811.928 2209.42C781.293 2270.85 761.744 2321.12 741.788 2389.76C711.353 2494.46 697.629 2593.4 695.63 2722.48C695.116 2755.61 694.132 2782.72 693.442 2782.72C691.881 2782.72 678.127 2740.93 671.669 2716.57C660.681 2675.12 646.419 2600.28 640.155 2551.2C614.941 2353.62 632.964 2135.55 691.166 1933.98C702.228 1895.67 725.834 1825.26 739.275 1790.47C750.898 1760.4 781.078 1690.1 794.723 1661.32C827.067 1593.11 884.82 1491.69 929.654 1424.39C957.127 1383.14 955.533 1385.7 953.739 1385.7C952.944 1385.7 942.454 1392.55 930.431 1400.93ZM2932.87 1603.84L2923.98 1648.78L2917.18 1656.38C2913.45 1660.57 2902.84 1672.43 2893.6 1682.74C2884.36 1693.05 2872.67 1706.16 2867.61 1711.87C2854.62 1726.54 2770.01 1821.32 2763.52 1828.47L2759.77 1832.61L2773.07 1859.19C2800.67 1914.33 2818.61 1956.13 2842.62 2021.21C2873.95 2106.13 2895.55 2199.06 2905.95 2293.75C2908.11 2313.41 2908.7 2332.26 2908.69 2380.31C2908.67 2433.76 2908.22 2445.42 2905.21 2470.09C2896.72 2539.87 2880.53 2605.66 2857.19 2665.25C2846.83 2691.71 2819.22 2746.4 2803.45 2771.7C2780.3 2808.84 2732.01 2868.79 2728.26 2865.04C2727.54 2864.31 2727.97 2857.37 2729.22 2849.61C2740.38 2780.06 2747.1 2684.33 2745.12 2622.86C2742.97 2555.93 2738.41 2509.61 2727.52 2444.1C2716.82 2379.75 2706.37 2337.87 2686.25 2278.72C2661.5 2206.01 2644.48 2166.93 2608.57 2100.37C2597.22 2079.34 2571.72 2039.41 2573.09 2044.84C2573.53 2046.57 2577.52 2058.62 2581.96 2071.61C2597.35 2116.67 2612.82 2180.92 2619.11 2225.96C2623.13 2254.73 2623.93 2319.83 2620.68 2354.32C2612.65 2439.71 2592.18 2523.69 2562.12 2594.58C2525.47 2681.01 2479.92 2753.41 2418.9 2822.2C2399.95 2843.57 2359.16 2883.35 2337.88 2901.22C2301.35 2931.91 2248.21 2968.58 2211.09 2988.72C2199.83 2994.83 2190.15 3000.77 2189.59 3001.92C2189.02 3003.07 2183.83 3049.02 2178.07 3104.02C2172.3 3159.03 2160.93 3265.7 2152.81 3341.06C2144.68 3416.43 2137.26 3486.95 2136.32 3497.77C2133.2 3533.56 2090.07 3939.81 2088.23 3950.7L2087.42 3955.54L2110.67 3952.78C2123.46 3951.27 2170.06 3945.7 2214.24 3940.41C2337.48 3925.66 2397.12 3918.73 2431.59 3915.15C2448.92 3913.36 2533.97 3903.43 2620.59 3893.09C2812.02 3870.24 2892 3860.85 2915.91 3858.41C2932.47 3856.73 3040.08 3844.16 3147.2 3831.4C3170.89 3828.58 3189.67 3826.09 3188.94 3825.88C3187.3 3825.4 2899.82 3787.17 2871.02 3783.61C2851.37 3781.17 2648.46 3754.52 2603.66 3748.49C2591.75 3746.89 2581.6 3745.17 2581.1 3744.67C2580.6 3744.17 2584.67 3740.74 2590.15 3737.05C2600.4 3730.16 2649.23 3694.78 2670.17 3679.07C2676.65 3674.21 2699.33 3656.34 2720.57 3639.35C2829.93 3551.91 2912.2 3471.48 2987.81 3378.07C2995.87 3368.11 3010.71 3350.75 3020.78 3339.49C3071.03 3283.3 3129.68 3203.23 3169.03 3137.1C3211.53 3065.67 3253.13 2975.48 3281.27 2893.76C3289.69 2869.31 3307.57 2803.93 3315.72 2767.76C3355.19 2592.72 3354.97 2412.53 3315.08 2245.91C3306.47 2209.95 3289.64 2152.2 3281.03 2129.1C3248.34 2041.43 3208.44 1963 3158.65 1888.59C3151.58 1878.02 3136.75 1854.99 3125.7 1837.41C3068.61 1746.55 2946.35 1560.56 2942.91 1559.32C2942.28 1559.09 2937.76 1579.13 2932.87 1603.84Z" fill="#808080"/>
</svg>
