<svg width="4096" height="4096" viewBox="0 0 4096 4096" fill="none" xmlns="http://www.w3.org/2000/svg">
<path fill-rule="evenodd" clip-rule="evenodd" d="M2277.58 261.985C2245.34 254.8 2206.87 249.168 2160.28 244.808C2129.24 241.904 2002.89 240.501 1972.85 242.726C1901.03 248.05 1807.42 261.933 1804.4 267.712C1803.16 270.079 1789.21 338.261 1779.35 390.138C1776.69 404.154 1763.94 467.233 1751.02 530.314C1738.1 593.394 1726.65 650.42 1725.57 657.036C1724.5 663.655 1723.13 669.86 1722.53 670.827C1721.93 671.794 1709.44 675.784 1694.76 679.693C1608.68 702.626 1574.7 714.256 1487.64 750.577C1443.62 768.939 1368.36 807.339 1328 832.022C1313.09 841.144 1306.93 844.127 1304.97 843.178C1303.49 842.464 1294.23 836.319 1284.38 829.523C1251.12 806.578 965.68 617.661 962.331 616.376C959.599 615.329 921.982 639.875 897.127 658.923C797.9 734.975 707.487 829.318 635.317 932.118C625.157 946.589 616.83 959.139 616.813 960.005C616.781 961.452 675.425 1050.55 742.928 1151.61C791.32 1224.06 845.152 1305.49 845.152 1306.23C845.152 1306.62 839.225 1316.77 831.98 1328.77C809.862 1365.43 772.469 1437.54 757.67 1472.07C720.597 1558.57 704.354 1605.4 680.474 1694.63C676.666 1708.86 672.746 1721 671.765 1721.6C670.782 1722.21 664.564 1723.59 657.946 1724.66C651.329 1725.74 606.224 1734.73 557.714 1744.64C509.204 1754.55 446.48 1767.22 418.327 1772.79C390.173 1778.36 345.168 1787.27 318.314 1792.6C291.46 1797.93 268.677 1803.07 267.683 1804.03C264.435 1807.18 255.38 1853.38 250.669 1890.83C244.073 1943.3 242.854 1966.78 242.783 2042.82C242.716 2116.96 243.276 2129.2 249.129 2181.42C253.566 2220.99 264.394 2287.53 267.021 2291.35C267.838 2292.54 325.857 2304.58 389.977 2316.86C404.27 2319.6 467.348 2332.33 530.152 2345.15C592.955 2357.97 649.89 2369.37 656.673 2370.47C663.456 2371.58 670.262 2373.61 671.798 2374.99C673.435 2376.47 676.671 2385.63 679.633 2397.19C700.209 2477.48 716.817 2526.11 753.187 2612.54C773.546 2660.92 815.836 2741.94 843.545 2785.63C845.511 2788.73 843.815 2791.78 821.221 2825.8C619.041 3130.16 616.079 3134.47 617.204 3136.43C617.265 3136.54 617.339 3136.64 617.393 3136.78C619.189 3141.46 640.179 3172.58 654.487 3191.78C688.74 3237.74 722.457 3276.21 771.13 3324.87C807.796 3361.52 832.621 3383.69 874.207 3416.93C908.506 3444.34 957.4 3479.22 961.525 3479.22C963.023 3479.22 1079.83 3402.56 1114.48 3378.84C1120.11 3374.99 1153.77 3352.61 1189.29 3329.11C1224.81 3305.61 1265.87 3278.31 1280.56 3268.43C1304.8 3252.12 1307.54 3250.66 1310.48 3252.54C1327.92 3263.68 1350 3276.62 1368 3286.25C1485.56 3349.15 1580.57 3386.42 1705.46 3418.62C1716.93 3421.58 1722.6 3423.79 1723.12 3425.5C1723.54 3426.89 1725.35 3436.37 1727.12 3446.57C1728.9 3456.77 1740.21 3513.11 1752.26 3571.78C1764.31 3630.45 1776.47 3690.5 1779.27 3705.23C1787.32 3747.47 1803.86 3828.93 1804.52 3829.56C1805.98 3830.97 1843.68 3838.5 1867.33 3842.11C1931.67 3851.93 1978.69 3854.69 2063.3 3853.61C2130.2 3852.75 2149.62 3851.5 2204.38 3844.52C2234.73 3840.64 2291.25 3830.86 2292.77 3829.22C2293.35 3828.59 2298.21 3805.75 2303.57 3778.47C2308.92 3751.18 2324.71 3672.86 2338.64 3604.43C2352.57 3536 2366.23 3467.74 2368.99 3452.76C2371.75 3437.77 2374.67 3424.84 2375.5 3424.02C2376.32 3423.2 2390.37 3418.95 2406.72 3414.57C2490.62 3392.12 2533.79 3377.15 2618.08 3341.26C2658.95 3323.86 2734.24 3285.05 2771.87 3261.99L2790.48 3250.59L2801.8 3258.41C2803.57 3259.63 2805.01 3260.63 2806.44 3261.62C2816.41 3268.48 2826.5 3275.17 2950.14 3357.27C3015.11 3400.41 3083.54 3445.74 3102.22 3458.01L3136.17 3480.3L3153.4 3469.36C3204.84 3436.71 3280.83 3372.43 3338.38 3312.89C3385.23 3264.42 3427.63 3212.94 3463.96 3160.43L3481.29 3135.38L3466.8 3113.18C3446.81 3082.53 3286.6 2841.13 3267.36 2812.65L3251.7 2789.47L3265.66 2766.19C3281.12 2740.43 3311.03 2684.3 3326.53 2651.98C3340.06 2623.79 3365.77 2561.42 3380.22 2521.77C3391.83 2489.9 3404.99 2446.48 3417.17 2399.79C3420.56 2386.81 3424.02 2375.5 3424.86 2374.65C3425.71 2373.81 3437.25 2371.12 3450.51 2368.68C3463.77 2366.24 3522.81 2354.35 3581.71 2342.25C3640.62 2330.14 3699.09 2318.31 3711.65 2315.94C3724.21 2313.56 3756.11 2307.29 3782.53 2301.99L3830.56 2292.35L3833.25 2281.38C3837.08 2265.72 3843.52 2229.38 3846.21 2208.19C3853.42 2151.53 3854.15 2137.26 3854.17 2052.27C3854.18 1965.42 3853.52 1953.22 3845.42 1890.51C3842.21 1865.66 3831.82 1804.94 3830.57 1803.69C3829.77 1802.88 3752.92 1787.2 3717.95 1780.7C3705.39 1778.36 3641.71 1765.46 3576.43 1752.03C3511.15 1738.6 3451.26 1726.57 3443.34 1725.31C3435.42 1724.04 3427.78 1722.65 3426.36 1722.21C3424.63 1721.68 3422.67 1716.93 3420.36 1707.69C3408.21 1659 3389.7 1598.25 3375.39 1560.08C3367.11 1537.99 3338.37 1468.3 3330.78 1451.92C3315.52 1418.95 3273.4 1340.7 3256.7 1314.3L3251.68 1306.36L3301.14 1231.62C3328.35 1190.51 3359.94 1143.06 3371.35 1126.17C3382.76 1109.28 3412.21 1065.07 3436.8 1027.93L3481.5 960.414L3477.41 953.91C3421.8 865.437 3326.96 761.849 3230.83 684.575C3196.22 656.759 3144.77 619.202 3137.38 616.368C3137.17 616.284 3137.14 616.095 3137.03 615.978C3135.96 614.799 3126.66 621.109 2826.71 820.318C2792.64 842.94 2789.65 844.603 2786.54 842.622C2713.75 796.15 2610.35 747.155 2509.49 711.341C2485.9 702.963 2416.32 682.674 2389.65 676.398C2381.04 674.369 2376.64 672.503 2375.22 670.268C2374.1 668.501 2372 659.967 2370.56 651.305C2369.12 642.642 2356.33 578.812 2342.14 509.459C2327.94 440.107 2314.84 374.902 2313.03 364.559C2311.21 354.217 2306.03 327.694 2301.51 305.621L2293.29 265.488L2277.58 261.985ZM1958.68 893.151C1972.1 892.203 1985.92 891.207 1989.39 890.938C2005.37 889.692 2094.46 890.097 2117.75 891.521C2205.94 896.91 2280.06 909.915 2373.85 936.459C2426.3 951.302 2461.41 964.229 2522.53 991.19C2560.35 1007.88 2582.6 1019.25 2625.69 1043.92C2756.15 1118.62 2872.47 1220.25 2966.81 1341.95C2980.35 1359.42 3016.02 1410.15 3026.05 1426.2C3067 1491.73 3096.89 1550.55 3126.63 1624.12C3155.13 1694.65 3180.05 1786.88 3193.37 1871.14C3202.38 1928.16 3206.14 1980.26 3206.11 2047.82C3206.08 2120.8 3201.87 2173.96 3191.11 2237.4C3176.76 2322 3153.1 2406.6 3123.74 2478.3C3098.52 2539.89 3079.13 2579.27 3046.84 2634.51C3025.35 2671.27 3020.31 2679 2991.66 2719.28C2954.27 2771.84 2921.92 2810.34 2875.36 2857.66C2841.47 2892.1 2816.33 2915.36 2784.76 2941.47C2666.47 3039.31 2522.41 3116.06 2379.6 3157.33C2295.72 3181.57 2225.87 3194.85 2142.95 3202.32C2111.86 3205.12 1986.57 3205.1 1954.74 3202.29C1843.11 3192.43 1728.62 3166.14 1630.99 3127.95C1503.74 3078.18 1395.17 3012.45 1286.15 2919.16C1260.93 2897.59 1197.66 2834 1174.68 2807.14C1083.56 2700.63 1021.74 2598.45 969.536 2468.07C942.628 2400.86 918.165 2310.79 905.159 2231.03C896.008 2174.91 892.495 2134.02 891.357 2070.38C889.152 1946.99 901.59 1851.21 935.731 1728.72C951.324 1672.78 964.915 1635.41 991.855 1574.43C1011.79 1529.3 1046.23 1465.2 1072.87 1423.63C1091.98 1393.83 1127.43 1345.3 1152.07 1315.22C1222.29 1229.5 1294.6 1162.83 1391.68 1094.28C1457.39 1047.88 1539.38 1004.13 1624.74 969.902C1724.62 929.856 1851.37 900.723 1958.68 893.151ZM1916.06 1106.48C1917.9 1096.95 1921.76 1077.99 1924.66 1064.35L1929.93 1039.54L1923.43 1039.81C1896.48 1040.91 1834.56 1052.77 1784.53 1066.42C1751.47 1075.44 1684.8 1098.07 1658.64 1109.15C1629.01 1121.7 1567.32 1152.38 1542.09 1167.1C1514.15 1183.41 1471.29 1211.17 1452.73 1224.97C1336.24 1311.58 1245.55 1411.25 1173.56 1531.78C1156.74 1559.95 1125.35 1621.96 1111.67 1654.02C1100.32 1680.63 1079.95 1739.6 1069.85 1775.07C1056.56 1821.74 1044.05 1882.95 1041.11 1915.72L1040 1928.02L1043.77 1927.13C1045.23 1926.79 1050.87 1925.47 1057.85 1923.83L1067.23 1921.63C1078.05 1919.08 1094.36 1915.5 1103.45 1913.65C1130.21 1908.24 1187.63 1894.65 1188.67 1893.48C1189.2 1892.89 1190.86 1886.03 1192.36 1878.23C1201.28 1831.88 1225.28 1753.25 1243.56 1710.49C1255.38 1682.83 1286.55 1621.39 1300.28 1598.67C1314.71 1574.79 1345.9 1530.08 1363.73 1507.7C1430.24 1424.23 1511.21 1352.82 1600.36 1299.01C1628.77 1281.87 1696.68 1248.16 1725.76 1236.76C1770.77 1219.12 1828.61 1201.99 1878.35 1191.56C1889.18 1189.29 1898.5 1186.94 1899.06 1186.33C1900.04 1185.28 1908.99 1143.26 1916.06 1106.48ZM2373.44 1085.44C2308.76 1063.79 2246.94 1048.64 2196.03 1041.98C2185.8 1040.64 2175.27 1039.54 2172.62 1039.54C2168.23 1039.54 2167.86 1039.93 2168.53 1043.87C2172.23 1065.56 2197.39 1185.85 2198.45 1186.91C2198.76 1187.23 2209.59 1189.69 2222.51 1192.37C2274.44 1203.18 2341.78 1223.87 2385.71 1242.53C2411.65 1253.55 2461.87 1278.58 2487.17 1293.11C2505.87 1303.85 2549.44 1332.91 2572.14 1349.77C2608.05 1376.46 2657.1 1420.56 2686.62 1452.7C2748.47 1520.04 2791.22 1582.04 2831.2 1662.42C2857.08 1714.46 2872.28 1753.79 2888.62 1811.04C2895.76 1836.08 2906.81 1882.65 2906.85 1887.94C2906.86 1889.53 2907.39 1891.64 2908.03 1892.63C2908.67 1893.62 2926.55 1898.38 2947.78 1903.21C3029.07 1921.7 3056.94 1927.88 3057.31 1927.47C3057.51 1927.24 3057.11 1922.8 3056.4 1917.6C3055.7 1912.41 3054.33 1901.78 3053.35 1893.98C3045.37 1830.01 3014.16 1720.25 2984.39 1651.43C2970.26 1618.77 2940.79 1560.29 2925.42 1534.41C2873.25 1446.56 2812.19 1371.01 2736.73 1300.95C2720.7 1286.07 2704.05 1271.21 2699.71 1267.93C2695.38 1264.66 2681.92 1254.05 2669.79 1244.36C2626.03 1209.39 2563.82 1169.97 2507.93 1141.78C2456.66 1115.93 2425.44 1102.85 2373.44 1085.44ZM2086.36 1287.6C2085.41 1282.41 2080.22 1257.07 2074.85 1231.3L2065.07 1184.44H2048.84C2037.25 1184.44 2032.42 1185.01 2031.95 1186.41C2031.23 1188.6 2013.41 1274.53 2009.83 1293.12C2008.58 1299.61 1996.24 1357.73 1982.42 1422.27C1968.6 1486.8 1956.25 1545.63 1954.98 1552.99C1949.19 1586.37 1917.28 1730.42 1912.89 1742.97C1905.58 1763.88 1895.24 1784.87 1883.51 1802.56C1871.38 1820.88 1843.26 1849.53 1823.35 1863.87C1806.97 1875.67 1781.95 1888.64 1764.02 1894.64C1750.53 1899.15 1555.08 1945.78 1519.25 1953.03C1510.16 1954.87 1454.78 1967.64 1396.18 1981.41C1337.59 1995.17 1279.12 2008.62 1266.24 2011.29C1253.37 2013.96 1228.66 2019.5 1211.34 2023.6L1179.84 2031.06L1178.95 2064.23L1217.98 2073.17C1239.45 2078.08 1269.77 2084.91 1285.36 2088.34C1300.96 2091.77 1357.66 2104.84 1411.36 2117.38C1465.07 2129.93 1517.87 2142.09 1528.7 2144.41C1561.89 2151.51 1741.24 2193.84 1756.12 2198.08C1786.04 2206.62 1818.41 2225.34 1845.75 2249.95C1878.48 2279.4 1899.43 2311.98 1913.73 2355.67C1918.85 2371.32 1944.72 2488.4 1954.75 2541.3C1957.04 2553.43 1969.19 2611.2 1981.74 2669.67C1994.29 2728.14 2009.13 2798.66 2014.72 2826.38C2020.3 2854.1 2026.49 2884.22 2028.47 2893.32L2032.06 2909.85L2065.16 2910.74L2074.15 2867.77C2079.1 2844.14 2084.96 2815.59 2087.18 2804.33C2089.4 2793.07 2102.37 2731.41 2116.02 2667.3C2129.66 2603.2 2142.4 2542.6 2144.33 2532.64C2153.91 2483.21 2179.67 2367.02 2183.89 2354.22C2193.89 2323.92 2213.38 2289.97 2233.51 2267.76C2242.23 2258.14 2261.67 2240.51 2271.86 2232.99C2291.29 2218.64 2322.64 2202.75 2341.29 2197.8C2355.77 2193.96 2540.38 2150.6 2565.84 2145.06C2578.83 2142.23 2641.91 2127.71 2706.01 2112.78C2770.12 2097.86 2825.04 2085.19 2828.08 2084.64C2831.11 2084.08 2852.55 2079.28 2875.72 2073.97L2917.85 2064.31L2917.84 2031L2882.01 2022.71C2862.31 2018.15 2839.1 2012.96 2830.44 2011.17C2821.78 2009.39 2767.91 1996.93 2710.74 1983.5C2653.57 1970.06 2595.45 1956.71 2581.59 1953.82C2548.34 1946.9 2356.96 1901.81 2339.83 1896.86C2292.77 1883.28 2242.62 1845.35 2212.31 1800.42C2202.72 1786.2 2188.21 1755.07 2182.5 1736.48C2178.02 1721.87 2149.09 1589.42 2141.38 1548.27C2139.52 1538.31 2126.77 1477.71 2113.05 1413.6C2099.33 1349.5 2087.32 1292.8 2086.36 1287.6ZM1836.59 1485.27C1845.76 1442.39 1853.57 1406.42 1853.95 1405.34C1854.98 1402.36 1852.42 1402.94 1831.89 1410.33C1766.97 1433.71 1724.23 1455.14 1669.97 1491.52C1581.71 1550.71 1504.04 1637.67 1451.66 1735.97C1438.82 1760.06 1406.28 1839.09 1407.73 1842.65C1408 1843.3 1446.37 1834.86 1493 1823.9L1577.79 1803.95L1588.09 1785.97C1613.11 1742.27 1638.32 1709.87 1677 1671.71C1711.47 1637.71 1713.16 1636.3 1752.91 1608.41C1765.47 1599.6 1793.31 1582.97 1807.2 1575.97C1814.82 1572.13 1818.39 1569.38 1819.02 1566.85C1819.51 1564.86 1827.42 1528.15 1836.59 1485.27ZM2352.72 1446.82C2332.79 1436.82 2290.27 1419.07 2266.08 1410.66C2254.53 1406.65 2244.79 1403.37 2244.42 1403.37C2243.2 1403.37 2243.7 1406.09 2251.67 1443.05C2256.03 1463.24 2263.97 1500.2 2269.32 1525.18L2279.05 1570.61L2291.72 1576.94C2318.12 1590.14 2345.81 1608.19 2382.35 1636.03C2397.52 1647.58 2448.15 1698.28 2459.87 1713.64C2485.71 1747.51 2499.74 1768.27 2511.52 1790.03C2515.27 1796.96 2518.55 1802.91 2518.81 1803.24C2519.34 1803.92 2690.09 1844.27 2690.54 1843.82C2691.14 1843.23 2672.18 1793.75 2665.1 1777.43C2615.53 1663.17 2528.96 1559.4 2425.66 1490.45C2401.52 1474.33 2370.24 1455.63 2352.72 1446.82ZM1133.38 2188.5C1115.62 2184.56 1088.33 2178.47 1072.74 2174.98C1057.15 2171.48 1043.41 2168.3 1042.21 2167.9C1039.24 2166.92 1040.86 2184.85 1046.93 2220C1058.8 2288.85 1084.65 2377.41 1111.06 2439.72C1161.85 2559.55 1238.9 2674.14 1329.79 2765.03C1438.02 2873.26 1572.87 2958.19 1712.71 3006.2C1773.92 3027.21 1824.85 3040.72 1875.2 3049.31C1892.49 3052.26 1929.13 3057.11 1929.77 3056.54C1929.9 3056.42 1926.22 3037.9 1921.58 3015.38C1916.95 2992.86 1910.11 2959.55 1906.38 2941.35L1899.61 2908.28L1875.99 2903.35C1826.62 2893.06 1764.98 2874.54 1720.85 2856.74C1698.01 2847.53 1646.56 2822.52 1619.26 2807.35C1568.36 2779.07 1508.86 2735.57 1457.33 2688.96C1399.03 2636.23 1333.29 2554.37 1293.22 2484.6C1281.55 2464.28 1252.23 2405.66 1243.6 2385.38C1224.94 2341.56 1204.23 2274.1 1193.32 2221.61L1189.08 2201.17L1177.37 2198.43C1170.93 2196.92 1151.13 2192.45 1133.38 2188.5ZM3005.81 2388.23C3033.3 2308.63 3049.48 2240.85 3056.98 2173.94C3057.39 2170.25 3057.26 2167.31 3056.7 2167.4C3056.13 2167.49 3053.54 2168.11 3050.94 2168.78C3048.34 2169.45 3028.14 2174.02 3006.05 2178.93C2940.67 2193.47 2910.85 2200.55 2909.46 2201.86C2908.74 2202.53 2906.07 2212.92 2903.52 2224.93C2892.99 2274.65 2871.62 2343.32 2853.33 2386.17C2841.84 2413.12 2812.17 2471.6 2798.16 2494.92C2784.88 2517.04 2750.35 2567 2734.71 2586.74C2693.15 2639.17 2643.33 2689.14 2590.78 2731.11C2568.52 2748.89 2519.6 2782.97 2495.75 2797.31C2473.81 2810.51 2408.55 2843.49 2384.07 2853.75C2335.82 2873.98 2247.46 2900.09 2204.84 2906.72C2200.61 2907.37 2197.94 2908.7 2197.46 2910.38C2195.56 2917.04 2169.83 3042.92 2168.56 3051.75C2167.91 3056.3 2168.15 3056.58 2172.34 3056.08C2250 3046.88 2309.07 3032.8 2393.2 3003.44C2430.26 2990.51 2457.63 2978.64 2503.82 2955.49C2563.37 2925.63 2623.87 2887.72 2667.43 2852.96C2679.12 2843.63 2691.88 2833.61 2695.78 2830.69C2719.89 2812.65 2800.7 2732.85 2824.55 2703.53C2883.97 2630.47 2920.09 2575.48 2956.95 2501.93C2980.75 2454.46 2991.92 2428.46 3005.81 2388.23ZM2605.53 2425.54C2641.22 2372.06 2663.53 2327.72 2684.89 2267.86C2688.25 2258.43 2690.83 2250.79 2690.63 2250.88C2690.43 2250.96 2652.7 2259.86 2606.79 2270.64C2560.88 2281.42 2522.36 2290.74 2521.19 2291.37C2520.02 2291.99 2514.78 2299.93 2509.55 2309.01C2497.61 2329.72 2488.39 2343.49 2468.42 2370.42C2446.57 2399.88 2400.51 2445.96 2371.33 2467.55C2337.39 2492.66 2306.58 2512.17 2284.6 2522.45L2278.98 2525.07L2261.98 2604.85C2252.63 2648.73 2244.63 2686.22 2244.2 2688.17C2243.74 2690.24 2244.16 2691.72 2245.21 2691.72C2251.41 2691.72 2322.23 2663.47 2350.2 2649.84C2367.45 2641.44 2407.06 2617.74 2430.58 2601.76C2496.46 2557 2561.57 2491.42 2605.53 2425.54ZM1572.8 2290.23C1569.77 2289.44 1532.17 2280.59 1489.25 2270.55C1412.21 2252.53 1407.43 2251.51 1407.43 2253.11C1407.43 2255.69 1423.32 2297.09 1432.12 2317.42C1445.57 2348.5 1450.85 2358.93 1466.12 2384.59C1529.25 2490.7 1603.2 2564.88 1709.83 2629.06C1741.97 2648.4 1776.87 2664.67 1823.42 2682C1850.96 2692.25 1853.15 2692.8 1853.15 2689.46C1853.15 2685.98 1818.8 2526.52 1817.64 2524.66C1817.15 2523.85 1816.1 2523.19 1815.32 2523.19C1813.04 2523.19 1779.55 2504.58 1765.33 2495.41C1711.84 2460.92 1656.97 2410.01 1624.69 2364.9C1610.23 2344.7 1592.57 2317.57 1585.4 2304.54C1579.24 2293.33 1577.6 2291.46 1572.8 2290.23Z" fill="#808080"/>
</svg>
