<svg width="4096" height="4096" viewBox="0 0 4096 4096" fill="none" xmlns="http://www.w3.org/2000/svg">
<path fill-rule="evenodd" clip-rule="evenodd" d="M2007.38 208.475C1961.35 277.466 1928.42 327.694 1899.33 373.259C1888.54 390.151 1874.06 412.831 1867.15 423.659C1854.25 443.873 1813.91 508.632 1783.77 557.534C1759.8 596.414 1689.46 713.49 1681.57 727.634C1677.94 734.131 1664.7 757.165 1652.13 778.821C1624.72 826.065 1592.08 883.603 1577.98 909.546C1572.33 919.941 1561.13 940.495 1553.09 955.221C1526.1 1004.69 1457.09 1136.89 1457.09 1139.12C1457.09 1139.65 1447.82 1159.08 1436.49 1182.31C1410.99 1234.61 1383.07 1296.31 1355.28 1361.76L1349.18 1376.13L1337.53 1359.4C1331.13 1350.2 1317.02 1329.56 1306.18 1313.53C1295.34 1297.51 1281.62 1277.56 1275.68 1269.21L1264.89 1254.03L1246.41 1253.03C1236.24 1252.48 1181.86 1250.27 1125.55 1248.11C1069.24 1245.96 969.376 1242.07 903.623 1239.47C837.868 1236.88 783.866 1234.95 783.619 1235.2C782.25 1236.57 776.659 1308.61 773.257 1368.66C770.688 1414.02 770.708 1613.58 773.288 1657.67C780.291 1777.39 791.1 1868.55 808.962 1958.5C816.531 1996.62 829.503 2052.87 835.921 2075.41C851.725 2130.9 879.839 2204.7 901.421 2247.34C909.047 2262.41 915.287 2275.35 915.287 2276.09C915.287 2276.83 835.553 2277.43 738.1 2277.43C622.147 2277.43 560.912 2277.97 560.912 2278.99C560.912 2279.85 564.779 2292.14 569.505 2306.29C618.708 2453.68 718.072 2626.72 841.883 2780.65C946.822 2911.11 1059.84 3024.4 1199.57 3139.19C1239.67 3172.13 1291.1 3212 1323.21 3235.05C1329.71 3239.71 1344.95 3250.69 1357.07 3259.44C1446.22 3323.77 1581.79 3408.18 1687.82 3465.38C1709.48 3477.06 1733.13 3489.9 1740.37 3493.91L1753.55 3501.2L1722.15 3469.12C1618.09 3362.82 1529.95 3246.13 1455.58 3116.23C1413.22 3042.24 1377.55 2965.55 1352.25 2894.05C1316.5 2793.04 1299.73 2720.08 1289.42 2620.72C1283.84 2566.86 1283.49 2489.03 1288.6 2436.24C1293.41 2386.55 1303.86 2324.73 1313.84 2286.94C1327.02 2236.97 1350.89 2169.31 1371.64 2123.08C1383.1 2097.56 1408.9 2047.85 1426.82 2016.77C1452 1973.1 1498.21 1906.73 1536.47 1859.27C1547.8 1845.22 1575.35 1812.56 1580.9 1806.6C1582.74 1804.63 1584.3 1804.93 1592.55 1808.88C1599.65 1812.27 1601.83 1814.06 1601.11 1815.88C1573.37 1885.07 1537.2 2017.8 1520.17 2112.85C1513.07 2152.47 1503.1 2231.7 1498.95 2281.37C1490.41 2383.72 1491.79 2497.3 1502.77 2595.58C1515.23 2707.24 1529.82 2777.24 1563.51 2886.96C1579.73 2939.78 1593.13 2975.4 1619.81 3036.58C1639.37 3081.42 1646.39 3095.84 1670.87 3141.45C1737.96 3266.47 1819.42 3378.91 1921.78 3487.81L1936.81 3503.81L1951.35 3572.2C1959.34 3609.82 1967.04 3646.98 1968.45 3654.77C1969.86 3662.57 1982.55 3723.52 1996.65 3790.22C2010.75 3856.92 2023.9 3919.82 2025.87 3930L2029.46 3948.51H2048.72C2065.7 3948.51 2068.07 3948.18 2068.79 3945.75C2070.56 3939.77 2092.58 3834.86 2101.28 3791.01C2106.34 3765.45 2120.75 3696.35 2133.28 3637.45C2145.82 3578.54 2156.97 3524.71 2158.08 3517.81C2160.34 3503.65 2157.28 3507.86 2194.19 3468.05C2232.81 3426.4 2267.8 3383.91 2311.5 3325.6C2330.45 3300.31 2377.06 3229.96 2392.36 3203.53C2422.17 3152.08 2436.45 3125.45 2455.59 3085.59C2481.37 3031.92 2494.61 3000.78 2511.42 2954.33C2538.48 2879.55 2549.12 2844.15 2563.4 2781.43C2591.76 2656.92 2602.84 2566.76 2604.74 2445.17C2606.83 2311.72 2595.29 2196.35 2565.66 2054.57C2550.23 1980.72 2534.69 1924.51 2509.29 1850.7C2502.3 1830.4 2496.59 1813.58 2496.59 1813.32C2496.59 1812.1 2512.85 1804.81 2514.64 1805.24C2518.88 1806.24 2572.63 1871.69 2599.55 1908.63C2637.78 1961.1 2673.55 2017.95 2698.29 2065.6C2771.16 2205.94 2808.13 2345.15 2813.95 2501.08C2816.58 2571.65 2806.03 2672.32 2787.8 2750.72C2769.49 2829.44 2751.88 2883.43 2717.92 2964.92C2689.84 3032.32 2654.74 3098.85 2605.37 3178.29C2569.17 3236.54 2532.51 3287.35 2475.22 3358.67C2452.42 3387.06 2406.49 3438.16 2375.91 3469.18L2344.6 3500.95L2361.17 3492.02C2370.28 3487.11 2389.6 3476.72 2404.11 3468.92C2442.17 3448.47 2543.39 3389.65 2573.76 3370.32C2588.06 3361.23 2608.96 3348.02 2620.22 3340.96C2718.18 3279.59 2876.08 3162.21 2952.36 3094.07C2960.12 3087.14 2975.62 3073.49 2986.81 3063.74C3044.16 3013.77 3145.1 2912.09 3192.74 2856.31C3200.97 2846.68 3212.71 2833.12 3218.84 2826.18C3232.42 2810.79 3273.65 2759.16 3292.95 2733.4C3382.01 2614.46 3447.37 2503.6 3499.12 2383.75C3505.47 2369.02 3513.83 2348.47 3517.69 2338.07C3524.63 2319.37 3536.09 2282.73 3536.09 2279.24C3536.09 2277.89 3491.37 2277.43 3359.95 2277.43C3263.07 2277.43 3183.39 2277.01 3182.88 2276.5C3182.36 2275.98 3184.97 2269.78 3188.68 2262.72C3218.98 2205 3241.81 2145.4 3264.5 2064.81C3296.94 1949.58 3317.13 1805.41 3325.16 1631.68C3327.43 1582.57 3327.44 1447.55 3325.17 1396.22C3322.35 1332.42 3315.48 1237.3 3313.54 1235.37C3313.07 1234.9 3137.93 1241.41 3054.14 1245.02C3042.44 1245.53 2987.92 1247.69 2932.98 1249.83C2878.03 1251.97 2832.95 1253.89 2832.79 1254.1C2830.94 1256.54 2782.8 1326.81 2769.06 1347.13C2759.1 1361.86 2750.2 1374.16 2749.29 1374.46C2748.37 1374.77 2741.7 1360.65 2734.47 1343.1C2721.45 1311.52 2712.04 1290.42 2680.92 1222.97C2663.38 1184.95 2599.6 1056.89 2584.95 1030.26C2579.88 1021.04 2568.13 998.967 2558.83 981.209C2531.51 929.004 2458.38 798.822 2418.59 731.571C2406.29 710.781 2390.68 684.203 2383.9 672.509C2377.12 660.815 2366.8 643.682 2360.96 634.435C2355.12 625.188 2343.48 606.052 2335.09 591.91C2326.7 577.768 2311.85 553.439 2302.1 537.846C2292.35 522.254 2279.42 501.346 2273.36 491.384C2228.51 417.665 2055.4 152.252 2048.8 147.091C2048.63 146.96 2030 174.582 2007.38 208.475ZM1477.46 304.446C1434.04 332.541 1377.6 373.53 1332.66 409.59C1255.58 471.449 1173.63 553.291 1114.91 627.067C1073.78 678.747 1034.05 736.319 1005.84 785.121C992.486 808.225 957.541 876.972 949.165 896.619C932.459 935.81 911.187 996.575 905.113 1022.46L903.01 1031.42L911.117 1032.31C919.053 1033.17 1102.53 1045.82 1152.32 1048.93C1166.18 1049.8 1180.47 1050.77 1184.07 1051.09L1190.61 1051.66L1193.27 1042.03C1201.9 1010.63 1215.43 967.391 1231.75 918.996C1251.69 859.86 1262.16 831.697 1279.47 790.634C1285.49 776.341 1293.89 756.332 1298.12 746.17C1313.73 708.704 1352.17 628.789 1375.6 585.096C1416.82 508.208 1469.09 422.991 1511.42 363.707L1532.97 333.517L1526.92 327.056C1506.85 305.616 1495.67 294.52 1494.2 294.602C1493.28 294.654 1485.74 299.083 1477.46 304.446ZM2597.39 299.182C2595.22 301.748 2587.2 310.565 2579.55 318.778L2565.66 333.711L2580.5 354.666C2685.93 503.581 2776.41 675.169 2841.97 850.484C2865.66 913.845 2876.78 947.153 2893.77 1005.62C2900.82 1029.88 2907.13 1050.08 2907.79 1050.53C2909.23 1051.49 2916.42 1051.04 3071.92 1040.34C3138.44 1035.76 3193.23 1031.64 3193.67 1031.2C3195.47 1029.4 3181.18 979.488 3171.37 953.25C3136.21 859.301 3088 769.995 3024.9 681.959C2982.8 623.213 2930.23 562.081 2875.51 508.238C2848.21 481.373 2796.79 434.733 2776.19 418.146C2746.89 394.564 2721.85 375.141 2702.91 361.306C2675.18 341.05 2605.74 294.507 2603.26 294.514C2602.19 294.517 2599.55 296.616 2597.39 299.182ZM2064.72 1161.94C2080.35 1298.6 2097.67 1408.76 2129.55 1574.2C2136.39 1609.71 2143.15 1645.15 2144.57 1652.95C2147.82 1670.82 2161.41 1732.22 2167.39 1756.11C2181.95 1814.19 2193.83 1875.71 2205.11 1951.41C2225.07 2085.32 2232.75 2177.73 2234.6 2305.78C2236.22 2418.81 2230.41 2530 2216.89 2644.41C2212.73 2679.67 2197.48 2786.54 2193.29 2809.78C2177.54 2897.23 2147.91 3021.86 2124.01 3101.16C2098.04 3187.34 2053.73 3308.7 2048.83 3307.07C2046.7 3306.36 2026.3 3255.76 2009.17 3208.72C1981.04 3131.49 1942.68 2995.85 1926.42 2916.1C1905.28 2812.48 1897.71 2770.71 1888.74 2708.2C1877.8 2631.85 1873.4 2583.46 1866.29 2460.92C1863.8 2417.98 1863.77 2260.04 1866.25 2216.8C1872.45 2108.64 1875.67 2071.44 1884.8 2002.6C1895.55 1921.46 1905.58 1868.97 1940.03 1713.58C1952.45 1657.58 1981.98 1509.85 1985.38 1486.78C1986.71 1477.69 1992.75 1440.83 1998.78 1404.88C2015.92 1302.78 2030.28 1201.45 2036.88 1135.95L2038.83 1116.66H2049.19H2059.55L2064.72 1161.94ZM666.536 2782.22C666.287 2791.86 669.945 2856.94 672.024 2879.87C681.329 2982.5 705.688 3085.59 740.079 3167.88C748.537 3188.11 772.334 3236.77 781.629 3252.83C803.686 3290.95 835.723 3333.26 861.18 3357.88C887.427 3383.28 892.738 3387.74 928.979 3414.83C986.042 3457.48 1047.1 3493.16 1109.67 3520.41C1181.31 3551.61 1220.56 3564.91 1298.8 3584.48C1371.29 3602.61 1452.66 3614.86 1530.11 3619.3C1560.99 3621.07 1632.39 3621.21 1646.09 3619.54L1654.75 3618.48L1634.27 3611.6C1605.03 3601.78 1557.26 3583.11 1509.74 3562.93C1248.3 3451.88 1030.5 3297.81 870.3 3110.61C825.175 3057.88 775.339 2989.69 744.793 2938.89C715.202 2889.68 683.929 2827.26 671.427 2792.46C668.781 2785.1 666.58 2780.49 666.536 2782.22ZM3425.98 2794.42C3419.34 2811.72 3397.67 2858.69 3386.2 2880.66C3373.26 2905.45 3342.6 2956.73 3324.52 2983.82C3307.09 3009.96 3268.26 3062.45 3252.05 3081.81C3244.64 3090.65 3232.44 3105.18 3224.94 3114.09C3165.84 3184.29 3072.85 3270.62 2985.71 3336.19C2946.24 3365.88 2867.23 3419.39 2837.57 3436.5C2828.05 3442 2806.16 3454.6 2788.94 3464.51C2761.71 3480.17 2671.67 3526.41 2645.11 3538.37C2585.58 3565.18 2517.37 3592.78 2468.24 3609.91L2442.26 3618.98L2459.58 3620.17C2484 3621.84 2569.31 3619.96 2602.11 3617.03C2693.14 3608.89 2783.81 3591.38 2873.01 3564.71C2915.77 3551.93 3003.7 3515.27 3046.26 3492.48C3129.09 3448.12 3211.27 3388.22 3251.88 3342.61C3294.54 3294.69 3337.27 3222.23 3363.63 3153.13C3397.75 3063.68 3413.65 2994.88 3424.21 2891.09C3427.25 2861.2 3431.44 2789.58 3430.34 2786.28C3430.02 2785.33 3428.06 2789 3425.98 2794.42Z" fill="#808080"/>
</svg>
