<svg width="4096" height="4096" viewBox="0 0 4096 4096" fill="none" xmlns="http://www.w3.org/2000/svg">
<path fill-rule="evenodd" clip-rule="evenodd" d="M1798.09 134.407C1760.35 138.214 1717.56 146.179 1662.25 159.694L1629.56 167.679V530.521V893.364H1840.61H2051.66V530.523V167.681L2033.95 162.813C1960.11 142.527 1894.63 132.435 1839.48 132.848C1824.08 132.963 1805.45 133.666 1798.09 134.407ZM2138.29 748.591C2138.29 1212.47 2138.53 1261.91 2140.74 1261.91C2142.78 1261.91 2270.69 1242.14 2466.2 1211.6C2509.67 1204.81 2518.5 1201.9 2530.2 1190.56C2533.96 1186.93 2538.92 1180.41 2541.23 1176.08L2545.43 1168.2V769.726V371.251L2542.01 364.88C2537.37 356.21 2526.24 346.281 2517.77 343.257C2506.64 339.283 2237.74 262.727 2144.12 236.878L2138.29 235.267V748.591ZM1480.73 371.437C1446.08 384.818 1383 408.804 1340.55 424.738C1195.95 479.024 1144.1 499.355 1138.26 504.068C1135.17 506.551 1130.53 512.003 1127.93 516.181L1123.2 523.779L1122.79 708.57L1122.38 893.364H1333.45H1544.51V620.101C1544.51 469.807 1544.34 346.898 1544.12 346.972C1543.9 347.046 1515.38 358.056 1480.73 371.437ZM2631.26 917.776C2631.26 1205.58 2631.61 1261.91 2633.39 1261.91C2634.56 1261.91 2683.64 1251.6 2742.46 1238.98C2867.14 1212.25 2927.29 1199.54 2969.72 1190.95C2986.52 1187.54 3004 1183.05 3008.56 1180.97C3018.44 1176.44 3028.46 1166.55 3034.22 1155.65L3038.4 1147.73L3038.84 948.489C3039.33 724.944 3040.2 742.014 3027.61 728.354C3019.82 719.909 3017.73 718.805 2990.67 708.881C2957.03 696.542 2914.24 680.35 2829.26 647.786C2786.13 631.26 2750.46 617.739 2750 617.739C2749.55 617.739 2722.99 607.816 2691 595.689C2659.01 583.561 2632.48 573.639 2632.05 573.639C2631.62 573.639 2631.26 728.5 2631.26 917.776ZM1133.99 981.323C1127.43 983.312 1088.68 1032.4 1042.4 1097.33C1004.8 1150.08 962.577 1206.47 945.685 1226.49L932.382 1242.26L949.419 1315.48C958.79 1355.75 972.888 1417.41 980.747 1452.49C988.608 1487.57 1002.39 1547.82 1011.37 1586.36C1045.26 1731.75 1062.77 1807.84 1075.17 1863.56C1093.29 1945.01 1103.83 1987.12 1112.21 2011.61C1138.71 2089.03 1178.62 2160.31 1229.74 2221.52C1261.44 2259.47 1283.18 2280.96 1327.83 2318.49L1345.04 2332.95L1373.01 2417.59C1388.39 2464.14 1409.23 2527.74 1419.31 2558.93C1429.4 2590.11 1453.14 2662.76 1472.06 2720.36C1490.98 2777.97 1512.26 2843.17 1519.35 2865.26C1526.45 2887.35 1548.77 2955.75 1568.97 3017.25C1589.17 3078.75 1611.47 3147.15 1618.54 3169.24C1625.6 3191.33 1644.02 3247.67 1659.47 3294.45C1674.92 3341.23 1693.7 3398.64 1701.21 3422.03C1715.91 3467.8 1736.37 3530.79 1737.78 3534.64C1738.26 3535.94 1743.54 3505.46 1749.51 3466.91C1755.48 3428.37 1774.84 3305.04 1792.54 3192.86C1810.23 3080.68 1827.56 2969.76 1831.04 2946.38C1842.47 2869.69 1854.71 2792.37 1855.54 2791.53C1856 2791.08 1856.74 2791.08 1857.19 2791.54C1857.64 2791.99 1865.12 2835.52 1873.81 2888.27C1900.95 3053.12 2006.21 3686.79 2041.15 3895.71C2047.35 3932.74 2052.8 3963.04 2053.28 3963.04C2053.75 3963.04 2066.01 3891.63 2080.52 3804.36C2095.03 3717.08 2118.57 3575.51 2132.84 3489.75C2165.16 3295.5 2189.25 3150.19 2222.67 2947.95C2236.98 2861.33 2249.29 2789.03 2250.01 2787.3C2251.25 2784.34 2251.39 2784.38 2252.28 2788.09C2252.8 2790.25 2256.04 2810.45 2259.48 2832.98C2262.92 2855.5 2280.6 2965.71 2298.78 3077.89C2316.96 3190.07 2336.17 3309.85 2341.47 3344.06C2351.48 3408.58 2368.87 3517.54 2371.14 3529.91L2372.44 3537L2376.78 3522.83C2379.17 3515.03 2383.61 3500.5 2386.64 3490.54C2389.68 3480.58 2407.28 3423.88 2425.76 3364.54C2444.24 3305.2 2463.7 3242.12 2469.01 3224.36C2474.32 3206.61 2494.87 3139.98 2514.69 3076.31C2534.51 3012.64 2556.84 2940.35 2564.31 2915.66C2571.78 2890.98 2592.68 2823.29 2610.74 2765.25C2628.81 2707.21 2649.39 2640.59 2656.48 2617.2C2663.57 2593.81 2683.4 2529.67 2700.55 2474.66C2717.7 2419.66 2733.67 2368.15 2736.04 2360.21L2740.35 2345.77L2754.06 2333.92C2774.61 2316.16 2814.14 2276.13 2828.84 2258.19C2885.54 2189.03 2921.17 2126.02 2948.25 2047.05C2967.71 1990.28 2976.32 1946.06 2982.41 1871.44C2984.14 1850.22 2990.52 1773.32 2996.58 1700.55C3002.64 1627.79 3008.7 1554.08 3010.04 1536.75C3011.38 1519.43 3015.35 1469.92 3018.85 1426.74C3022.36 1383.56 3024.94 1347.94 3024.59 1347.59C3024.24 1347.24 2812.72 1347.14 2554.53 1347.35L2085.11 1347.75L2114.09 1422.56C2130.03 1463.71 2152.58 1522.54 2164.2 1553.29C2175.82 1584.04 2197.69 1641.09 2212.8 1680.08C2247.22 1768.88 2256.68 1794.25 2256.05 1796.15C2255.62 1797.42 2233.13 1772.36 2194.26 1727.33C2189.03 1721.27 2174.07 1704.26 2161.01 1689.53C2147.95 1674.8 2125.27 1648.89 2110.61 1631.96C2080.55 1597.24 2013.61 1520.61 1989.95 1493.83L1974.29 1476.11H1747.7H1521.11L1487.53 1455.14C1469.06 1443.6 1437.83 1424.29 1418.12 1412.22C1398.42 1400.15 1382.29 1389.74 1382.29 1389.09C1382.29 1388.45 1480.98 1387.91 1601.61 1387.91C1741.05 1387.91 1827.21 1387.32 1838.17 1386.28C1941.64 1376.46 2020.3 1312.11 2046.39 1215.93L2050.79 1199.7L2051.3 1089.86L2051.8 980.02L1594.59 980.157C1343.12 980.233 1135.85 980.757 1133.99 981.323ZM3095.62 1708.66C3092.18 1709.26 3091.24 1710.46 3090.48 1715.21C3089.61 1720.67 3079.58 1821.81 3066.8 1954.13C3060.1 2023.4 3056.36 2052.05 3050.11 2081.7C3044.52 2108.22 3034.75 2143.25 3026.52 2166.35C3019.55 2185.89 3018.28 2183.45 3039.28 2190.84C3116.78 2218.12 3205.2 2205.15 3270.71 2156.9C3287.05 2144.86 3313.51 2117.64 3326.23 2099.78C3345.15 2073.21 3359.93 2039.44 3367.1 2006.4C3370.06 1992.77 3370.6 1985.36 3370.65 1957.28C3370.72 1920.88 3369.08 1908.87 3360.22 1880.95C3333.19 1795.74 3256.3 1727.55 3169.13 1711.47C3155.44 1708.94 3105 1707.02 3095.62 1708.66ZM908.214 1715.71C860.131 1728.54 811.509 1760.15 780.267 1798.89C767.467 1814.76 758.8 1828.32 749.415 1847.17C739.499 1867.08 734.791 1880.3 729.256 1903.79C725.098 1921.43 724.819 1924.77 724.86 1956.49C724.898 1985.52 725.401 1992.58 728.377 2005.96C738.057 2049.5 757.258 2087.77 785.805 2120.42C801.468 2138.34 814.418 2149.78 833.855 2162.88C893.859 2203.33 968.522 2215.22 1040.51 2195.8L1053.02 2192.42L1050.55 2186.67C1034.17 2148.6 1022.86 2114.43 1012.68 2072.25C1008.7 2055.79 992.744 1990.23 977.212 1926.56C954.654 1834.09 935.233 1753.71 926.316 1715.91C925.306 1711.63 923.564 1711.61 908.214 1715.71ZM910.732 1786.24C946.487 1802.48 917.869 1879.15 867.264 1902.7C856.485 1907.72 841.96 1908.98 833.876 1905.6L828.165 1903.21L826.333 1913.71C819.387 1953.52 822.394 1994.53 835.109 2033.42C841.516 2053.02 858.529 2088.39 871.071 2108.18C883.935 2128.49 883.479 2128.94 863.275 2115.87C844.953 2104.02 830.407 2090.29 816.341 2071.57C788.826 2034.95 776.191 1994.42 778.006 1948.61C780.415 1887.77 810.911 1832.39 860.592 1798.65C873.605 1789.82 889.764 1783.32 898.764 1783.31C901.796 1783.31 907.182 1784.63 910.732 1786.24ZM3212.44 1786.85C3226.68 1791.76 3245.31 1804.81 3262.19 1821.69C3312.68 1872.17 3330.4 1944.49 3309.31 2013.98C3296.51 2056.18 3264.98 2096.59 3227.19 2119.23C3212.33 2128.13 3212.22 2127.54 3224.97 2107.27C3245.52 2074.58 3262.07 2035.36 3268.35 2004.53C3274.35 1975.02 3274.58 1940.68 3268.96 1912.14L3267.18 1903.06L3262.41 1905.52C3255.31 1909.2 3239.14 1907.81 3227.78 1902.56C3209.27 1894.01 3191.84 1876.74 3180.5 1855.69C3172.36 1840.59 3169.28 1829.82 3169.24 1816.31C3169.19 1800.94 3173.66 1792.01 3184.03 1786.78C3192.82 1782.35 3199.43 1782.36 3212.44 1786.85ZM2087.35 2094.13C2123.79 2111.47 2157.46 2127.79 2224.13 2160.44C2246.65 2171.47 2281.73 2188.47 2302.09 2198.21C2322.45 2207.95 2371.7 2231.86 2411.55 2251.33C2451.4 2270.8 2489.5 2289.29 2496.21 2292.42C2502.92 2295.55 2508.41 2298.74 2508.41 2299.52C2508.41 2300.29 2503.63 2300.02 2497.78 2298.91C2491.93 2297.8 2437.54 2287.32 2376.9 2275.62C2316.26 2263.91 2234.4 2248.3 2194.99 2240.92C2155.57 2233.54 2121.2 2227.07 2118.6 2226.54L2113.88 2225.59L2099.96 2341.85C2092.3 2405.8 2082.56 2488.25 2078.31 2525.06C2060.62 2678.28 2054.58 2729 2053.93 2729.65C2053.55 2730.03 2052.93 2730.03 2052.55 2729.65C2051.62 2728.72 2028.02 2531.9 2014.61 2413.24C2006.06 2337.56 1992.99 2226.77 1992.54 2226.14C1992.36 2225.89 1971.74 2229.58 1946.73 2234.34C1921.72 2239.1 1876.45 2247.61 1846.13 2253.25C1796.06 2262.55 1609.1 2298.56 1599.64 2300.72C1590.24 2302.87 1601.97 2296.14 1635.08 2280.41C1654.13 2271.35 1693.82 2252.1 1723.28 2237.62C1752.73 2223.14 1792.77 2203.66 1812.26 2194.35C1831.75 2185.02 1879.24 2161.96 1917.79 2143.1C1971.74 2116.69 2050.59 2078.55 2052.7 2077.85C2052.83 2077.8 2068.43 2085.13 2087.35 2094.13ZM802.689 2288.33C751.479 2291.34 696.446 2310.35 651.062 2340.69C598.514 2375.83 554.99 2433.6 534.978 2494.76C511.076 2567.81 516.959 2656.16 550.142 2722.47C568.075 2758.31 597.101 2795.63 625.502 2819.36C707.937 2888.26 816.503 2909.53 916.254 2876.33C959.666 2861.89 1001.04 2836.65 1032.55 2805.41C1092.3 2746.16 1122.48 2673.82 1122.39 2590.04C1122.31 2517.27 1100.81 2455.27 1056.72 2400.64C1040.87 2381 1011.4 2353.59 992.678 2341.07C947.625 2310.94 897.876 2293.51 843.639 2288.83C826.086 2287.31 821.03 2287.25 802.689 2288.33ZM3250.24 2288.75C3183.3 2294.31 3114.53 2324.68 3068.76 2368.91C3021.14 2414.91 2993.04 2463.09 2980.37 2520.46C2973.96 2549.48 2972.52 2566.23 2973.5 2600.41C2974.21 2625.31 2975.2 2635.23 2978.52 2651.06C2990.06 2706.07 3012.58 2750.01 3051.56 2793.6C3066.76 2810.6 3083.74 2825.22 3104.57 2839.27C3183.64 2892.61 3279.5 2905.97 3369.1 2876.14C3418.13 2859.82 3466.57 2828.05 3499.04 2790.93C3550.09 2732.56 3575.01 2666.5 3574.96 2589.64C3574.9 2499.14 3541.07 2424.53 3471.53 2361.53C3441.04 2333.9 3391.14 2308.06 3346.5 2296.76C3318.99 2289.81 3278.3 2286.42 3250.24 2288.75ZM731.217 2388.13C774.252 2408.96 759.994 2496.01 704.611 2550.56C680.601 2574.2 649.919 2584.7 631.802 2575.46C628.403 2573.73 625.418 2572.31 625.169 2572.31C624.027 2572.31 624.905 2612.38 626.324 2625.08C631.633 2672.59 648.164 2721.06 675.872 2770.37C680.371 2778.38 682.383 2783.36 681.113 2783.35C677.798 2783.32 657.973 2767.74 646.632 2756.24C584.257 2692.99 563.317 2597.72 592.707 2510.89C604.392 2476.37 621.26 2449.56 648.241 2422.62C668.027 2402.87 680.1 2394.03 694.786 2388.57C707.351 2383.9 722.107 2383.72 731.217 2388.13ZM3406.55 2391.63C3437.88 2407.11 3471.7 2443.37 3491.17 2482.36C3499.82 2499.69 3509.18 2528.24 3512.65 2547.9C3516.44 2569.36 3516.44 2609.92 3512.65 2631.38C3504.41 2678.04 3481.17 2723.6 3449.12 2755.91C3436.36 2768.78 3417.77 2783.36 3414.14 2783.36C3413.12 2783.36 3414.83 2778.94 3417.95 2773.52C3448.27 2720.89 3463.86 2674.51 3469.12 2621.37C3470.67 2605.72 3471.37 2572.31 3470.15 2572.31C3469.83 2572.31 3466.17 2573.82 3462.01 2575.65C3455.83 2578.39 3452.36 2578.86 3442.86 2578.25C3433.23 2577.63 3428.94 2576.35 3417.55 2570.71C3394.07 2559.08 3369.58 2532.17 3353.79 2500.65C3343.94 2481 3339.67 2465.03 3338.83 2444.6C3337.54 2413.5 3344.85 2396.86 3363.67 2388.06C3374.85 2382.84 3391.58 2384.23 3406.55 2391.63ZM1075.95 2945.02C1026.82 2950.63 992.494 2960.23 953.102 2979.4C930.518 2990.39 907.8 3004.98 889.473 3020.27C872.348 3034.56 843.023 3065.27 830.697 3081.83C800.794 3121.98 779.023 3174.05 769.457 3228.3C766.423 3245.51 765.847 3254.31 765.847 3283.43C765.847 3312.54 766.423 3321.34 769.457 3338.55C778.039 3387.22 795.06 3431.36 819.562 3468.49C875.063 3552.6 963.594 3608 1062.56 3620.55C1090.67 3624.11 1137.23 3623.06 1162.58 3618.28C1207.57 3609.79 1245.73 3595.26 1282.08 3572.77C1371.23 3517.63 1428 3428.95 1442.12 3322.8C1444.27 3306.61 1444.25 3260.55 1442.08 3243.26C1432.74 3168.81 1398.22 3097.14 1346.85 3045.54C1330.69 3029.3 1308.44 3010.77 1291.73 2999.61C1249.33 2971.31 1193.51 2951.54 1139.41 2945.67C1125.33 2944.15 1087.09 2943.75 1075.95 2945.02ZM2954.14 2945.76C2905.02 2951.3 2846.66 2971.74 2808.03 2996.92C2709.79 3060.95 2651.74 3167.37 2651.74 3283.43C2651.74 3422.12 2734.97 3545.74 2863.7 3598.25C2902.51 3614.08 2936.94 3621.18 2980.91 3622.39C3041.76 3624.08 3093.27 3612.58 3145.84 3585.56C3180.69 3567.66 3205.79 3548.96 3234.61 3519.45C3284.22 3468.64 3314.66 3407.75 3326.96 3334.75C3330.85 3311.66 3330.8 3254.01 3326.88 3231.46C3317.04 3174.96 3295.44 3123.04 3264.28 3080.97C3244.29 3053.99 3205.86 3017.73 3177 2998.64C3135.93 2971.47 3076.88 2950.85 3025.24 2945.65C3006.45 2943.76 2971.34 2943.81 2954.14 2945.76ZM981.452 3081.18C1019.96 3091.55 1023.43 3152.14 988.857 3210.58C973.602 3236.38 955.286 3254.21 932.345 3265.61C917.168 3273.16 902.646 3275.13 891.341 3271.19C887.692 3269.91 884.324 3269.25 883.86 3269.72C881.425 3272.15 884.55 3319.67 888.646 3342.49C896.102 3384.03 912.468 3426.97 936.517 3468.09C942.773 3478.79 940.272 3478.81 926.168 3468.16C897.939 3446.85 872.537 3414.32 858.168 3381.08C816.195 3283.96 841.072 3170.15 918.77 3103.86C941.365 3084.58 963.857 3076.44 981.452 3081.18ZM3135.73 3081.81C3178.73 3093.01 3225.79 3146.74 3245.58 3207.23C3258.31 3246.14 3260.44 3299.11 3250.93 3340.27C3239.93 3387.85 3213.39 3431.65 3177.41 3461.62C3163.13 3473.52 3157.62 3477.2 3156.22 3475.79C3155.77 3475.34 3160.03 3466.6 3165.68 3456.37C3195.25 3402.92 3209.41 3352.33 3211.93 3291.05L3212.93 3266.85L3205.34 3270.21C3188.14 3277.81 3163.89 3270.88 3139.99 3251.54C3076.93 3200.48 3060.7 3093.91 3114 3080.94C3121.49 3079.11 3126.09 3079.3 3135.73 3081.81Z" fill="#808080"/>
</svg>
