<svg width="4096" height="4096" viewBox="0 0 4096 4096" fill="none" xmlns="http://www.w3.org/2000/svg">
<path fill-rule="evenodd" clip-rule="evenodd" d="M2050.89 182.946C2050.89 184.696 2040.86 210.035 2028.61 239.253C2016.35 268.47 2002.2 302.834 1997.15 315.615C1992.1 328.396 1978.69 360.915 1967.35 387.877C1956 414.84 1943.67 444.781 1939.95 454.413C1936.22 464.044 1922.18 498.149 1908.76 530.201C1895.33 562.252 1883.8 590.248 1883.13 592.413C1882.46 594.579 1872.71 618.322 1861.47 645.176C1837.96 701.332 1831.13 717.933 1818 750.701C1812.8 763.694 1800.64 793.108 1790.97 816.063C1781.31 839.019 1771.42 863.116 1769 869.613C1766.57 876.11 1755.95 901.979 1745.4 927.101C1734.84 952.222 1718.18 992.621 1708.37 1016.88C1698.56 1041.13 1685.15 1073.63 1678.56 1089.09C1671.97 1104.56 1666.59 1117.78 1666.59 1118.48C1666.59 1119.92 1681.41 1132.64 1683.09 1132.64C1683.71 1132.64 1706.99 1117.25 1734.85 1098.45C1832.78 1032.35 1843.82 1025.08 1848.71 1023.53C1855.45 1021.4 1863.97 1023.27 1869.77 1028.15C1879.04 1035.95 1879.34 1037.54 1881.88 1092.32C1883.96 1137.34 1897.6 1398.04 1913.04 1687.83C1925.34 1918.53 1929.74 2001.82 1933.47 2074.49C1935.63 2116.5 1937.75 2156.9 1938.19 2164.26C1938.63 2171.63 1939.35 2186.51 1939.8 2197.34C1940.24 2208.17 1940.99 2226.59 1941.47 2238.29C1942.24 2257.16 1949.72 2398.26 1970.51 2786.39C1976.49 2898.02 1989.26 3138.95 1992.59 3202.98C1996.29 3274.18 1997.42 3297.4 1999.73 3349.45C2001.07 3379.77 2003.92 3436.47 2006.05 3475.45C2011.21 3569.72 2011.4 3562.98 2003.34 3574.61C1994.44 3587.46 1924.12 3686.48 1893.12 3729.81C1886.61 3738.91 1867.47 3765.84 1850.58 3789.66C1833.69 3813.49 1812.58 3843.25 1803.67 3855.81C1794.75 3868.37 1787.16 3879.44 1786.78 3880.42C1786.03 3882.38 1811.46 3917.2 1813.66 3917.22C1815.98 3917.25 1858.69 3900.57 1904.41 3881.78C1928.23 3871.99 1958 3859.96 1970.56 3855.04C1983.12 3850.13 2006.49 3840.76 2022.5 3834.24L2051.59 3822.37L2082.35 3834.63C2099.26 3841.38 2135.78 3856.1 2163.5 3867.34C2239.02 3897.98 2287.71 3917.23 2289.72 3917.24C2291.46 3917.24 2317.06 3883.64 2317.06 3881.35C2317.06 3880.01 2293.01 3845.23 2271.05 3814.8C2262.63 3803.14 2238.71 3769.5 2217.89 3740.05C2197.07 3710.6 2170.59 3673.39 2159.04 3657.36C2147.49 3641.34 2134.44 3622.91 2130.04 3616.41C2125.64 3609.92 2115.42 3595.53 2107.33 3584.45L2092.62 3564.3L2093.84 3540.35C2094.51 3527.18 2099.64 3430.64 2105.24 3325.83C2122.59 3001.28 2126.34 2929.74 2127.26 2905.3C2128.74 2865.76 2141.79 2615.61 2161.13 2255.61C2174.27 2011.07 2183.13 1842.89 2183.99 1821.7C2186.08 1770.25 2192.04 1654.76 2209.92 1319.28C2213.39 1254.31 2218.04 1166.07 2220.27 1123.19C2223.26 1065.75 2224.96 1043.46 2226.74 1038.51C2231.57 1025.01 2247.27 1018.73 2259.69 1025.33C2263.09 1027.13 2282.31 1039.79 2302.4 1053.46C2381.75 1107.43 2419.38 1132.64 2420.56 1132.61C2421.24 1132.59 2425.3 1129.51 2429.58 1125.77L2437.36 1118.96L2426.97 1093.9C2421.25 1080.12 2414.11 1062.47 2411.1 1054.68C2408.09 1046.88 2396.96 1019.95 2386.35 994.826C2375.75 969.704 2361.56 935.33 2354.81 918.438C2348.06 901.546 2336.38 873.196 2328.86 855.438C2321.33 837.68 2309.68 809.33 2302.96 792.438C2291.58 763.802 2272.18 716.788 2219.83 590.947C2208.14 562.854 2191.26 521.746 2182.32 499.597C2173.37 477.448 2157.59 439.051 2147.24 414.271C2136.89 389.492 2127.89 367.52 2127.24 365.446C2126.6 363.372 2116.53 338.996 2104.88 311.276C2075.75 241.984 2054.04 187.279 2054.04 183.184C2054.04 181.304 2053.33 179.763 2052.46 179.763C2051.6 179.763 2050.89 181.195 2050.89 182.946ZM3318.76 865.041C3318.76 867.38 3209.05 977.43 2933.12 1251.89L2771.91 1412.24L2775.54 1419.7C2777.53 1423.8 2780.16 1427.16 2781.37 1427.16C2782.59 1427.16 2815.29 1421.14 2854.05 1413.78C2892.8 1406.41 2926.11 1400.39 2928.06 1400.39C2933.05 1400.39 2939.87 1404.76 2942.91 1409.9C2947.36 1417.44 2945.97 1424.97 2933.74 1459.43C2927.28 1477.63 2916.04 1509.89 2908.76 1531.11C2901.49 1552.34 2886.26 1595.92 2874.91 1627.98C2863.56 1660.03 2850.19 1698.2 2845.2 1712.81C2840.2 1727.42 2835.31 1739.69 2834.32 1740.07C2833.32 1740.45 2825.86 1736.79 2817.73 1731.94C2784.76 1712.27 2691.99 1667.56 2647.02 1649.66C2576.51 1621.59 2551.23 1612.69 2506.85 1600.28C2493.86 1596.65 2482.09 1592.7 2480.71 1591.51C2479.32 1590.31 2476.2 1584.2 2473.76 1577.94C2471.33 1571.68 2459.53 1544.4 2447.54 1517.32C2435.55 1490.24 2422.83 1461.18 2419.28 1452.74C2415.73 1444.3 2404.28 1417.91 2393.82 1394.09C2383.37 1370.27 2370.05 1339.79 2364.23 1326.36L2353.64 1301.95L2346.84 1302.41C2343.09 1302.66 2339.83 1303.07 2339.58 1303.31C2339.34 1303.56 2335.22 1346.59 2330.43 1398.93C2325.64 1451.27 2316.4 1551.16 2309.89 1620.89C2288.51 1850.15 2287.27 1863.76 2283.22 1914.63C2281.02 1942.35 2278.84 1966.87 2278.38 1969.12C2277.55 1973.19 2277.66 1973.24 2295.33 1976.74C2345.43 1986.64 2421.58 2007.94 2471.41 2025.99C2514.16 2041.47 2588.48 2076.44 2628.91 2100.09C2663.15 2120.13 2693.49 2140.14 2693.49 2142.69C2693.49 2145.61 2675.11 2199.71 2656.48 2251.68C2648.09 2275.06 2636.06 2309.44 2629.75 2328.06C2623.44 2346.69 2608.21 2390.26 2595.89 2424.88C2583.57 2459.5 2570.29 2497.42 2566.37 2509.14C2562.46 2520.86 2550.77 2554.19 2540.39 2583.21C2530.01 2612.23 2515.99 2652.28 2509.24 2672.2C2502.49 2692.12 2489.37 2729.69 2480.08 2755.68C2470.8 2781.66 2458.03 2818.16 2451.71 2836.79C2445.39 2855.41 2431.38 2895.46 2420.59 2925.78C2409.79 2956.09 2399.35 2985.86 2397.39 2991.93C2395.42 2997.99 2383.02 3033.43 2369.82 3070.68C2356.62 3107.92 2344.58 3142.3 2343.06 3147.06C2341.54 3151.83 2328.61 3188.68 2314.33 3228.96C2300.06 3269.24 2286.1 3309.29 2283.32 3317.95C2280.54 3326.61 2272.36 3350.19 2265.14 3370.35C2257.92 3390.5 2252.3 3407.23 2252.65 3407.51C2254.14 3408.73 2292.52 3425.84 2293.77 3425.84C2294.53 3425.84 2297.16 3421.41 2299.62 3415.99C2307.89 3397.79 2315.05 3382.69 2330.43 3351.03C2338.84 3333.7 2351.04 3307.87 2357.53 3293.63C2364.03 3279.38 2376.43 3253.16 2385.08 3235.35C2393.74 3217.54 2406.5 3190.6 2413.44 3175.47C2420.39 3160.35 2433.15 3133.42 2441.8 3115.62C2450.46 3097.83 2463.06 3071.23 2469.8 3056.5C2476.55 3041.77 2488.95 3015.55 2497.37 2998.23C2505.78 2980.9 2518.55 2953.97 2525.74 2938.38C2532.93 2922.78 2549.16 2888.49 2561.81 2862.18C2574.46 2835.86 2584.81 2814.05 2584.81 2813.72C2584.81 2813.38 2596.25 2789.2 2610.23 2759.98C2624.21 2730.76 2639.71 2697.99 2644.67 2687.16C2649.64 2676.34 2664.84 2644.09 2678.45 2615.5C2692.07 2586.91 2715.48 2537.66 2730.47 2506.04C2745.47 2474.42 2765 2433.31 2773.87 2414.69C2790.06 2380.67 2809.92 2338.56 2830.92 2293.69C2837.13 2280.41 2842.69 2269.26 2843.26 2268.91C2844.29 2268.27 2876.97 2303.62 2893.59 2323.34C2905.59 2337.59 2939.67 2382.54 2952.09 2400.51C2981.69 2443.35 3013.37 2497.8 3037.77 2547.78C3086.67 2647.91 3123.58 2754.74 3146.89 2863.56C3157.37 2912.52 3160.66 2930.61 3169.69 2989.02C3170.13 2991.86 3165.19 2995.86 3139.54 3013.43C3122.67 3024.99 3099.92 3040.7 3088.99 3048.33C3078.07 3055.97 3052.11 3073.91 3031.32 3088.2C2995.65 3112.72 2955.53 3140.34 2887.64 3187.13C2871.38 3198.33 2847.8 3214.68 2835.24 3223.45C2822.68 3232.21 2796.99 3249.98 2778.15 3262.92C2681.41 3329.38 2652.18 3349.52 2574.57 3403.14C2490.85 3461 2463.11 3480.19 2428.89 3503.88C2409.4 3517.37 2379.98 3537.61 2363.52 3548.85C2337.11 3566.88 2271.52 3612.05 2257.67 3621.74L2252.61 3625.28L2268.35 3646.44C2296.71 3684.56 2305.11 3694.95 2306.77 3693.94C2312.35 3690.55 2349.91 3666.03 2380.85 3645.57C2400.77 3632.39 2439.05 3607.2 2465.9 3589.58C2492.75 3571.97 2531.03 3546.82 2550.95 3533.69C2570.87 3520.56 2609.15 3495.41 2636 3477.8C2662.85 3460.19 2701.13 3435.02 2721.05 3421.88C2740.97 3408.74 2779.25 3383.57 2806.1 3365.97C2857.36 3332.36 2910.32 3297.56 2982.27 3250.23C3005.97 3234.63 3044.29 3209.47 3067.44 3194.31C3090.58 3179.15 3128.43 3154.28 3151.53 3139.04C3174.64 3123.79 3215.52 3096.95 3242.37 3079.38C3269.23 3061.81 3307.5 3036.64 3327.42 3023.43C3347.35 3010.22 3386.68 2984.34 3414.84 2965.92C3442.99 2947.5 3481.26 2922.35 3499.89 2910.04C3518.51 2897.73 3552.53 2875.38 3575.49 2860.38C3598.44 2845.37 3650.54 2811.19 3691.25 2784.41C3731.96 2757.63 3775.71 2728.87 3788.47 2720.5C3815.37 2702.85 3813.08 2708.14 3809.36 2672.2C3808.1 2660.07 3807.05 2648.73 3807.01 2647C3806.97 2644.8 3803.75 2641.99 3796.35 2637.7C3790.52 2634.31 3765.55 2619.01 3740.86 2603.68C3716.17 2588.36 3674.18 2562.43 3647.54 2546.05C3620.9 2529.67 3586.17 2508.21 3570.36 2498.34C3554.56 2488.48 3525.32 2470.46 3505.4 2458.29C3485.48 2446.13 3457.29 2428.69 3442.76 2419.53C3428.23 2410.37 3411.04 2399.8 3404.55 2396.04C3398.06 2392.28 3392.13 2388.03 3391.38 2386.59C3390.63 2385.15 3387.36 2376.53 3384.12 2367.44C3376.57 2346.26 3360.57 2310.85 3339.8 2269.35C3287.71 2165.25 3210.17 2057.8 3120.55 1965.52C3098.51 1942.83 3056.19 1902.91 3038.02 1887.68C3033.04 1883.5 3028.96 1879.31 3028.96 1878.37C3028.96 1875.95 3044.94 1841.12 3073.4 1781.54C3086.84 1753.39 3102.46 1720.43 3108.12 1708.3C3113.77 1696.17 3126.53 1669.24 3136.47 1648.45C3146.41 1627.66 3158.47 1602.15 3163.26 1591.75C3168.05 1581.36 3176.78 1563.01 3182.67 1550.97C3192.72 1530.42 3193.77 1528.92 3199.9 1526.2C3207.36 1522.91 3214.48 1524.04 3220.24 1529.46C3222.08 1531.19 3230.65 1543.62 3239.28 1557.08C3259.45 1588.55 3304.02 1657.07 3304.85 1657.9C3305.2 1658.25 3309.01 1657.51 3313.31 1656.25L3321.12 1653.96L3320.7 1259.13C3320.47 1041.98 3319.94 863.965 3319.52 863.548C3319.1 863.131 3318.76 863.802 3318.76 865.041ZM777.123 1259.7L776.746 1653.72L784.788 1656.39C789.569 1657.98 793.235 1658.46 793.827 1657.59C794.375 1656.77 804.526 1640.92 816.383 1622.36C837.239 1589.7 866.783 1544.31 874.943 1532.39C879.638 1525.53 887.325 1522.72 895.347 1524.94C902.644 1526.95 906.378 1531.51 912.652 1546.08C915.636 1553.01 929.178 1581.62 942.745 1609.65C956.31 1637.69 969.073 1664.62 971.103 1669.5C973.135 1674.38 985.876 1701.28 999.42 1729.28C1012.96 1757.28 1025.8 1784.37 1027.95 1789.47C1030.1 1794.57 1040.36 1816.25 1050.76 1837.64C1061.16 1859.03 1069.66 1877.03 1069.66 1877.64C1069.66 1878.24 1059.56 1887.66 1047.22 1898.55C898.596 2029.68 778.646 2198.98 712.192 2371.4L705.508 2388.74L695.051 2395.02C689.301 2398.48 670.416 2410.08 653.085 2420.82C635.754 2431.56 609.171 2447.93 594.012 2457.2C578.852 2466.47 549.794 2484.37 529.437 2496.98C509.08 2509.59 473.288 2531.74 449.899 2546.19C426.51 2560.64 389.655 2583.46 367.999 2596.9C346.343 2610.33 320.255 2626.27 310.023 2632.31C299.794 2638.35 291.123 2644.13 290.756 2645.15C290.027 2647.17 285.326 2695.28 285.316 2700.81C285.312 2704.41 307.757 2719.82 416.824 2791.09C443.678 2808.63 481.95 2833.81 501.874 2847.04C521.798 2860.26 562.197 2886.84 591.649 2906.11C621.102 2925.37 663.044 2952.91 684.853 2967.31C706.664 2981.72 743.482 3005.9 766.674 3021.06C814.338 3052.22 899.451 3108.13 949.962 3141.46C968.586 3153.75 1003.67 3176.82 1027.92 3192.72C1052.18 3208.63 1090.45 3233.79 1112.97 3248.63C1135.5 3263.48 1174.83 3289.34 1200.39 3306.1C1225.94 3322.85 1265.28 3348.71 1287.8 3363.57C1310.32 3378.42 1350.33 3404.71 1376.72 3421.99C1403.1 3439.26 1443.14 3465.57 1465.71 3480.43C1514.08 3512.31 1546.03 3533.31 1624.85 3585.01C1656.9 3606.03 1696.24 3631.88 1712.26 3642.45C1760.75 3674.43 1792.76 3695.22 1794.07 3695.6C1795.83 3696.1 1848.74 3627.85 1847.46 3626.73C1847.17 3626.47 1834.17 3617.53 1818.57 3606.87C1788.62 3586.39 1740.36 3553.11 1698.81 3524.28C1669.89 3504.21 1619.84 3469.75 1570.91 3436.22C1552.07 3423.31 1524.25 3404.12 1509.09 3393.58C1493.93 3383.04 1469.83 3366.36 1455.54 3356.51C1408.27 3323.94 1339.96 3276.85 1327.96 3268.55C1321.46 3264.06 1298.43 3248.13 1276.77 3233.15C1255.12 3218.17 1221.1 3194.63 1201.17 3180.85C1181.25 3167.07 1152.9 3147.6 1138.17 3137.58C1123.45 3127.56 1103.25 3113.66 1093.29 3106.69C1075.34 3094.13 1009.21 3048.52 956.457 3012.3C941.405 3001.96 928.754 2992.64 928.346 2991.57C927.208 2988.61 936.755 2929.85 944.548 2891.86C961.001 2811.65 986.806 2721.98 1011.84 2658.03C1070.38 2508.51 1141.18 2391.47 1236.41 2286.84C1245.62 2276.72 1253.62 2268.93 1254.2 2269.51C1255.72 2271.06 1301.37 2365.97 1313.03 2391.85C1318.5 2403.98 1331.15 2430.68 1341.15 2451.18C1351.15 2471.69 1363.9 2498.62 1369.48 2511.03C1375.06 2523.44 1383.15 2540.69 1387.45 2549.35C1398.44 2571.46 1425.61 2628.48 1425.61 2629.41C1425.61 2629.84 1431 2641.41 1437.59 2655.13C1473.62 2730.14 1483.89 2751.67 1483.89 2752.26C1483.89 2752.92 1494.72 2775.75 1516.14 2820.25C1522.81 2834.11 1534.15 2858.21 1541.34 2873.8C1548.53 2889.39 1561.29 2916.33 1569.7 2933.65C1578.11 2950.98 1590.88 2977.91 1598.07 2993.5C1605.27 3009.09 1618.04 3036.03 1626.46 3053.35C1634.87 3070.68 1647.27 3096.9 1654.01 3111.63C1660.76 3126.35 1673.85 3153.99 1683.12 3173.05C1692.39 3192.11 1704.8 3218.33 1710.72 3231.33C1716.63 3244.32 1728.5 3269.48 1737.11 3287.24C1745.71 3305 1756.49 3327.68 1761.05 3337.64C1770.41 3358.04 1802.2 3424.7 1803.05 3425.7C1804.14 3426.99 1844.56 3408.08 1844.56 3406.27C1844.56 3403.03 1835.96 3377.42 1820.97 3336.06C1812.96 3313.97 1798.76 3273.58 1789.42 3246.29C1780.07 3219 1763.59 3171.87 1752.8 3141.55C1742 3111.23 1731.21 3080.4 1728.82 3073.04C1726.42 3065.68 1713.55 3028.97 1700.22 2991.48C1686.89 2953.98 1672.9 2913.94 1669.14 2902.49C1665.37 2891.04 1652.91 2855.45 1641.46 2823.4C1630 2791.35 1615.1 2748.82 1608.34 2728.9C1601.58 2708.98 1588.83 2672.48 1579.99 2647.79C1571.16 2623.1 1557.35 2583.76 1549.3 2560.38C1541.25 2536.99 1527.2 2496.87 1518.07 2471.23C1508.95 2445.59 1500.07 2420.07 1498.35 2414.53C1496.62 2408.99 1484.23 2373.62 1470.82 2335.94C1457.41 2298.26 1444.28 2260.69 1441.64 2252.46C1439 2244.23 1429.36 2216.62 1420.2 2191.1C1411.05 2165.58 1403.56 2143.83 1403.56 2142.78C1403.56 2139.93 1457 2105.96 1488.19 2088.99C1511.89 2076.09 1565.1 2050.85 1594.14 2038.73C1645.85 2017.14 1734.16 1990.66 1798.49 1977.44C1818.24 1973.38 1819.36 1972.95 1819.36 1969.39C1819.36 1967.32 1815.44 1923.68 1810.65 1872.4C1800.45 1763.24 1786.74 1612.61 1785.46 1595.69C1784.97 1589.19 1784.27 1579.62 1783.89 1574.43C1783.05 1562.81 1759.16 1303.6 1758.91 1303.33C1758.81 1303.23 1755.46 1302.67 1751.47 1302.09L1744.22 1301.04L1729.96 1333.78C1722.11 1351.79 1713.22 1372.55 1710.2 1379.91C1707.18 1387.28 1694.29 1416.69 1681.54 1445.28C1668.8 1473.86 1656.45 1502.21 1654.09 1508.28C1651.73 1514.34 1642.52 1535.76 1633.63 1555.87L1617.47 1592.44L1604.62 1596.31C1597.56 1598.43 1588.58 1600.99 1584.69 1601.99C1557.07 1609.07 1505.27 1627.57 1445.99 1651.54C1403.21 1668.84 1332.77 1702.73 1288.73 1727.23C1275.38 1734.65 1263.92 1740.16 1263.26 1739.47C1262.6 1738.79 1258.87 1729.37 1254.97 1718.54C1236.82 1668.13 1219.89 1620.07 1214.48 1603.56C1211.21 1593.6 1197.58 1554.62 1184.18 1516.94C1149.61 1419.7 1150.38 1422.27 1153.2 1414.19C1155.7 1407 1163.64 1400.39 1169.76 1400.39C1171.71 1400.39 1204.92 1406.41 1243.56 1413.78C1282.2 1421.14 1314.86 1427.16 1316.13 1427.16C1318.29 1427.16 1324.81 1416.62 1324.81 1413.13C1324.81 1412.28 1226.12 1313.23 1105.49 1193.03C984.867 1072.83 861.722 950.004 831.837 920.081L777.499 865.676L777.123 1259.7Z" fill="#808080"/>
</svg>
