<svg width="4096" height="4096" viewBox="0 0 4096 4096" fill="none" xmlns="http://www.w3.org/2000/svg">
<path fill-rule="evenodd" clip-rule="evenodd" d="M2204.02 88.0317C2204.02 88.8302 2206.14 94.6263 2208.73 100.912C2215.05 116.234 2232.48 169.814 2238.45 192.292C2245.64 219.339 2258.45 279.786 2263.73 311.534C2287.17 452.55 2285.88 585.421 2259.84 712.379C2243.27 793.192 2226.96 844.054 2192.28 923.092C2168.23 977.908 2128.16 1046.35 2091.32 1095.55C2058.91 1138.84 2053.31 1145.84 2026.83 1176.17C2020.77 1183.12 2011.91 1193.41 2007.15 1199.04C1977.02 1234.67 1854.49 1358.06 1813.42 1394.12C1805.19 1401.35 1791.71 1413.67 1783.46 1421.51C1775.21 1429.34 1761.74 1441.4 1753.53 1448.31C1745.32 1455.22 1731.52 1467.39 1722.86 1475.36C1714.2 1483.34 1698.88 1496.82 1688.82 1505.33C1678.76 1513.84 1638.01 1548.77 1598.26 1582.95C1414.14 1741.27 1381.66 1771.25 1322.72 1837.38C1225.39 1946.57 1130.75 2068.29 1092.53 2133.48C1043.75 2216.67 1006.39 2303.03 984.202 2383.9C951.803 2501.98 939.317 2591.45 939.302 2705.66C939.288 2814.39 950.989 2906.41 979.314 3020.31C993.98 3079.29 1006.13 3116.22 1032.64 3182.43C1065.29 3263.95 1103.12 3335 1157.17 3416.32C1214.16 3502.04 1284.18 3582.69 1367.49 3658.56C1500.45 3779.64 1667.09 3877.54 1837.1 3934.45C1920.44 3962.35 1967.57 3974.45 2042.58 3987.19C2139.35 4003.63 2216.69 4009.69 2307.97 4007.98C2391.68 4006.41 2449.09 4000.69 2540.28 3984.84C2619.73 3971.03 2730.25 3938.8 2806.46 3907.21C2982.91 3834.09 3131.2 3736.37 3262.55 3606.67C3288.09 3581.46 3331.21 3535.13 3344.55 3518.57C3347.64 3514.74 3359.57 3500.01 3371.06 3485.84C3444.91 3394.75 3516.17 3272.4 3562 3158.02C3579.13 3115.26 3605.7 3031.55 3616.81 2985.35C3629.67 2931.89 3640.07 2865.95 3646.2 2798.92C3649.73 2760.4 3650.24 2645.29 3647.04 2610.7C3641.84 2554.41 3631.53 2484.84 3622.21 2442.97C3608.6 2381.89 3577.56 2282.18 3555.77 2229.55C3499.84 2094.45 3439.74 1994.18 3350.78 1887.57C3330.3 1863.02 3274.42 1808.68 3248.06 1787.68C3234.53 1776.9 3220.24 1765.77 3216.3 1762.95L3209.12 1757.83L3224.93 1785.79C3257.46 1843.35 3291.62 1912.1 3313.57 1964.17C3381.62 2125.57 3419 2285.6 3426.33 2446.9C3433.34 2600.97 3405.16 2766.86 3349.69 2898.14C3335.99 2930.57 3314.45 2974.05 3311.64 2974.95C3310.1 2975.44 3309.67 2967.35 3309.66 2938.04C3309.62 2857.91 3303.88 2787.21 3290.56 2702.84C3278.96 2629.39 3263.72 2571.82 3234.98 2492.79C3220.54 2453.07 3208.59 2426.01 3186.93 2383.9C3165.6 2342.44 3158.52 2330.44 3131.4 2289.79C3072.67 2201.74 2995.14 2121.98 2919.86 2072.17C2886.36 2050.01 2887.71 2050.81 2890.72 2055.03C2913.84 2087.5 2940.9 2132.5 2959.38 2169.22C2971.65 2193.63 2984.58 2225.64 2996.76 2261.84C3026.04 2348.82 3038.81 2426.87 3038.75 2518.54C3038.73 2553.81 3037.95 2561.09 3034.2 2561.09C3032.78 2561.09 3016.39 2557.6 2997.79 2553.34C2979.18 2549.07 2951.56 2543 2936.4 2539.83C2921.24 2536.67 2865.25 2524.15 2811.97 2512.01C2758.7 2499.87 2698.81 2486.5 2678.88 2482.29C2641.71 2474.45 2610.66 2467.53 2538.17 2450.92C2491.42 2440.2 2482.18 2436.45 2465.62 2421.46C2449.08 2406.49 2441.24 2385.1 2430.83 2326.42C2429.83 2320.79 2418.83 2270.11 2406.38 2213.8C2380.99 2098.98 2374.74 2070.17 2373.24 2061.03C2372.67 2057.56 2360.93 2003.81 2347.16 1941.58C2333.39 1879.34 2318.93 1812.72 2315.03 1793.53C2311.13 1774.33 2306.99 1754.73 2305.83 1749.97C2303.41 1739.97 2303.83 1739.01 2297.85 1768.08C2295.72 1778.47 2283.67 1833.47 2271.08 1890.3C2258.5 1947.13 2245.74 2005.95 2242.74 2021.03C2239.73 2036.1 2226 2099.46 2212.23 2161.83C2198.46 2224.2 2186.32 2279.84 2185.26 2285.47C2184.2 2291.1 2178.77 2316.61 2173.19 2342.17C2161.81 2394.28 2157.81 2404.98 2144.65 2418.4C2134.27 2428.98 2120.31 2437.76 2108.01 2441.43C2095.62 2445.12 1968.11 2474.15 1931.55 2481.6C1917.25 2484.51 1860.53 2497.16 1805.5 2509.71C1750.47 2522.26 1689.87 2535.8 1670.84 2539.8C1651.81 2543.8 1625.39 2549.6 1612.13 2552.69C1598.88 2555.77 1587.6 2557.88 1587.08 2557.35C1586.56 2556.83 1585.5 2545.59 1584.72 2532.37C1579.82 2448.92 1598.76 2345.09 1638.68 2236.6C1659.28 2180.62 1703.96 2089.64 1735.61 2039.22C1739.5 2033.02 1746.27 2021.93 1750.66 2014.57C1759.8 1999.21 1796.11 1947.11 1817.06 1919.28C1855.26 1868.56 1909.21 1806.71 1955.87 1760.15C1975.76 1740.3 2010.75 1702.2 2032.35 1676.86C2041.44 1666.19 2055.37 1649.99 2063.3 1640.87C2119.35 1576.33 2207.12 1454.96 2253.19 1378.27C2274.55 1342.7 2305.2 1286.54 2315.5 1264.08C2353.01 1182.3 2366.98 1144.22 2389.81 1061.61C2409.26 991.22 2423.27 910.404 2429.25 834.104C2431.01 811.67 2432.09 716.017 2431.02 677.392C2428.48 585.497 2411.72 485.253 2382.04 384.409C2368.91 339.805 2364.31 326.509 2350.99 294.667C2312.47 202.637 2267.53 135.088 2220.56 98.6441C2205.92 87.2852 2204.02 86.0661 2204.02 88.0317ZM1640.28 941.416C1634.08 969.342 1619.13 1009.96 1605.16 1036.82C1575.93 1092.98 1532.46 1148.67 1456.04 1227.82C1410.29 1275.22 1333 1349.45 1281.21 1395.73C1247.27 1426.05 1204.23 1463.92 1173.25 1490.7C970.763 1665.72 845.319 1790.74 736.436 1926.03C633.218 2054.29 568.525 2165.43 520.62 2296.79C493.565 2370.98 481.248 2413.03 469.965 2469.74C452.541 2557.31 446.378 2615.09 446.36 2691.03C446.345 2763.35 452.161 2818.93 467.784 2895.78C475.476 2933.61 480.87 2954.61 490.645 2984.77C514.846 3059.43 542.04 3121.84 580.587 3191.18C609.647 3243.46 650.636 3303.36 695.836 3359.62C758.639 3437.78 845.643 3522 921.799 3578.34C940.32 3592.04 942.922 3593.21 935.987 3584.71C882.635 3519.29 826.951 3421.31 785.694 3320.24C775.657 3295.65 753.282 3231.82 744.015 3201.33C716.667 3111.35 697.308 3008.68 687.739 2902.87C683.781 2859.11 683.789 2724.7 687.753 2682.37C697.995 2572.97 717.755 2472.23 746.54 2382.67C756.201 2352.61 778.476 2292.33 790.008 2265.03C809.936 2217.86 846.562 2144.57 871.984 2100.99C879.243 2088.54 887.564 2074.1 890.471 2068.9C904.425 2043.96 964.071 1951.83 987.438 1919.11C994.311 1909.49 1004.35 1895.28 1009.75 1887.53C1022.46 1869.29 1087.13 1782.8 1105.46 1759.54C1169.32 1678.49 1195.15 1646.97 1316.49 1502C1360.68 1449.21 1403.14 1398.18 1410.84 1388.6C1418.54 1379.02 1428.88 1366.57 1433.81 1360.94C1438.75 1355.31 1449.43 1342.2 1457.56 1331.8C1465.68 1321.41 1479.47 1304.01 1488.19 1293.14C1506.23 1270.66 1551.55 1209.47 1568.54 1184.64C1585.06 1160.51 1608.09 1121.63 1616.77 1103.25C1640.47 1053.04 1651.85 995.925 1646.55 953.804C1643.82 932.112 1642.79 930.082 1640.28 941.416ZM2882.1 1183.25C2880.66 1189.59 2876.37 1210.02 2872.57 1228.64C2868.78 1247.27 2857.49 1299.71 2847.48 1345.19C2831.2 1419.18 2828.62 1429.23 2822.98 1440.74C2814.59 1457.84 2801.78 1470.65 2784.49 1479.19C2771.16 1485.78 2775.03 1484.84 2613.52 1520.57C2524.43 1540.27 2500.24 1545.97 2501.36 1546.98C2502.47 1547.99 2628.83 1576.66 2674.16 1586.19C2720.69 1595.97 2772.94 1608.48 2780.08 1611.54C2799.21 1619.74 2815.09 1635.48 2824.43 1655.49C2829.22 1665.76 2852.49 1767.2 2874.24 1872.69C2879.14 1896.45 2883.71 1917.35 2884.4 1919.16C2885.85 1922.93 2885.11 1925.48 2890.75 1897.23C2900.42 1848.78 2942.8 1661.61 2945.49 1655.47C2955.62 1632.29 2977.97 1614.29 3006 1606.73C3019.48 1603.09 3085.67 1588.23 3115.16 1582.23C3139.35 1577.3 3265.3 1548.7 3268.72 1547.36C3271.07 1546.43 3217.8 1533.7 3147.45 1518.37C3037.09 1494.32 2998.94 1485.34 2989.82 1481.25C2971.41 1472.98 2954.53 1456.89 2946.45 1439.91C2942.94 1432.51 2906.19 1272.03 2889.96 1193.21C2887.65 1181.96 2885.52 1172.52 2885.24 1172.23C2884.96 1171.95 2883.54 1176.91 2882.1 1183.25ZM3029.32 2634.77C3029.32 2651.44 3012.59 2720.04 2997.54 2765.05C2979.98 2817.55 2965.61 2850.17 2939.41 2896.92C2886.77 2990.86 2818.41 3069.1 2732.43 3133.83C2699.03 3158.97 2642.38 3192.73 2604.86 3209.86C2564.04 3228.5 2505.46 3248.21 2462.32 3257.83C2416.5 3268.04 2342.62 3276.49 2342.62 3271.51C2342.62 3270.7 2348.94 3241.47 2356.67 3206.55C2364.39 3171.63 2372.23 3135.26 2374.08 3125.73C2375.93 3116.2 2389.36 3054.19 2403.93 2987.92C2418.5 2921.65 2433.1 2854.32 2436.38 2838.29C2439.66 2822.27 2443.62 2805.43 2445.16 2800.89C2451.54 2782.14 2468.45 2763.66 2487.99 2754.08C2496.77 2749.77 2509.46 2746.24 2544.22 2738.41C2568.91 2732.86 2593.72 2727.49 2599.35 2726.48C2604.98 2725.47 2646.79 2716.17 2692.27 2705.8C2737.75 2695.44 2794.8 2682.65 2819.06 2677.38C2843.31 2672.11 2900.01 2659.43 2945.06 2649.21C2990.1 2638.99 3027.49 2630.57 3028.14 2630.51C3028.79 2630.45 3029.32 2632.36 3029.32 2634.77ZM1616.73 2639.15C1626.59 2641.37 1656.28 2648.15 1682.7 2654.22C1709.12 2660.29 1741.01 2667.3 1753.57 2669.8C1766.13 2672.29 1821.77 2684.7 1877.21 2697.37C1932.65 2710.04 1989.7 2722.79 2004 2725.7C2062.78 2737.66 2108.82 2748.84 2118.97 2753.63C2133.11 2760.29 2151.84 2779 2158.4 2793.03C2161.93 2800.58 2166.36 2818.03 2175.12 2858.99C2181.68 2889.62 2198.67 2967.57 2212.88 3032.22C2227.08 3096.86 2241.48 3163.49 2244.88 3180.27C2248.27 3197.05 2253.93 3223.71 2257.46 3239.51C2260.99 3255.32 2263.87 3269.35 2263.87 3270.7C2263.87 3273.41 2261.86 3273.31 2225.28 3268.88C2153.19 3260.14 2075.5 3236.95 2009.51 3204.46C1895.9 3148.53 1803.15 3068.53 1729.25 2962.73C1709 2933.73 1697.86 2915.62 1681.91 2885.72C1648.6 2823.31 1628.03 2769.87 1609.41 2697.33C1603.95 2676.07 1596.07 2639.74 1596.07 2635.82C1596.07 2634.64 1598.15 2634.97 1616.73 2639.15Z" fill="#808080"/>
</svg>
